%TF.GenerationSoftware,KiCad,Pcbnew,(5.1.6)-1*%
%TF.CreationDate,2021-03-17T18:03:01-05:00*%
%TF.ProjectId,ThreeToOne,54687265-6554-46f4-9f6e-652e6b696361,rev?*%
%TF.SameCoordinates,Original*%
%TF.FileFunction,Soldermask,Bot*%
%TF.FilePolarity,Negative*%
%FSLAX46Y46*%
G04 Gerber Fmt 4.6, Leading zero omitted, Abs format (unit mm)*
G04 Created by KiCad (PCBNEW (5.1.6)-1) date 2021-03-17 18:03:01*
%MOMM*%
%LPD*%
G01*
G04 APERTURE LIST*
%ADD10C,1.751000*%
%ADD11R,1.751000X1.751000*%
%ADD12C,1.300000*%
%ADD13C,2.100000*%
%ADD14C,2.000000*%
%ADD15C,1.900000*%
%ADD16C,4.088000*%
%ADD17C,1.852600*%
%ADD18R,1.852600X1.852600*%
%ADD19R,2.100000X2.100000*%
%ADD20R,2.100000X3.300000*%
G04 APERTURE END LIST*
D10*
%TO.C,R1*%
X470693750Y-154622500D03*
X470693750Y-147002500D03*
%TD*%
%TO.C,R0*%
X457993750Y-154781250D03*
X457993750Y-147161250D03*
%TD*%
D11*
%TO.C,LED1*%
X467518750Y-154622500D03*
D10*
X467518750Y-147002500D03*
%TD*%
D11*
%TO.C,LED0*%
X461168750Y-154781250D03*
D10*
X461168750Y-147161250D03*
%TD*%
D12*
%TO.C,SW4*%
X268623750Y-146612500D03*
D13*
X278843750Y-154612500D03*
X273843750Y-156712500D03*
X268843750Y-154612500D03*
D14*
X279343750Y-150812500D03*
X268343750Y-150812500D03*
D12*
X279063750Y-146612500D03*
D13*
X276383750Y-145732500D03*
X271343750Y-146812500D03*
X276343750Y-146312500D03*
D15*
X268763750Y-150812500D03*
D13*
X270033750Y-148272500D03*
X277653750Y-148272500D03*
X271303750Y-145732500D03*
X276343750Y-146812500D03*
D15*
X278923750Y-150812500D03*
D13*
X271343750Y-146312500D03*
D16*
X273843750Y-150812500D03*
%TD*%
D12*
%TO.C,SW7*%
X325773750Y-146612500D03*
D13*
X335993750Y-154612500D03*
X330993750Y-156712500D03*
X325993750Y-154612500D03*
D14*
X336493750Y-150812500D03*
X325493750Y-150812500D03*
D12*
X336213750Y-146612500D03*
D13*
X333533750Y-145732500D03*
X328493750Y-146812500D03*
X333493750Y-146312500D03*
D15*
X325913750Y-150812500D03*
D13*
X327183750Y-148272500D03*
X334803750Y-148272500D03*
X328453750Y-145732500D03*
X333493750Y-146812500D03*
D15*
X336073750Y-150812500D03*
D13*
X328493750Y-146312500D03*
D16*
X330993750Y-150812500D03*
%TD*%
D12*
%TO.C,SW6*%
X306723750Y-146612500D03*
D13*
X316943750Y-154612500D03*
X311943750Y-156712500D03*
X306943750Y-154612500D03*
D14*
X317443750Y-150812500D03*
X306443750Y-150812500D03*
D12*
X317163750Y-146612500D03*
D13*
X314483750Y-145732500D03*
X309443750Y-146812500D03*
X314443750Y-146312500D03*
D15*
X306863750Y-150812500D03*
D13*
X308133750Y-148272500D03*
X315753750Y-148272500D03*
X309403750Y-145732500D03*
X314443750Y-146812500D03*
D15*
X317023750Y-150812500D03*
D13*
X309443750Y-146312500D03*
D16*
X311943750Y-150812500D03*
%TD*%
D17*
%TO.C,U2*%
X478313750Y-136842500D03*
X478313750Y-134302500D03*
X478313750Y-131762500D03*
X478313750Y-129222500D03*
X478313750Y-126682500D03*
X450373750Y-124142500D03*
X478313750Y-139153900D03*
X452913750Y-124142500D03*
X455453750Y-124142500D03*
X457993750Y-124142500D03*
X460533750Y-124142500D03*
X463073750Y-124142500D03*
X465613750Y-124142500D03*
X468153750Y-124142500D03*
X470693750Y-124142500D03*
X473233750Y-124142500D03*
X475773750Y-124142500D03*
X478313750Y-124142500D03*
X475773750Y-139382500D03*
X473233750Y-139382500D03*
X470693750Y-139382500D03*
X468153750Y-139382500D03*
X465613750Y-139382500D03*
X463073750Y-139382500D03*
X460533750Y-139382500D03*
X457993750Y-139382500D03*
X455453750Y-139382500D03*
X452913750Y-139382500D03*
D18*
X450373750Y-139382500D03*
%TD*%
D17*
%TO.C,U1*%
X306863750Y-139382500D03*
X278923750Y-124142500D03*
X304323750Y-139382500D03*
X301783750Y-139382500D03*
X299243750Y-139382500D03*
X296703750Y-139382500D03*
X294163750Y-139382500D03*
X291623750Y-139382500D03*
X289083750Y-139382500D03*
X286543750Y-139382500D03*
X284003750Y-139382500D03*
X281463750Y-139382500D03*
X278923750Y-139382500D03*
X281463750Y-124142500D03*
X284003750Y-124142500D03*
X286543750Y-124142500D03*
X289083750Y-124142500D03*
X291623750Y-124142500D03*
X294163750Y-124142500D03*
X296703750Y-124142500D03*
X299243750Y-124142500D03*
X301783750Y-124142500D03*
X304323750Y-124142500D03*
D18*
X306863750Y-124142500D03*
%TD*%
D12*
%TO.C,SW69*%
X516273750Y-203762500D03*
D13*
X526493750Y-211762500D03*
X521493750Y-213862500D03*
X516493750Y-211762500D03*
D14*
X526993750Y-207962500D03*
X515993750Y-207962500D03*
D12*
X526713750Y-203762500D03*
D13*
X524033750Y-202882500D03*
X518993750Y-203962500D03*
X523993750Y-203462500D03*
D15*
X516413750Y-207962500D03*
D13*
X517683750Y-205422500D03*
X525303750Y-205422500D03*
X518953750Y-202882500D03*
X523993750Y-203962500D03*
D15*
X526573750Y-207962500D03*
D13*
X518993750Y-203462500D03*
D16*
X521493750Y-207962500D03*
%TD*%
D11*
%TO.C,D101*%
X512762500Y-253841250D03*
D10*
X512762500Y-246221250D03*
%TD*%
D11*
%TO.C,D100*%
X493712500Y-253841250D03*
D10*
X493712500Y-246221250D03*
%TD*%
D11*
%TO.C,D99*%
X474662500Y-253841250D03*
D10*
X474662500Y-246221250D03*
%TD*%
D11*
%TO.C,D98*%
X455612500Y-253841250D03*
D10*
X455612500Y-246221250D03*
%TD*%
D11*
%TO.C,D97*%
X436562500Y-253841250D03*
D10*
X436562500Y-246221250D03*
%TD*%
D11*
%TO.C,D96*%
X417512500Y-253841250D03*
D10*
X417512500Y-246221250D03*
%TD*%
D11*
%TO.C,D95*%
X398462500Y-253841250D03*
D10*
X398462500Y-246221250D03*
%TD*%
D11*
%TO.C,D94*%
X379412500Y-253841250D03*
D10*
X379412500Y-246221250D03*
%TD*%
D11*
%TO.C,D93*%
X360362500Y-253841250D03*
D10*
X360362500Y-246221250D03*
%TD*%
D11*
%TO.C,D92*%
X331787500Y-253841250D03*
D10*
X331787500Y-246221250D03*
%TD*%
D11*
%TO.C,D91*%
X300037500Y-249872500D03*
D10*
X300037500Y-242252500D03*
%TD*%
D11*
%TO.C,D90*%
X274637500Y-253841250D03*
D10*
X274637500Y-246221250D03*
%TD*%
D11*
%TO.C,D89*%
X264318750Y-253682500D03*
D10*
X264318750Y-246062500D03*
%TD*%
D11*
%TO.C,D88*%
X244475000Y-253841250D03*
D10*
X244475000Y-246221250D03*
%TD*%
D11*
%TO.C,D87*%
X225425000Y-253841250D03*
D10*
X225425000Y-246221250D03*
%TD*%
D11*
%TO.C,D86*%
X536733750Y-245268750D03*
D10*
X544353750Y-245268750D03*
%TD*%
D11*
%TO.C,D85*%
X517683750Y-235743750D03*
D10*
X525303750Y-235743750D03*
%TD*%
D11*
%TO.C,D84*%
X498633750Y-235743750D03*
D10*
X506253750Y-235743750D03*
%TD*%
D11*
%TO.C,D83*%
X479583750Y-235743750D03*
D10*
X487203750Y-235743750D03*
%TD*%
D11*
%TO.C,D82*%
X460533750Y-235743750D03*
D10*
X468153750Y-235743750D03*
%TD*%
D11*
%TO.C,D81*%
X431958750Y-235743750D03*
D10*
X439578750Y-235743750D03*
%TD*%
D11*
%TO.C,D80*%
X403383750Y-235743750D03*
D10*
X411003750Y-235743750D03*
%TD*%
D11*
%TO.C,D79*%
X384175000Y-235743750D03*
D10*
X391795000Y-235743750D03*
%TD*%
D11*
%TO.C,D78*%
X372903750Y-235743750D03*
D10*
X365283750Y-235743750D03*
%TD*%
D11*
%TO.C,D77*%
X353853750Y-235743750D03*
D10*
X346233750Y-235743750D03*
%TD*%
D11*
%TO.C,D76*%
X334803750Y-235743750D03*
D10*
X327183750Y-235743750D03*
%TD*%
D11*
%TO.C,D75*%
X303212500Y-234791250D03*
D10*
X303212500Y-227171250D03*
%TD*%
D11*
%TO.C,D74*%
X296703750Y-235743750D03*
D10*
X289083750Y-235743750D03*
%TD*%
D11*
%TO.C,D73*%
X277653750Y-235743750D03*
D10*
X270033750Y-235743750D03*
%TD*%
D11*
%TO.C,D72*%
X258603750Y-235743750D03*
D10*
X250983750Y-235743750D03*
%TD*%
D11*
%TO.C,D71*%
X239553750Y-235743750D03*
D10*
X231933750Y-235743750D03*
%TD*%
D11*
%TO.C,D70*%
X220503750Y-235743750D03*
D10*
X212883750Y-235743750D03*
%TD*%
D11*
%TO.C,D69*%
X517683750Y-216693750D03*
D10*
X525303750Y-216693750D03*
%TD*%
D11*
%TO.C,D68*%
X498633750Y-216693750D03*
D10*
X506253750Y-216693750D03*
%TD*%
D11*
%TO.C,D67*%
X479583750Y-216693750D03*
D10*
X487203750Y-216693750D03*
%TD*%
D11*
%TO.C,D66*%
X451802500Y-216693750D03*
D10*
X459422500Y-216693750D03*
%TD*%
D11*
%TO.C,D65*%
X422433750Y-216693750D03*
D10*
X430053750Y-216693750D03*
%TD*%
D11*
%TO.C,D64*%
X403383750Y-216693750D03*
D10*
X411003750Y-216693750D03*
%TD*%
D11*
%TO.C,D63*%
X384333750Y-216693750D03*
D10*
X391953750Y-216693750D03*
%TD*%
D11*
%TO.C,D62*%
X372903750Y-216693750D03*
D10*
X365283750Y-216693750D03*
%TD*%
D11*
%TO.C,D61*%
X353853750Y-216693750D03*
D10*
X346233750Y-216693750D03*
%TD*%
D11*
%TO.C,D60*%
X334803750Y-216693750D03*
D10*
X327183750Y-216693750D03*
%TD*%
D11*
%TO.C,D59*%
X315753750Y-216693750D03*
D10*
X308133750Y-216693750D03*
%TD*%
D11*
%TO.C,D58*%
X296703750Y-216693750D03*
D10*
X289083750Y-216693750D03*
%TD*%
D11*
%TO.C,D57*%
X277653750Y-216693750D03*
D10*
X270033750Y-216693750D03*
%TD*%
D11*
%TO.C,D56*%
X258603750Y-216693750D03*
D10*
X250983750Y-216693750D03*
%TD*%
D11*
%TO.C,D55*%
X239553750Y-216693750D03*
D10*
X231933750Y-216693750D03*
%TD*%
D11*
%TO.C,D54*%
X220503750Y-216693750D03*
D10*
X212883750Y-216693750D03*
%TD*%
D11*
%TO.C,D53*%
X536733750Y-207168750D03*
D10*
X544353750Y-207168750D03*
%TD*%
D11*
%TO.C,D52*%
X517683750Y-197643750D03*
D10*
X525303750Y-197643750D03*
%TD*%
D11*
%TO.C,D51*%
X498633750Y-197643750D03*
D10*
X506253750Y-197643750D03*
%TD*%
D11*
%TO.C,D50*%
X479583750Y-197643750D03*
D10*
X487203750Y-197643750D03*
%TD*%
D11*
%TO.C,D49*%
X460533750Y-197643750D03*
D10*
X468153750Y-197643750D03*
%TD*%
D11*
%TO.C,D48*%
X441483750Y-197643750D03*
D10*
X449103750Y-197643750D03*
%TD*%
D11*
%TO.C,D47*%
X422433750Y-197643750D03*
D10*
X430053750Y-197643750D03*
%TD*%
D11*
%TO.C,D46*%
X403383750Y-197643750D03*
D10*
X411003750Y-197643750D03*
%TD*%
D11*
%TO.C,D45*%
X384333750Y-197643750D03*
D10*
X391953750Y-197643750D03*
%TD*%
D11*
%TO.C,D44*%
X372903750Y-197643750D03*
D10*
X365283750Y-197643750D03*
%TD*%
D11*
%TO.C,D43*%
X353853750Y-197643750D03*
D10*
X346233750Y-197643750D03*
%TD*%
D11*
%TO.C,D42*%
X334803750Y-197643750D03*
D10*
X327183750Y-197643750D03*
%TD*%
D11*
%TO.C,D41*%
X315753750Y-197643750D03*
D10*
X308133750Y-197643750D03*
%TD*%
D11*
%TO.C,D40*%
X296703750Y-197643750D03*
D10*
X289083750Y-197643750D03*
%TD*%
D11*
%TO.C,D39*%
X277653750Y-197643750D03*
D10*
X270033750Y-197643750D03*
%TD*%
D11*
%TO.C,D38*%
X258603750Y-197643750D03*
D10*
X250983750Y-197643750D03*
%TD*%
D11*
%TO.C,D37*%
X239553750Y-197643750D03*
D10*
X231933750Y-197643750D03*
%TD*%
D11*
%TO.C,D36*%
X220503750Y-197643750D03*
D10*
X212883750Y-197643750D03*
%TD*%
D11*
%TO.C,D35*%
X536733750Y-178593750D03*
D10*
X544353750Y-178593750D03*
%TD*%
D11*
%TO.C,D34*%
X517683750Y-178593750D03*
D10*
X525303750Y-178593750D03*
%TD*%
D11*
%TO.C,D33*%
X498633750Y-178593750D03*
D10*
X506253750Y-178593750D03*
%TD*%
D11*
%TO.C,D32*%
X479583750Y-178520000D03*
D10*
X487203750Y-178520000D03*
%TD*%
D11*
%TO.C,D31*%
X460533750Y-178593750D03*
D10*
X468153750Y-178593750D03*
%TD*%
D11*
%TO.C,D30*%
X441483750Y-178593750D03*
D10*
X449103750Y-178593750D03*
%TD*%
D11*
%TO.C,D29*%
X422433750Y-178593750D03*
D10*
X430053750Y-178593750D03*
%TD*%
D11*
%TO.C,D28*%
X403383750Y-178593750D03*
D10*
X411003750Y-178593750D03*
%TD*%
D11*
%TO.C,D27*%
X384333750Y-178593750D03*
D10*
X391953750Y-178593750D03*
%TD*%
D11*
%TO.C,D26*%
X372903750Y-178593750D03*
D10*
X365283750Y-178593750D03*
%TD*%
D11*
%TO.C,D25*%
X353853750Y-178593750D03*
D10*
X346233750Y-178593750D03*
%TD*%
D11*
%TO.C,D24*%
X334803750Y-178593750D03*
D10*
X327183750Y-178593750D03*
%TD*%
D11*
%TO.C,D23*%
X315753750Y-178593750D03*
D10*
X308133750Y-178593750D03*
%TD*%
D11*
%TO.C,D22*%
X296703750Y-178593750D03*
D10*
X289083750Y-178593750D03*
%TD*%
D11*
%TO.C,D21*%
X277653750Y-178593750D03*
D10*
X270033750Y-178593750D03*
%TD*%
D11*
%TO.C,D20*%
X258603750Y-178593750D03*
D10*
X250983750Y-178593750D03*
%TD*%
D11*
%TO.C,D19*%
X239553750Y-178593750D03*
D10*
X231933750Y-178593750D03*
%TD*%
D11*
%TO.C,D18*%
X220503750Y-178593750D03*
D10*
X212883750Y-178593750D03*
%TD*%
D11*
%TO.C,D17*%
X531018750Y-154622500D03*
D10*
X531018750Y-147002500D03*
%TD*%
D11*
%TO.C,D16*%
X517683750Y-159543750D03*
D10*
X525303750Y-159543750D03*
%TD*%
D11*
%TO.C,D15*%
X498633750Y-159543750D03*
D10*
X506253750Y-159543750D03*
%TD*%
D11*
%TO.C,D14*%
X479583750Y-159543750D03*
D10*
X487203750Y-159543750D03*
%TD*%
D11*
%TO.C,D13*%
X441483750Y-159543750D03*
D10*
X449103750Y-159543750D03*
%TD*%
D11*
%TO.C,D12*%
X422433750Y-159543750D03*
D10*
X430053750Y-159543750D03*
%TD*%
D11*
%TO.C,D11*%
X403383750Y-159543750D03*
D10*
X411003750Y-159543750D03*
%TD*%
D11*
%TO.C,D10*%
X384333750Y-159543750D03*
D10*
X391953750Y-159543750D03*
%TD*%
D11*
%TO.C,D9*%
X372903750Y-159543750D03*
D10*
X365283750Y-159543750D03*
%TD*%
D11*
%TO.C,D8*%
X353853750Y-159543750D03*
D10*
X346233750Y-159543750D03*
%TD*%
D11*
%TO.C,D7*%
X334803750Y-159543750D03*
D10*
X327183750Y-159543750D03*
%TD*%
D11*
%TO.C,D6*%
X315753750Y-159543750D03*
D10*
X308133750Y-159543750D03*
%TD*%
D11*
%TO.C,D5*%
X296703750Y-159543750D03*
D10*
X289083750Y-159543750D03*
%TD*%
D11*
%TO.C,D4*%
X277653750Y-159543750D03*
D10*
X270033750Y-159543750D03*
%TD*%
D11*
%TO.C,D3*%
X258603750Y-159543750D03*
D10*
X250983750Y-159543750D03*
%TD*%
D11*
%TO.C,D2*%
X239553750Y-159543750D03*
D10*
X231933750Y-159543750D03*
%TD*%
D11*
%TO.C,D1*%
X220503750Y-159543750D03*
D10*
X212883750Y-159543750D03*
%TD*%
D19*
%TO.C,SW17*%
X538043750Y-158312500D03*
D13*
X540543750Y-158312500D03*
X543043750Y-158312500D03*
D20*
X534943750Y-150812500D03*
X546143750Y-150812500D03*
D13*
X538043750Y-143812500D03*
X543043750Y-143812500D03*
%TD*%
D12*
%TO.C,SW101*%
X516273750Y-241862500D03*
D13*
X526493750Y-249862500D03*
X521493750Y-251962500D03*
X516493750Y-249862500D03*
D14*
X526993750Y-246062500D03*
X515993750Y-246062500D03*
D12*
X526713750Y-241862500D03*
D13*
X524033750Y-240982500D03*
X518993750Y-242062500D03*
X523993750Y-241562500D03*
D15*
X516413750Y-246062500D03*
D13*
X517683750Y-243522500D03*
X525303750Y-243522500D03*
X518953750Y-240982500D03*
X523993750Y-242062500D03*
D15*
X526573750Y-246062500D03*
D13*
X518993750Y-241562500D03*
D16*
X521493750Y-246062500D03*
%TD*%
D12*
%TO.C,SW100*%
X497223750Y-241862500D03*
D13*
X507443750Y-249862500D03*
X502443750Y-251962500D03*
X497443750Y-249862500D03*
D14*
X507943750Y-246062500D03*
X496943750Y-246062500D03*
D12*
X507663750Y-241862500D03*
D13*
X504983750Y-240982500D03*
X499943750Y-242062500D03*
X504943750Y-241562500D03*
D15*
X497363750Y-246062500D03*
D13*
X498633750Y-243522500D03*
X506253750Y-243522500D03*
X499903750Y-240982500D03*
X504943750Y-242062500D03*
D15*
X507523750Y-246062500D03*
D13*
X499943750Y-241562500D03*
D16*
X502443750Y-246062500D03*
%TD*%
D12*
%TO.C,SW99*%
X478173750Y-241862500D03*
D13*
X488393750Y-249862500D03*
X483393750Y-251962500D03*
X478393750Y-249862500D03*
D14*
X488893750Y-246062500D03*
X477893750Y-246062500D03*
D12*
X488613750Y-241862500D03*
D13*
X485933750Y-240982500D03*
X480893750Y-242062500D03*
X485893750Y-241562500D03*
D15*
X478313750Y-246062500D03*
D13*
X479583750Y-243522500D03*
X487203750Y-243522500D03*
X480853750Y-240982500D03*
X485893750Y-242062500D03*
D15*
X488473750Y-246062500D03*
D13*
X480893750Y-241562500D03*
D16*
X483393750Y-246062500D03*
%TD*%
D12*
%TO.C,SW98*%
X459123750Y-241862500D03*
D13*
X469343750Y-249862500D03*
X464343750Y-251962500D03*
X459343750Y-249862500D03*
D14*
X469843750Y-246062500D03*
X458843750Y-246062500D03*
D12*
X469563750Y-241862500D03*
D13*
X466883750Y-240982500D03*
X461843750Y-242062500D03*
X466843750Y-241562500D03*
D15*
X459263750Y-246062500D03*
D13*
X460533750Y-243522500D03*
X468153750Y-243522500D03*
X461803750Y-240982500D03*
X466843750Y-242062500D03*
D15*
X469423750Y-246062500D03*
D13*
X461843750Y-241562500D03*
D16*
X464343750Y-246062500D03*
%TD*%
D12*
%TO.C,SW97*%
X440073750Y-241862500D03*
D13*
X450293750Y-249862500D03*
X445293750Y-251962500D03*
X440293750Y-249862500D03*
D14*
X450793750Y-246062500D03*
X439793750Y-246062500D03*
D12*
X450513750Y-241862500D03*
D13*
X447833750Y-240982500D03*
X442793750Y-242062500D03*
X447793750Y-241562500D03*
D15*
X440213750Y-246062500D03*
D13*
X441483750Y-243522500D03*
X449103750Y-243522500D03*
X442753750Y-240982500D03*
X447793750Y-242062500D03*
D15*
X450373750Y-246062500D03*
D13*
X442793750Y-241562500D03*
D16*
X445293750Y-246062500D03*
%TD*%
D12*
%TO.C,SW96*%
X421023750Y-241862500D03*
D13*
X431243750Y-249862500D03*
X426243750Y-251962500D03*
X421243750Y-249862500D03*
D14*
X431743750Y-246062500D03*
X420743750Y-246062500D03*
D12*
X431463750Y-241862500D03*
D13*
X428783750Y-240982500D03*
X423743750Y-242062500D03*
X428743750Y-241562500D03*
D15*
X421163750Y-246062500D03*
D13*
X422433750Y-243522500D03*
X430053750Y-243522500D03*
X423703750Y-240982500D03*
X428743750Y-242062500D03*
D15*
X431323750Y-246062500D03*
D13*
X423743750Y-241562500D03*
D16*
X426243750Y-246062500D03*
%TD*%
D12*
%TO.C,SW95*%
X401973750Y-241862500D03*
D13*
X412193750Y-249862500D03*
X407193750Y-251962500D03*
X402193750Y-249862500D03*
D14*
X412693750Y-246062500D03*
X401693750Y-246062500D03*
D12*
X412413750Y-241862500D03*
D13*
X409733750Y-240982500D03*
X404693750Y-242062500D03*
X409693750Y-241562500D03*
D15*
X402113750Y-246062500D03*
D13*
X403383750Y-243522500D03*
X411003750Y-243522500D03*
X404653750Y-240982500D03*
X409693750Y-242062500D03*
D15*
X412273750Y-246062500D03*
D13*
X404693750Y-241562500D03*
D16*
X407193750Y-246062500D03*
%TD*%
D12*
%TO.C,SW94*%
X382923750Y-241862500D03*
D13*
X393143750Y-249862500D03*
X388143750Y-251962500D03*
X383143750Y-249862500D03*
D14*
X393643750Y-246062500D03*
X382643750Y-246062500D03*
D12*
X393363750Y-241862500D03*
D13*
X390683750Y-240982500D03*
X385643750Y-242062500D03*
X390643750Y-241562500D03*
D15*
X383063750Y-246062500D03*
D13*
X384333750Y-243522500D03*
X391953750Y-243522500D03*
X385603750Y-240982500D03*
X390643750Y-242062500D03*
D15*
X393223750Y-246062500D03*
D13*
X385643750Y-241562500D03*
D16*
X388143750Y-246062500D03*
%TD*%
D12*
%TO.C,SW93*%
X363873750Y-241862500D03*
D13*
X374093750Y-249862500D03*
X369093750Y-251962500D03*
X364093750Y-249862500D03*
D14*
X374593750Y-246062500D03*
X363593750Y-246062500D03*
D12*
X374313750Y-241862500D03*
D13*
X371633750Y-240982500D03*
X366593750Y-242062500D03*
X371593750Y-241562500D03*
D15*
X364013750Y-246062500D03*
D13*
X365283750Y-243522500D03*
X372903750Y-243522500D03*
X366553750Y-240982500D03*
X371593750Y-242062500D03*
D15*
X374173750Y-246062500D03*
D13*
X366593750Y-241562500D03*
D16*
X369093750Y-246062500D03*
%TD*%
D12*
%TO.C,SW92*%
X335298750Y-241862500D03*
D13*
X345518750Y-249862500D03*
X340518750Y-251962500D03*
X335518750Y-249862500D03*
D14*
X346018750Y-246062500D03*
X335018750Y-246062500D03*
D12*
X345738750Y-241862500D03*
D13*
X343058750Y-240982500D03*
X338018750Y-242062500D03*
X343018750Y-241562500D03*
D15*
X335438750Y-246062500D03*
D13*
X336708750Y-243522500D03*
X344328750Y-243522500D03*
X337978750Y-240982500D03*
X343018750Y-242062500D03*
D15*
X345598750Y-246062500D03*
D13*
X338018750Y-241562500D03*
D16*
X340518750Y-246062500D03*
%TD*%
D19*
%TO.C,SW91*%
X314443750Y-238562500D03*
D13*
X311943750Y-238562500D03*
X309443750Y-238562500D03*
D20*
X317543750Y-246062500D03*
X306343750Y-246062500D03*
D13*
X314443750Y-253062500D03*
X309443750Y-253062500D03*
%TD*%
D12*
%TO.C,SW90*%
X278148750Y-241862500D03*
D13*
X288368750Y-249862500D03*
X283368750Y-251962500D03*
X278368750Y-249862500D03*
D14*
X288868750Y-246062500D03*
X277868750Y-246062500D03*
D12*
X288588750Y-241862500D03*
D13*
X285908750Y-240982500D03*
X280868750Y-242062500D03*
X285868750Y-241562500D03*
D15*
X278288750Y-246062500D03*
D13*
X279558750Y-243522500D03*
X287178750Y-243522500D03*
X280828750Y-240982500D03*
X285868750Y-242062500D03*
D15*
X288448750Y-246062500D03*
D13*
X280868750Y-241562500D03*
D16*
X283368750Y-246062500D03*
%TD*%
D12*
%TO.C,SW89*%
X249573750Y-241862500D03*
D13*
X259793750Y-249862500D03*
X254793750Y-251962500D03*
X249793750Y-249862500D03*
D14*
X260293750Y-246062500D03*
X249293750Y-246062500D03*
D12*
X260013750Y-241862500D03*
D13*
X257333750Y-240982500D03*
X252293750Y-242062500D03*
X257293750Y-241562500D03*
D15*
X249713750Y-246062500D03*
D13*
X250983750Y-243522500D03*
X258603750Y-243522500D03*
X252253750Y-240982500D03*
X257293750Y-242062500D03*
D15*
X259873750Y-246062500D03*
D13*
X252293750Y-241562500D03*
D16*
X254793750Y-246062500D03*
%TD*%
D12*
%TO.C,SW88*%
X230523750Y-241862500D03*
D13*
X240743750Y-249862500D03*
X235743750Y-251962500D03*
X230743750Y-249862500D03*
D14*
X241243750Y-246062500D03*
X230243750Y-246062500D03*
D12*
X240963750Y-241862500D03*
D13*
X238283750Y-240982500D03*
X233243750Y-242062500D03*
X238243750Y-241562500D03*
D15*
X230663750Y-246062500D03*
D13*
X231933750Y-243522500D03*
X239553750Y-243522500D03*
X233203750Y-240982500D03*
X238243750Y-242062500D03*
D15*
X240823750Y-246062500D03*
D13*
X233243750Y-241562500D03*
D16*
X235743750Y-246062500D03*
%TD*%
D12*
%TO.C,SW87*%
X211473750Y-241862500D03*
D13*
X221693750Y-249862500D03*
X216693750Y-251962500D03*
X211693750Y-249862500D03*
D14*
X222193750Y-246062500D03*
X211193750Y-246062500D03*
D12*
X221913750Y-241862500D03*
D13*
X219233750Y-240982500D03*
X214193750Y-242062500D03*
X219193750Y-241562500D03*
D15*
X211613750Y-246062500D03*
D13*
X212883750Y-243522500D03*
X220503750Y-243522500D03*
X214153750Y-240982500D03*
X219193750Y-242062500D03*
D15*
X221773750Y-246062500D03*
D13*
X214193750Y-241562500D03*
D16*
X216693750Y-246062500D03*
%TD*%
D12*
%TO.C,SW86*%
X544743750Y-231317500D03*
D13*
X536743750Y-241537500D03*
X534643750Y-236537500D03*
X536743750Y-231537500D03*
D14*
X540543750Y-242037500D03*
X540543750Y-231037500D03*
D12*
X544743750Y-241757500D03*
D13*
X545623750Y-239077500D03*
X544543750Y-234037500D03*
X545043750Y-239037500D03*
D15*
X540543750Y-231457500D03*
D13*
X543083750Y-232727500D03*
X543083750Y-240347500D03*
X545623750Y-233997500D03*
X544543750Y-239037500D03*
D15*
X540543750Y-241617500D03*
D13*
X545043750Y-234037500D03*
D16*
X540543750Y-236537500D03*
%TD*%
D12*
%TO.C,SW85*%
X516273750Y-222812500D03*
D13*
X526493750Y-230812500D03*
X521493750Y-232912500D03*
X516493750Y-230812500D03*
D14*
X526993750Y-227012500D03*
X515993750Y-227012500D03*
D12*
X526713750Y-222812500D03*
D13*
X524033750Y-221932500D03*
X518993750Y-223012500D03*
X523993750Y-222512500D03*
D15*
X516413750Y-227012500D03*
D13*
X517683750Y-224472500D03*
X525303750Y-224472500D03*
X518953750Y-221932500D03*
X523993750Y-223012500D03*
D15*
X526573750Y-227012500D03*
D13*
X518993750Y-222512500D03*
D16*
X521493750Y-227012500D03*
%TD*%
D12*
%TO.C,SW84*%
X497223750Y-222812500D03*
D13*
X507443750Y-230812500D03*
X502443750Y-232912500D03*
X497443750Y-230812500D03*
D14*
X507943750Y-227012500D03*
X496943750Y-227012500D03*
D12*
X507663750Y-222812500D03*
D13*
X504983750Y-221932500D03*
X499943750Y-223012500D03*
X504943750Y-222512500D03*
D15*
X497363750Y-227012500D03*
D13*
X498633750Y-224472500D03*
X506253750Y-224472500D03*
X499903750Y-221932500D03*
X504943750Y-223012500D03*
D15*
X507523750Y-227012500D03*
D13*
X499943750Y-222512500D03*
D16*
X502443750Y-227012500D03*
%TD*%
D12*
%TO.C,SW83*%
X478173750Y-222812500D03*
D13*
X488393750Y-230812500D03*
X483393750Y-232912500D03*
X478393750Y-230812500D03*
D14*
X488893750Y-227012500D03*
X477893750Y-227012500D03*
D12*
X488613750Y-222812500D03*
D13*
X485933750Y-221932500D03*
X480893750Y-223012500D03*
X485893750Y-222512500D03*
D15*
X478313750Y-227012500D03*
D13*
X479583750Y-224472500D03*
X487203750Y-224472500D03*
X480853750Y-221932500D03*
X485893750Y-223012500D03*
D15*
X488473750Y-227012500D03*
D13*
X480893750Y-222512500D03*
D16*
X483393750Y-227012500D03*
%TD*%
D12*
%TO.C,SW82*%
X459123750Y-222812500D03*
D13*
X469343750Y-230812500D03*
X464343750Y-232912500D03*
X459343750Y-230812500D03*
D14*
X469843750Y-227012500D03*
X458843750Y-227012500D03*
D12*
X469563750Y-222812500D03*
D13*
X466883750Y-221932500D03*
X461843750Y-223012500D03*
X466843750Y-222512500D03*
D15*
X459263750Y-227012500D03*
D13*
X460533750Y-224472500D03*
X468153750Y-224472500D03*
X461803750Y-221932500D03*
X466843750Y-223012500D03*
D15*
X469423750Y-227012500D03*
D13*
X461843750Y-222512500D03*
D16*
X464343750Y-227012500D03*
%TD*%
D12*
%TO.C,SW81*%
X430548750Y-222812500D03*
D13*
X440768750Y-230812500D03*
X435768750Y-232912500D03*
X430768750Y-230812500D03*
D14*
X441268750Y-227012500D03*
X430268750Y-227012500D03*
D12*
X440988750Y-222812500D03*
D13*
X438308750Y-221932500D03*
X433268750Y-223012500D03*
X438268750Y-222512500D03*
D15*
X430688750Y-227012500D03*
D13*
X431958750Y-224472500D03*
X439578750Y-224472500D03*
X433228750Y-221932500D03*
X438268750Y-223012500D03*
D15*
X440848750Y-227012500D03*
D13*
X433268750Y-222512500D03*
D16*
X435768750Y-227012500D03*
%TD*%
D12*
%TO.C,SW80*%
X401973750Y-222812500D03*
D13*
X412193750Y-230812500D03*
X407193750Y-232912500D03*
X402193750Y-230812500D03*
D14*
X412693750Y-227012500D03*
X401693750Y-227012500D03*
D12*
X412413750Y-222812500D03*
D13*
X409733750Y-221932500D03*
X404693750Y-223012500D03*
X409693750Y-222512500D03*
D15*
X402113750Y-227012500D03*
D13*
X403383750Y-224472500D03*
X411003750Y-224472500D03*
X404653750Y-221932500D03*
X409693750Y-223012500D03*
D15*
X412273750Y-227012500D03*
D13*
X404693750Y-222512500D03*
D16*
X407193750Y-227012500D03*
%TD*%
D12*
%TO.C,SW79*%
X382923750Y-222812500D03*
D13*
X393143750Y-230812500D03*
X388143750Y-232912500D03*
X383143750Y-230812500D03*
D14*
X393643750Y-227012500D03*
X382643750Y-227012500D03*
D12*
X393363750Y-222812500D03*
D13*
X390683750Y-221932500D03*
X385643750Y-223012500D03*
X390643750Y-222512500D03*
D15*
X383063750Y-227012500D03*
D13*
X384333750Y-224472500D03*
X391953750Y-224472500D03*
X385603750Y-221932500D03*
X390643750Y-223012500D03*
D15*
X393223750Y-227012500D03*
D13*
X385643750Y-222512500D03*
D16*
X388143750Y-227012500D03*
%TD*%
D12*
%TO.C,SW78*%
X363873750Y-222812500D03*
D13*
X374093750Y-230812500D03*
X369093750Y-232912500D03*
X364093750Y-230812500D03*
D14*
X374593750Y-227012500D03*
X363593750Y-227012500D03*
D12*
X374313750Y-222812500D03*
D13*
X371633750Y-221932500D03*
X366593750Y-223012500D03*
X371593750Y-222512500D03*
D15*
X364013750Y-227012500D03*
D13*
X365283750Y-224472500D03*
X372903750Y-224472500D03*
X366553750Y-221932500D03*
X371593750Y-223012500D03*
D15*
X374173750Y-227012500D03*
D13*
X366593750Y-222512500D03*
D16*
X369093750Y-227012500D03*
%TD*%
D12*
%TO.C,SW77*%
X344823750Y-222812500D03*
D13*
X355043750Y-230812500D03*
X350043750Y-232912500D03*
X345043750Y-230812500D03*
D14*
X355543750Y-227012500D03*
X344543750Y-227012500D03*
D12*
X355263750Y-222812500D03*
D13*
X352583750Y-221932500D03*
X347543750Y-223012500D03*
X352543750Y-222512500D03*
D15*
X344963750Y-227012500D03*
D13*
X346233750Y-224472500D03*
X353853750Y-224472500D03*
X347503750Y-221932500D03*
X352543750Y-223012500D03*
D15*
X355123750Y-227012500D03*
D13*
X347543750Y-222512500D03*
D16*
X350043750Y-227012500D03*
%TD*%
D12*
%TO.C,SW76*%
X325773750Y-222812500D03*
D13*
X335993750Y-230812500D03*
X330993750Y-232912500D03*
X325993750Y-230812500D03*
D14*
X336493750Y-227012500D03*
X325493750Y-227012500D03*
D12*
X336213750Y-222812500D03*
D13*
X333533750Y-221932500D03*
X328493750Y-223012500D03*
X333493750Y-222512500D03*
D15*
X325913750Y-227012500D03*
D13*
X327183750Y-224472500D03*
X334803750Y-224472500D03*
X328453750Y-221932500D03*
X333493750Y-223012500D03*
D15*
X336073750Y-227012500D03*
D13*
X328493750Y-222512500D03*
D16*
X330993750Y-227012500D03*
%TD*%
D12*
%TO.C,SW75*%
X306723750Y-222812500D03*
D13*
X316943750Y-230812500D03*
X311943750Y-232912500D03*
X306943750Y-230812500D03*
D14*
X317443750Y-227012500D03*
X306443750Y-227012500D03*
D12*
X317163750Y-222812500D03*
D13*
X314483750Y-221932500D03*
X309443750Y-223012500D03*
X314443750Y-222512500D03*
D15*
X306863750Y-227012500D03*
D13*
X308133750Y-224472500D03*
X315753750Y-224472500D03*
X309403750Y-221932500D03*
X314443750Y-223012500D03*
D15*
X317023750Y-227012500D03*
D13*
X309443750Y-222512500D03*
D16*
X311943750Y-227012500D03*
%TD*%
D12*
%TO.C,SW74*%
X287673750Y-222812500D03*
D13*
X297893750Y-230812500D03*
X292893750Y-232912500D03*
X287893750Y-230812500D03*
D14*
X298393750Y-227012500D03*
X287393750Y-227012500D03*
D12*
X298113750Y-222812500D03*
D13*
X295433750Y-221932500D03*
X290393750Y-223012500D03*
X295393750Y-222512500D03*
D15*
X287813750Y-227012500D03*
D13*
X289083750Y-224472500D03*
X296703750Y-224472500D03*
X290353750Y-221932500D03*
X295393750Y-223012500D03*
D15*
X297973750Y-227012500D03*
D13*
X290393750Y-222512500D03*
D16*
X292893750Y-227012500D03*
%TD*%
D12*
%TO.C,SW73*%
X268623750Y-222812500D03*
D13*
X278843750Y-230812500D03*
X273843750Y-232912500D03*
X268843750Y-230812500D03*
D14*
X279343750Y-227012500D03*
X268343750Y-227012500D03*
D12*
X279063750Y-222812500D03*
D13*
X276383750Y-221932500D03*
X271343750Y-223012500D03*
X276343750Y-222512500D03*
D15*
X268763750Y-227012500D03*
D13*
X270033750Y-224472500D03*
X277653750Y-224472500D03*
X271303750Y-221932500D03*
X276343750Y-223012500D03*
D15*
X278923750Y-227012500D03*
D13*
X271343750Y-222512500D03*
D16*
X273843750Y-227012500D03*
%TD*%
D12*
%TO.C,SW72*%
X249573750Y-222812500D03*
D13*
X259793750Y-230812500D03*
X254793750Y-232912500D03*
X249793750Y-230812500D03*
D14*
X260293750Y-227012500D03*
X249293750Y-227012500D03*
D12*
X260013750Y-222812500D03*
D13*
X257333750Y-221932500D03*
X252293750Y-223012500D03*
X257293750Y-222512500D03*
D15*
X249713750Y-227012500D03*
D13*
X250983750Y-224472500D03*
X258603750Y-224472500D03*
X252253750Y-221932500D03*
X257293750Y-223012500D03*
D15*
X259873750Y-227012500D03*
D13*
X252293750Y-222512500D03*
D16*
X254793750Y-227012500D03*
%TD*%
D12*
%TO.C,SW71*%
X230523750Y-222812500D03*
D13*
X240743750Y-230812500D03*
X235743750Y-232912500D03*
X230743750Y-230812500D03*
D14*
X241243750Y-227012500D03*
X230243750Y-227012500D03*
D12*
X240963750Y-222812500D03*
D13*
X238283750Y-221932500D03*
X233243750Y-223012500D03*
X238243750Y-222512500D03*
D15*
X230663750Y-227012500D03*
D13*
X231933750Y-224472500D03*
X239553750Y-224472500D03*
X233203750Y-221932500D03*
X238243750Y-223012500D03*
D15*
X240823750Y-227012500D03*
D13*
X233243750Y-222512500D03*
D16*
X235743750Y-227012500D03*
%TD*%
D12*
%TO.C,SW70*%
X211473750Y-222812500D03*
D13*
X221693750Y-230812500D03*
X216693750Y-232912500D03*
X211693750Y-230812500D03*
D14*
X222193750Y-227012500D03*
X211193750Y-227012500D03*
D12*
X221913750Y-222812500D03*
D13*
X219233750Y-221932500D03*
X214193750Y-223012500D03*
X219193750Y-222512500D03*
D15*
X211613750Y-227012500D03*
D13*
X212883750Y-224472500D03*
X220503750Y-224472500D03*
X214153750Y-221932500D03*
X219193750Y-223012500D03*
D15*
X221773750Y-227012500D03*
D13*
X214193750Y-222512500D03*
D16*
X216693750Y-227012500D03*
%TD*%
D12*
%TO.C,SW68*%
X497223750Y-203762500D03*
D13*
X507443750Y-211762500D03*
X502443750Y-213862500D03*
X497443750Y-211762500D03*
D14*
X507943750Y-207962500D03*
X496943750Y-207962500D03*
D12*
X507663750Y-203762500D03*
D13*
X504983750Y-202882500D03*
X499943750Y-203962500D03*
X504943750Y-203462500D03*
D15*
X497363750Y-207962500D03*
D13*
X498633750Y-205422500D03*
X506253750Y-205422500D03*
X499903750Y-202882500D03*
X504943750Y-203962500D03*
D15*
X507523750Y-207962500D03*
D13*
X499943750Y-203462500D03*
D16*
X502443750Y-207962500D03*
%TD*%
D12*
%TO.C,SW67*%
X478173750Y-203762500D03*
D13*
X488393750Y-211762500D03*
X483393750Y-213862500D03*
X478393750Y-211762500D03*
D14*
X488893750Y-207962500D03*
X477893750Y-207962500D03*
D12*
X488613750Y-203762500D03*
D13*
X485933750Y-202882500D03*
X480893750Y-203962500D03*
X485893750Y-203462500D03*
D15*
X478313750Y-207962500D03*
D13*
X479583750Y-205422500D03*
X487203750Y-205422500D03*
X480853750Y-202882500D03*
X485893750Y-203962500D03*
D15*
X488473750Y-207962500D03*
D13*
X480893750Y-203462500D03*
D16*
X483393750Y-207962500D03*
%TD*%
D12*
%TO.C,SW66*%
X450392500Y-203762500D03*
D13*
X460612500Y-211762500D03*
X455612500Y-213862500D03*
X450612500Y-211762500D03*
D14*
X461112500Y-207962500D03*
X450112500Y-207962500D03*
D12*
X460832500Y-203762500D03*
D13*
X458152500Y-202882500D03*
X453112500Y-203962500D03*
X458112500Y-203462500D03*
D15*
X450532500Y-207962500D03*
D13*
X451802500Y-205422500D03*
X459422500Y-205422500D03*
X453072500Y-202882500D03*
X458112500Y-203962500D03*
D15*
X460692500Y-207962500D03*
D13*
X453112500Y-203462500D03*
D16*
X455612500Y-207962500D03*
%TD*%
D12*
%TO.C,SW65*%
X421023750Y-203762500D03*
D13*
X431243750Y-211762500D03*
X426243750Y-213862500D03*
X421243750Y-211762500D03*
D14*
X431743750Y-207962500D03*
X420743750Y-207962500D03*
D12*
X431463750Y-203762500D03*
D13*
X428783750Y-202882500D03*
X423743750Y-203962500D03*
X428743750Y-203462500D03*
D15*
X421163750Y-207962500D03*
D13*
X422433750Y-205422500D03*
X430053750Y-205422500D03*
X423703750Y-202882500D03*
X428743750Y-203962500D03*
D15*
X431323750Y-207962500D03*
D13*
X423743750Y-203462500D03*
D16*
X426243750Y-207962500D03*
%TD*%
D12*
%TO.C,SW64*%
X401973750Y-203762500D03*
D13*
X412193750Y-211762500D03*
X407193750Y-213862500D03*
X402193750Y-211762500D03*
D14*
X412693750Y-207962500D03*
X401693750Y-207962500D03*
D12*
X412413750Y-203762500D03*
D13*
X409733750Y-202882500D03*
X404693750Y-203962500D03*
X409693750Y-203462500D03*
D15*
X402113750Y-207962500D03*
D13*
X403383750Y-205422500D03*
X411003750Y-205422500D03*
X404653750Y-202882500D03*
X409693750Y-203962500D03*
D15*
X412273750Y-207962500D03*
D13*
X404693750Y-203462500D03*
D16*
X407193750Y-207962500D03*
%TD*%
D12*
%TO.C,SW63*%
X382923750Y-203762500D03*
D13*
X393143750Y-211762500D03*
X388143750Y-213862500D03*
X383143750Y-211762500D03*
D14*
X393643750Y-207962500D03*
X382643750Y-207962500D03*
D12*
X393363750Y-203762500D03*
D13*
X390683750Y-202882500D03*
X385643750Y-203962500D03*
X390643750Y-203462500D03*
D15*
X383063750Y-207962500D03*
D13*
X384333750Y-205422500D03*
X391953750Y-205422500D03*
X385603750Y-202882500D03*
X390643750Y-203962500D03*
D15*
X393223750Y-207962500D03*
D13*
X385643750Y-203462500D03*
D16*
X388143750Y-207962500D03*
%TD*%
D12*
%TO.C,SW62*%
X363873750Y-203762500D03*
D13*
X374093750Y-211762500D03*
X369093750Y-213862500D03*
X364093750Y-211762500D03*
D14*
X374593750Y-207962500D03*
X363593750Y-207962500D03*
D12*
X374313750Y-203762500D03*
D13*
X371633750Y-202882500D03*
X366593750Y-203962500D03*
X371593750Y-203462500D03*
D15*
X364013750Y-207962500D03*
D13*
X365283750Y-205422500D03*
X372903750Y-205422500D03*
X366553750Y-202882500D03*
X371593750Y-203962500D03*
D15*
X374173750Y-207962500D03*
D13*
X366593750Y-203462500D03*
D16*
X369093750Y-207962500D03*
%TD*%
D12*
%TO.C,SW61*%
X344823750Y-203762500D03*
D13*
X355043750Y-211762500D03*
X350043750Y-213862500D03*
X345043750Y-211762500D03*
D14*
X355543750Y-207962500D03*
X344543750Y-207962500D03*
D12*
X355263750Y-203762500D03*
D13*
X352583750Y-202882500D03*
X347543750Y-203962500D03*
X352543750Y-203462500D03*
D15*
X344963750Y-207962500D03*
D13*
X346233750Y-205422500D03*
X353853750Y-205422500D03*
X347503750Y-202882500D03*
X352543750Y-203962500D03*
D15*
X355123750Y-207962500D03*
D13*
X347543750Y-203462500D03*
D16*
X350043750Y-207962500D03*
%TD*%
D12*
%TO.C,SW60*%
X325773750Y-203762500D03*
D13*
X335993750Y-211762500D03*
X330993750Y-213862500D03*
X325993750Y-211762500D03*
D14*
X336493750Y-207962500D03*
X325493750Y-207962500D03*
D12*
X336213750Y-203762500D03*
D13*
X333533750Y-202882500D03*
X328493750Y-203962500D03*
X333493750Y-203462500D03*
D15*
X325913750Y-207962500D03*
D13*
X327183750Y-205422500D03*
X334803750Y-205422500D03*
X328453750Y-202882500D03*
X333493750Y-203962500D03*
D15*
X336073750Y-207962500D03*
D13*
X328493750Y-203462500D03*
D16*
X330993750Y-207962500D03*
%TD*%
D12*
%TO.C,SW59*%
X306723750Y-203762500D03*
D13*
X316943750Y-211762500D03*
X311943750Y-213862500D03*
X306943750Y-211762500D03*
D14*
X317443750Y-207962500D03*
X306443750Y-207962500D03*
D12*
X317163750Y-203762500D03*
D13*
X314483750Y-202882500D03*
X309443750Y-203962500D03*
X314443750Y-203462500D03*
D15*
X306863750Y-207962500D03*
D13*
X308133750Y-205422500D03*
X315753750Y-205422500D03*
X309403750Y-202882500D03*
X314443750Y-203962500D03*
D15*
X317023750Y-207962500D03*
D13*
X309443750Y-203462500D03*
D16*
X311943750Y-207962500D03*
%TD*%
D12*
%TO.C,SW58*%
X287673750Y-203762500D03*
D13*
X297893750Y-211762500D03*
X292893750Y-213862500D03*
X287893750Y-211762500D03*
D14*
X298393750Y-207962500D03*
X287393750Y-207962500D03*
D12*
X298113750Y-203762500D03*
D13*
X295433750Y-202882500D03*
X290393750Y-203962500D03*
X295393750Y-203462500D03*
D15*
X287813750Y-207962500D03*
D13*
X289083750Y-205422500D03*
X296703750Y-205422500D03*
X290353750Y-202882500D03*
X295393750Y-203962500D03*
D15*
X297973750Y-207962500D03*
D13*
X290393750Y-203462500D03*
D16*
X292893750Y-207962500D03*
%TD*%
D12*
%TO.C,SW57*%
X268623750Y-203762500D03*
D13*
X278843750Y-211762500D03*
X273843750Y-213862500D03*
X268843750Y-211762500D03*
D14*
X279343750Y-207962500D03*
X268343750Y-207962500D03*
D12*
X279063750Y-203762500D03*
D13*
X276383750Y-202882500D03*
X271343750Y-203962500D03*
X276343750Y-203462500D03*
D15*
X268763750Y-207962500D03*
D13*
X270033750Y-205422500D03*
X277653750Y-205422500D03*
X271303750Y-202882500D03*
X276343750Y-203962500D03*
D15*
X278923750Y-207962500D03*
D13*
X271343750Y-203462500D03*
D16*
X273843750Y-207962500D03*
%TD*%
D12*
%TO.C,SW56*%
X249573750Y-203762500D03*
D13*
X259793750Y-211762500D03*
X254793750Y-213862500D03*
X249793750Y-211762500D03*
D14*
X260293750Y-207962500D03*
X249293750Y-207962500D03*
D12*
X260013750Y-203762500D03*
D13*
X257333750Y-202882500D03*
X252293750Y-203962500D03*
X257293750Y-203462500D03*
D15*
X249713750Y-207962500D03*
D13*
X250983750Y-205422500D03*
X258603750Y-205422500D03*
X252253750Y-202882500D03*
X257293750Y-203962500D03*
D15*
X259873750Y-207962500D03*
D13*
X252293750Y-203462500D03*
D16*
X254793750Y-207962500D03*
%TD*%
D12*
%TO.C,SW55*%
X230523750Y-203762500D03*
D13*
X240743750Y-211762500D03*
X235743750Y-213862500D03*
X230743750Y-211762500D03*
D14*
X241243750Y-207962500D03*
X230243750Y-207962500D03*
D12*
X240963750Y-203762500D03*
D13*
X238283750Y-202882500D03*
X233243750Y-203962500D03*
X238243750Y-203462500D03*
D15*
X230663750Y-207962500D03*
D13*
X231933750Y-205422500D03*
X239553750Y-205422500D03*
X233203750Y-202882500D03*
X238243750Y-203962500D03*
D15*
X240823750Y-207962500D03*
D13*
X233243750Y-203462500D03*
D16*
X235743750Y-207962500D03*
%TD*%
D12*
%TO.C,SW54*%
X211473750Y-203762500D03*
D13*
X221693750Y-211762500D03*
X216693750Y-213862500D03*
X211693750Y-211762500D03*
D14*
X222193750Y-207962500D03*
X211193750Y-207962500D03*
D12*
X221913750Y-203762500D03*
D13*
X219233750Y-202882500D03*
X214193750Y-203962500D03*
X219193750Y-203462500D03*
D15*
X211613750Y-207962500D03*
D13*
X212883750Y-205422500D03*
X220503750Y-205422500D03*
X214153750Y-202882500D03*
X219193750Y-203962500D03*
D15*
X221773750Y-207962500D03*
D13*
X214193750Y-203462500D03*
D16*
X216693750Y-207962500D03*
%TD*%
D12*
%TO.C,SW53*%
X544743750Y-193217500D03*
D13*
X536743750Y-203437500D03*
X534643750Y-198437500D03*
X536743750Y-193437500D03*
D14*
X540543750Y-203937500D03*
X540543750Y-192937500D03*
D12*
X544743750Y-203657500D03*
D13*
X545623750Y-200977500D03*
X544543750Y-195937500D03*
X545043750Y-200937500D03*
D15*
X540543750Y-193357500D03*
D13*
X543083750Y-194627500D03*
X543083750Y-202247500D03*
X545623750Y-195897500D03*
X544543750Y-200937500D03*
D15*
X540543750Y-203517500D03*
D13*
X545043750Y-195937500D03*
D16*
X540543750Y-198437500D03*
%TD*%
D12*
%TO.C,SW52*%
X516273750Y-184712500D03*
D13*
X526493750Y-192712500D03*
X521493750Y-194812500D03*
X516493750Y-192712500D03*
D14*
X526993750Y-188912500D03*
X515993750Y-188912500D03*
D12*
X526713750Y-184712500D03*
D13*
X524033750Y-183832500D03*
X518993750Y-184912500D03*
X523993750Y-184412500D03*
D15*
X516413750Y-188912500D03*
D13*
X517683750Y-186372500D03*
X525303750Y-186372500D03*
X518953750Y-183832500D03*
X523993750Y-184912500D03*
D15*
X526573750Y-188912500D03*
D13*
X518993750Y-184412500D03*
D16*
X521493750Y-188912500D03*
%TD*%
D12*
%TO.C,SW51*%
X497223750Y-184712500D03*
D13*
X507443750Y-192712500D03*
X502443750Y-194812500D03*
X497443750Y-192712500D03*
D14*
X507943750Y-188912500D03*
X496943750Y-188912500D03*
D12*
X507663750Y-184712500D03*
D13*
X504983750Y-183832500D03*
X499943750Y-184912500D03*
X504943750Y-184412500D03*
D15*
X497363750Y-188912500D03*
D13*
X498633750Y-186372500D03*
X506253750Y-186372500D03*
X499903750Y-183832500D03*
X504943750Y-184912500D03*
D15*
X507523750Y-188912500D03*
D13*
X499943750Y-184412500D03*
D16*
X502443750Y-188912500D03*
%TD*%
D12*
%TO.C,SW50*%
X478173750Y-184712500D03*
D13*
X488393750Y-192712500D03*
X483393750Y-194812500D03*
X478393750Y-192712500D03*
D14*
X488893750Y-188912500D03*
X477893750Y-188912500D03*
D12*
X488613750Y-184712500D03*
D13*
X485933750Y-183832500D03*
X480893750Y-184912500D03*
X485893750Y-184412500D03*
D15*
X478313750Y-188912500D03*
D13*
X479583750Y-186372500D03*
X487203750Y-186372500D03*
X480853750Y-183832500D03*
X485893750Y-184912500D03*
D15*
X488473750Y-188912500D03*
D13*
X480893750Y-184412500D03*
D16*
X483393750Y-188912500D03*
%TD*%
D12*
%TO.C,SW49*%
X459123750Y-184712500D03*
D13*
X469343750Y-192712500D03*
X464343750Y-194812500D03*
X459343750Y-192712500D03*
D14*
X469843750Y-188912500D03*
X458843750Y-188912500D03*
D12*
X469563750Y-184712500D03*
D13*
X466883750Y-183832500D03*
X461843750Y-184912500D03*
X466843750Y-184412500D03*
D15*
X459263750Y-188912500D03*
D13*
X460533750Y-186372500D03*
X468153750Y-186372500D03*
X461803750Y-183832500D03*
X466843750Y-184912500D03*
D15*
X469423750Y-188912500D03*
D13*
X461843750Y-184412500D03*
D16*
X464343750Y-188912500D03*
%TD*%
D12*
%TO.C,SW48*%
X440073750Y-184712500D03*
D13*
X450293750Y-192712500D03*
X445293750Y-194812500D03*
X440293750Y-192712500D03*
D14*
X450793750Y-188912500D03*
X439793750Y-188912500D03*
D12*
X450513750Y-184712500D03*
D13*
X447833750Y-183832500D03*
X442793750Y-184912500D03*
X447793750Y-184412500D03*
D15*
X440213750Y-188912500D03*
D13*
X441483750Y-186372500D03*
X449103750Y-186372500D03*
X442753750Y-183832500D03*
X447793750Y-184912500D03*
D15*
X450373750Y-188912500D03*
D13*
X442793750Y-184412500D03*
D16*
X445293750Y-188912500D03*
%TD*%
D12*
%TO.C,SW47*%
X421023750Y-184712500D03*
D13*
X431243750Y-192712500D03*
X426243750Y-194812500D03*
X421243750Y-192712500D03*
D14*
X431743750Y-188912500D03*
X420743750Y-188912500D03*
D12*
X431463750Y-184712500D03*
D13*
X428783750Y-183832500D03*
X423743750Y-184912500D03*
X428743750Y-184412500D03*
D15*
X421163750Y-188912500D03*
D13*
X422433750Y-186372500D03*
X430053750Y-186372500D03*
X423703750Y-183832500D03*
X428743750Y-184912500D03*
D15*
X431323750Y-188912500D03*
D13*
X423743750Y-184412500D03*
D16*
X426243750Y-188912500D03*
%TD*%
D12*
%TO.C,SW46*%
X401973750Y-184712500D03*
D13*
X412193750Y-192712500D03*
X407193750Y-194812500D03*
X402193750Y-192712500D03*
D14*
X412693750Y-188912500D03*
X401693750Y-188912500D03*
D12*
X412413750Y-184712500D03*
D13*
X409733750Y-183832500D03*
X404693750Y-184912500D03*
X409693750Y-184412500D03*
D15*
X402113750Y-188912500D03*
D13*
X403383750Y-186372500D03*
X411003750Y-186372500D03*
X404653750Y-183832500D03*
X409693750Y-184912500D03*
D15*
X412273750Y-188912500D03*
D13*
X404693750Y-184412500D03*
D16*
X407193750Y-188912500D03*
%TD*%
D12*
%TO.C,SW45*%
X382923750Y-184712500D03*
D13*
X393143750Y-192712500D03*
X388143750Y-194812500D03*
X383143750Y-192712500D03*
D14*
X393643750Y-188912500D03*
X382643750Y-188912500D03*
D12*
X393363750Y-184712500D03*
D13*
X390683750Y-183832500D03*
X385643750Y-184912500D03*
X390643750Y-184412500D03*
D15*
X383063750Y-188912500D03*
D13*
X384333750Y-186372500D03*
X391953750Y-186372500D03*
X385603750Y-183832500D03*
X390643750Y-184912500D03*
D15*
X393223750Y-188912500D03*
D13*
X385643750Y-184412500D03*
D16*
X388143750Y-188912500D03*
%TD*%
D12*
%TO.C,SW44*%
X363873750Y-184712500D03*
D13*
X374093750Y-192712500D03*
X369093750Y-194812500D03*
X364093750Y-192712500D03*
D14*
X374593750Y-188912500D03*
X363593750Y-188912500D03*
D12*
X374313750Y-184712500D03*
D13*
X371633750Y-183832500D03*
X366593750Y-184912500D03*
X371593750Y-184412500D03*
D15*
X364013750Y-188912500D03*
D13*
X365283750Y-186372500D03*
X372903750Y-186372500D03*
X366553750Y-183832500D03*
X371593750Y-184912500D03*
D15*
X374173750Y-188912500D03*
D13*
X366593750Y-184412500D03*
D16*
X369093750Y-188912500D03*
%TD*%
D12*
%TO.C,SW43*%
X344823750Y-184712500D03*
D13*
X355043750Y-192712500D03*
X350043750Y-194812500D03*
X345043750Y-192712500D03*
D14*
X355543750Y-188912500D03*
X344543750Y-188912500D03*
D12*
X355263750Y-184712500D03*
D13*
X352583750Y-183832500D03*
X347543750Y-184912500D03*
X352543750Y-184412500D03*
D15*
X344963750Y-188912500D03*
D13*
X346233750Y-186372500D03*
X353853750Y-186372500D03*
X347503750Y-183832500D03*
X352543750Y-184912500D03*
D15*
X355123750Y-188912500D03*
D13*
X347543750Y-184412500D03*
D16*
X350043750Y-188912500D03*
%TD*%
D12*
%TO.C,SW42*%
X325773750Y-184712500D03*
D13*
X335993750Y-192712500D03*
X330993750Y-194812500D03*
X325993750Y-192712500D03*
D14*
X336493750Y-188912500D03*
X325493750Y-188912500D03*
D12*
X336213750Y-184712500D03*
D13*
X333533750Y-183832500D03*
X328493750Y-184912500D03*
X333493750Y-184412500D03*
D15*
X325913750Y-188912500D03*
D13*
X327183750Y-186372500D03*
X334803750Y-186372500D03*
X328453750Y-183832500D03*
X333493750Y-184912500D03*
D15*
X336073750Y-188912500D03*
D13*
X328493750Y-184412500D03*
D16*
X330993750Y-188912500D03*
%TD*%
D12*
%TO.C,SW41*%
X306723750Y-184712500D03*
D13*
X316943750Y-192712500D03*
X311943750Y-194812500D03*
X306943750Y-192712500D03*
D14*
X317443750Y-188912500D03*
X306443750Y-188912500D03*
D12*
X317163750Y-184712500D03*
D13*
X314483750Y-183832500D03*
X309443750Y-184912500D03*
X314443750Y-184412500D03*
D15*
X306863750Y-188912500D03*
D13*
X308133750Y-186372500D03*
X315753750Y-186372500D03*
X309403750Y-183832500D03*
X314443750Y-184912500D03*
D15*
X317023750Y-188912500D03*
D13*
X309443750Y-184412500D03*
D16*
X311943750Y-188912500D03*
%TD*%
D12*
%TO.C,SW40*%
X287673750Y-184712500D03*
D13*
X297893750Y-192712500D03*
X292893750Y-194812500D03*
X287893750Y-192712500D03*
D14*
X298393750Y-188912500D03*
X287393750Y-188912500D03*
D12*
X298113750Y-184712500D03*
D13*
X295433750Y-183832500D03*
X290393750Y-184912500D03*
X295393750Y-184412500D03*
D15*
X287813750Y-188912500D03*
D13*
X289083750Y-186372500D03*
X296703750Y-186372500D03*
X290353750Y-183832500D03*
X295393750Y-184912500D03*
D15*
X297973750Y-188912500D03*
D13*
X290393750Y-184412500D03*
D16*
X292893750Y-188912500D03*
%TD*%
D12*
%TO.C,SW39*%
X268623750Y-184712500D03*
D13*
X278843750Y-192712500D03*
X273843750Y-194812500D03*
X268843750Y-192712500D03*
D14*
X279343750Y-188912500D03*
X268343750Y-188912500D03*
D12*
X279063750Y-184712500D03*
D13*
X276383750Y-183832500D03*
X271343750Y-184912500D03*
X276343750Y-184412500D03*
D15*
X268763750Y-188912500D03*
D13*
X270033750Y-186372500D03*
X277653750Y-186372500D03*
X271303750Y-183832500D03*
X276343750Y-184912500D03*
D15*
X278923750Y-188912500D03*
D13*
X271343750Y-184412500D03*
D16*
X273843750Y-188912500D03*
%TD*%
D12*
%TO.C,SW38*%
X249573750Y-184712500D03*
D13*
X259793750Y-192712500D03*
X254793750Y-194812500D03*
X249793750Y-192712500D03*
D14*
X260293750Y-188912500D03*
X249293750Y-188912500D03*
D12*
X260013750Y-184712500D03*
D13*
X257333750Y-183832500D03*
X252293750Y-184912500D03*
X257293750Y-184412500D03*
D15*
X249713750Y-188912500D03*
D13*
X250983750Y-186372500D03*
X258603750Y-186372500D03*
X252253750Y-183832500D03*
X257293750Y-184912500D03*
D15*
X259873750Y-188912500D03*
D13*
X252293750Y-184412500D03*
D16*
X254793750Y-188912500D03*
%TD*%
D12*
%TO.C,SW37*%
X230523750Y-184712500D03*
D13*
X240743750Y-192712500D03*
X235743750Y-194812500D03*
X230743750Y-192712500D03*
D14*
X241243750Y-188912500D03*
X230243750Y-188912500D03*
D12*
X240963750Y-184712500D03*
D13*
X238283750Y-183832500D03*
X233243750Y-184912500D03*
X238243750Y-184412500D03*
D15*
X230663750Y-188912500D03*
D13*
X231933750Y-186372500D03*
X239553750Y-186372500D03*
X233203750Y-183832500D03*
X238243750Y-184912500D03*
D15*
X240823750Y-188912500D03*
D13*
X233243750Y-184412500D03*
D16*
X235743750Y-188912500D03*
%TD*%
D12*
%TO.C,SW36*%
X211473750Y-184712500D03*
D13*
X221693750Y-192712500D03*
X216693750Y-194812500D03*
X211693750Y-192712500D03*
D14*
X222193750Y-188912500D03*
X211193750Y-188912500D03*
D12*
X221913750Y-184712500D03*
D13*
X219233750Y-183832500D03*
X214193750Y-184912500D03*
X219193750Y-184412500D03*
D15*
X211613750Y-188912500D03*
D13*
X212883750Y-186372500D03*
X220503750Y-186372500D03*
X214153750Y-183832500D03*
X219193750Y-184912500D03*
D15*
X221773750Y-188912500D03*
D13*
X214193750Y-184412500D03*
D16*
X216693750Y-188912500D03*
%TD*%
D12*
%TO.C,SW35*%
X535323750Y-165662500D03*
D13*
X545543750Y-173662500D03*
X540543750Y-175762500D03*
X535543750Y-173662500D03*
D14*
X546043750Y-169862500D03*
X535043750Y-169862500D03*
D12*
X545763750Y-165662500D03*
D13*
X543083750Y-164782500D03*
X538043750Y-165862500D03*
X543043750Y-165362500D03*
D15*
X535463750Y-169862500D03*
D13*
X536733750Y-167322500D03*
X544353750Y-167322500D03*
X538003750Y-164782500D03*
X543043750Y-165862500D03*
D15*
X545623750Y-169862500D03*
D13*
X538043750Y-165362500D03*
D16*
X540543750Y-169862500D03*
%TD*%
D12*
%TO.C,SW34*%
X516273750Y-165662500D03*
D13*
X526493750Y-173662500D03*
X521493750Y-175762500D03*
X516493750Y-173662500D03*
D14*
X526993750Y-169862500D03*
X515993750Y-169862500D03*
D12*
X526713750Y-165662500D03*
D13*
X524033750Y-164782500D03*
X518993750Y-165862500D03*
X523993750Y-165362500D03*
D15*
X516413750Y-169862500D03*
D13*
X517683750Y-167322500D03*
X525303750Y-167322500D03*
X518953750Y-164782500D03*
X523993750Y-165862500D03*
D15*
X526573750Y-169862500D03*
D13*
X518993750Y-165362500D03*
D16*
X521493750Y-169862500D03*
%TD*%
D12*
%TO.C,SW33*%
X497223750Y-165662500D03*
D13*
X507443750Y-173662500D03*
X502443750Y-175762500D03*
X497443750Y-173662500D03*
D14*
X507943750Y-169862500D03*
X496943750Y-169862500D03*
D12*
X507663750Y-165662500D03*
D13*
X504983750Y-164782500D03*
X499943750Y-165862500D03*
X504943750Y-165362500D03*
D15*
X497363750Y-169862500D03*
D13*
X498633750Y-167322500D03*
X506253750Y-167322500D03*
X499903750Y-164782500D03*
X504943750Y-165862500D03*
D15*
X507523750Y-169862500D03*
D13*
X499943750Y-165362500D03*
D16*
X502443750Y-169862500D03*
%TD*%
D12*
%TO.C,SW32*%
X478173750Y-165662500D03*
D13*
X488393750Y-173662500D03*
X483393750Y-175762500D03*
X478393750Y-173662500D03*
D14*
X488893750Y-169862500D03*
X477893750Y-169862500D03*
D12*
X488613750Y-165662500D03*
D13*
X485933750Y-164782500D03*
X480893750Y-165862500D03*
X485893750Y-165362500D03*
D15*
X478313750Y-169862500D03*
D13*
X479583750Y-167322500D03*
X487203750Y-167322500D03*
X480853750Y-164782500D03*
X485893750Y-165862500D03*
D15*
X488473750Y-169862500D03*
D13*
X480893750Y-165362500D03*
D16*
X483393750Y-169862500D03*
%TD*%
D12*
%TO.C,SW31*%
X459123750Y-165662500D03*
D13*
X469343750Y-173662500D03*
X464343750Y-175762500D03*
X459343750Y-173662500D03*
D14*
X469843750Y-169862500D03*
X458843750Y-169862500D03*
D12*
X469563750Y-165662500D03*
D13*
X466883750Y-164782500D03*
X461843750Y-165862500D03*
X466843750Y-165362500D03*
D15*
X459263750Y-169862500D03*
D13*
X460533750Y-167322500D03*
X468153750Y-167322500D03*
X461803750Y-164782500D03*
X466843750Y-165862500D03*
D15*
X469423750Y-169862500D03*
D13*
X461843750Y-165362500D03*
D16*
X464343750Y-169862500D03*
%TD*%
D12*
%TO.C,SW30*%
X440073750Y-165662500D03*
D13*
X450293750Y-173662500D03*
X445293750Y-175762500D03*
X440293750Y-173662500D03*
D14*
X450793750Y-169862500D03*
X439793750Y-169862500D03*
D12*
X450513750Y-165662500D03*
D13*
X447833750Y-164782500D03*
X442793750Y-165862500D03*
X447793750Y-165362500D03*
D15*
X440213750Y-169862500D03*
D13*
X441483750Y-167322500D03*
X449103750Y-167322500D03*
X442753750Y-164782500D03*
X447793750Y-165862500D03*
D15*
X450373750Y-169862500D03*
D13*
X442793750Y-165362500D03*
D16*
X445293750Y-169862500D03*
%TD*%
D12*
%TO.C,SW29*%
X421023750Y-165662500D03*
D13*
X431243750Y-173662500D03*
X426243750Y-175762500D03*
X421243750Y-173662500D03*
D14*
X431743750Y-169862500D03*
X420743750Y-169862500D03*
D12*
X431463750Y-165662500D03*
D13*
X428783750Y-164782500D03*
X423743750Y-165862500D03*
X428743750Y-165362500D03*
D15*
X421163750Y-169862500D03*
D13*
X422433750Y-167322500D03*
X430053750Y-167322500D03*
X423703750Y-164782500D03*
X428743750Y-165862500D03*
D15*
X431323750Y-169862500D03*
D13*
X423743750Y-165362500D03*
D16*
X426243750Y-169862500D03*
%TD*%
D12*
%TO.C,SW28*%
X401973750Y-165662500D03*
D13*
X412193750Y-173662500D03*
X407193750Y-175762500D03*
X402193750Y-173662500D03*
D14*
X412693750Y-169862500D03*
X401693750Y-169862500D03*
D12*
X412413750Y-165662500D03*
D13*
X409733750Y-164782500D03*
X404693750Y-165862500D03*
X409693750Y-165362500D03*
D15*
X402113750Y-169862500D03*
D13*
X403383750Y-167322500D03*
X411003750Y-167322500D03*
X404653750Y-164782500D03*
X409693750Y-165862500D03*
D15*
X412273750Y-169862500D03*
D13*
X404693750Y-165362500D03*
D16*
X407193750Y-169862500D03*
%TD*%
D12*
%TO.C,SW27*%
X382923750Y-165662500D03*
D13*
X393143750Y-173662500D03*
X388143750Y-175762500D03*
X383143750Y-173662500D03*
D14*
X393643750Y-169862500D03*
X382643750Y-169862500D03*
D12*
X393363750Y-165662500D03*
D13*
X390683750Y-164782500D03*
X385643750Y-165862500D03*
X390643750Y-165362500D03*
D15*
X383063750Y-169862500D03*
D13*
X384333750Y-167322500D03*
X391953750Y-167322500D03*
X385603750Y-164782500D03*
X390643750Y-165862500D03*
D15*
X393223750Y-169862500D03*
D13*
X385643750Y-165362500D03*
D16*
X388143750Y-169862500D03*
%TD*%
D12*
%TO.C,SW26*%
X363873750Y-165662500D03*
D13*
X374093750Y-173662500D03*
X369093750Y-175762500D03*
X364093750Y-173662500D03*
D14*
X374593750Y-169862500D03*
X363593750Y-169862500D03*
D12*
X374313750Y-165662500D03*
D13*
X371633750Y-164782500D03*
X366593750Y-165862500D03*
X371593750Y-165362500D03*
D15*
X364013750Y-169862500D03*
D13*
X365283750Y-167322500D03*
X372903750Y-167322500D03*
X366553750Y-164782500D03*
X371593750Y-165862500D03*
D15*
X374173750Y-169862500D03*
D13*
X366593750Y-165362500D03*
D16*
X369093750Y-169862500D03*
%TD*%
D12*
%TO.C,SW25*%
X344823750Y-165662500D03*
D13*
X355043750Y-173662500D03*
X350043750Y-175762500D03*
X345043750Y-173662500D03*
D14*
X355543750Y-169862500D03*
X344543750Y-169862500D03*
D12*
X355263750Y-165662500D03*
D13*
X352583750Y-164782500D03*
X347543750Y-165862500D03*
X352543750Y-165362500D03*
D15*
X344963750Y-169862500D03*
D13*
X346233750Y-167322500D03*
X353853750Y-167322500D03*
X347503750Y-164782500D03*
X352543750Y-165862500D03*
D15*
X355123750Y-169862500D03*
D13*
X347543750Y-165362500D03*
D16*
X350043750Y-169862500D03*
%TD*%
D12*
%TO.C,SW24*%
X325773750Y-165662500D03*
D13*
X335993750Y-173662500D03*
X330993750Y-175762500D03*
X325993750Y-173662500D03*
D14*
X336493750Y-169862500D03*
X325493750Y-169862500D03*
D12*
X336213750Y-165662500D03*
D13*
X333533750Y-164782500D03*
X328493750Y-165862500D03*
X333493750Y-165362500D03*
D15*
X325913750Y-169862500D03*
D13*
X327183750Y-167322500D03*
X334803750Y-167322500D03*
X328453750Y-164782500D03*
X333493750Y-165862500D03*
D15*
X336073750Y-169862500D03*
D13*
X328493750Y-165362500D03*
D16*
X330993750Y-169862500D03*
%TD*%
D12*
%TO.C,SW23*%
X306723750Y-165662500D03*
D13*
X316943750Y-173662500D03*
X311943750Y-175762500D03*
X306943750Y-173662500D03*
D14*
X317443750Y-169862500D03*
X306443750Y-169862500D03*
D12*
X317163750Y-165662500D03*
D13*
X314483750Y-164782500D03*
X309443750Y-165862500D03*
X314443750Y-165362500D03*
D15*
X306863750Y-169862500D03*
D13*
X308133750Y-167322500D03*
X315753750Y-167322500D03*
X309403750Y-164782500D03*
X314443750Y-165862500D03*
D15*
X317023750Y-169862500D03*
D13*
X309443750Y-165362500D03*
D16*
X311943750Y-169862500D03*
%TD*%
D12*
%TO.C,SW22*%
X287673750Y-165662500D03*
D13*
X297893750Y-173662500D03*
X292893750Y-175762500D03*
X287893750Y-173662500D03*
D14*
X298393750Y-169862500D03*
X287393750Y-169862500D03*
D12*
X298113750Y-165662500D03*
D13*
X295433750Y-164782500D03*
X290393750Y-165862500D03*
X295393750Y-165362500D03*
D15*
X287813750Y-169862500D03*
D13*
X289083750Y-167322500D03*
X296703750Y-167322500D03*
X290353750Y-164782500D03*
X295393750Y-165862500D03*
D15*
X297973750Y-169862500D03*
D13*
X290393750Y-165362500D03*
D16*
X292893750Y-169862500D03*
%TD*%
D12*
%TO.C,SW21*%
X268623750Y-165662500D03*
D13*
X278843750Y-173662500D03*
X273843750Y-175762500D03*
X268843750Y-173662500D03*
D14*
X279343750Y-169862500D03*
X268343750Y-169862500D03*
D12*
X279063750Y-165662500D03*
D13*
X276383750Y-164782500D03*
X271343750Y-165862500D03*
X276343750Y-165362500D03*
D15*
X268763750Y-169862500D03*
D13*
X270033750Y-167322500D03*
X277653750Y-167322500D03*
X271303750Y-164782500D03*
X276343750Y-165862500D03*
D15*
X278923750Y-169862500D03*
D13*
X271343750Y-165362500D03*
D16*
X273843750Y-169862500D03*
%TD*%
D12*
%TO.C,SW20*%
X249573750Y-165662500D03*
D13*
X259793750Y-173662500D03*
X254793750Y-175762500D03*
X249793750Y-173662500D03*
D14*
X260293750Y-169862500D03*
X249293750Y-169862500D03*
D12*
X260013750Y-165662500D03*
D13*
X257333750Y-164782500D03*
X252293750Y-165862500D03*
X257293750Y-165362500D03*
D15*
X249713750Y-169862500D03*
D13*
X250983750Y-167322500D03*
X258603750Y-167322500D03*
X252253750Y-164782500D03*
X257293750Y-165862500D03*
D15*
X259873750Y-169862500D03*
D13*
X252293750Y-165362500D03*
D16*
X254793750Y-169862500D03*
%TD*%
D12*
%TO.C,SW19*%
X230523750Y-165662500D03*
D13*
X240743750Y-173662500D03*
X235743750Y-175762500D03*
X230743750Y-173662500D03*
D14*
X241243750Y-169862500D03*
X230243750Y-169862500D03*
D12*
X240963750Y-165662500D03*
D13*
X238283750Y-164782500D03*
X233243750Y-165862500D03*
X238243750Y-165362500D03*
D15*
X230663750Y-169862500D03*
D13*
X231933750Y-167322500D03*
X239553750Y-167322500D03*
X233203750Y-164782500D03*
X238243750Y-165862500D03*
D15*
X240823750Y-169862500D03*
D13*
X233243750Y-165362500D03*
D16*
X235743750Y-169862500D03*
%TD*%
D12*
%TO.C,SW18*%
X211473750Y-165662500D03*
D13*
X221693750Y-173662500D03*
X216693750Y-175762500D03*
X211693750Y-173662500D03*
D14*
X222193750Y-169862500D03*
X211193750Y-169862500D03*
D12*
X221913750Y-165662500D03*
D13*
X219233750Y-164782500D03*
X214193750Y-165862500D03*
X219193750Y-165362500D03*
D15*
X211613750Y-169862500D03*
D13*
X212883750Y-167322500D03*
X220503750Y-167322500D03*
X214153750Y-164782500D03*
X219193750Y-165862500D03*
D15*
X221773750Y-169862500D03*
D13*
X214193750Y-165362500D03*
D16*
X216693750Y-169862500D03*
%TD*%
D12*
%TO.C,SW16*%
X516273750Y-146612500D03*
D13*
X526493750Y-154612500D03*
X521493750Y-156712500D03*
X516493750Y-154612500D03*
D14*
X526993750Y-150812500D03*
X515993750Y-150812500D03*
D12*
X526713750Y-146612500D03*
D13*
X524033750Y-145732500D03*
X518993750Y-146812500D03*
X523993750Y-146312500D03*
D15*
X516413750Y-150812500D03*
D13*
X517683750Y-148272500D03*
X525303750Y-148272500D03*
X518953750Y-145732500D03*
X523993750Y-146812500D03*
D15*
X526573750Y-150812500D03*
D13*
X518993750Y-146312500D03*
D16*
X521493750Y-150812500D03*
%TD*%
D12*
%TO.C,SW15*%
X497223750Y-146612500D03*
D13*
X507443750Y-154612500D03*
X502443750Y-156712500D03*
X497443750Y-154612500D03*
D14*
X507943750Y-150812500D03*
X496943750Y-150812500D03*
D12*
X507663750Y-146612500D03*
D13*
X504983750Y-145732500D03*
X499943750Y-146812500D03*
X504943750Y-146312500D03*
D15*
X497363750Y-150812500D03*
D13*
X498633750Y-148272500D03*
X506253750Y-148272500D03*
X499903750Y-145732500D03*
X504943750Y-146812500D03*
D15*
X507523750Y-150812500D03*
D13*
X499943750Y-146312500D03*
D16*
X502443750Y-150812500D03*
%TD*%
D12*
%TO.C,SW14*%
X478173750Y-146612500D03*
D13*
X488393750Y-154612500D03*
X483393750Y-156712500D03*
X478393750Y-154612500D03*
D14*
X488893750Y-150812500D03*
X477893750Y-150812500D03*
D12*
X488613750Y-146612500D03*
D13*
X485933750Y-145732500D03*
X480893750Y-146812500D03*
X485893750Y-146312500D03*
D15*
X478313750Y-150812500D03*
D13*
X479583750Y-148272500D03*
X487203750Y-148272500D03*
X480853750Y-145732500D03*
X485893750Y-146812500D03*
D15*
X488473750Y-150812500D03*
D13*
X480893750Y-146312500D03*
D16*
X483393750Y-150812500D03*
%TD*%
D12*
%TO.C,SW13*%
X440073750Y-146612500D03*
D13*
X450293750Y-154612500D03*
X445293750Y-156712500D03*
X440293750Y-154612500D03*
D14*
X450793750Y-150812500D03*
X439793750Y-150812500D03*
D12*
X450513750Y-146612500D03*
D13*
X447833750Y-145732500D03*
X442793750Y-146812500D03*
X447793750Y-146312500D03*
D15*
X440213750Y-150812500D03*
D13*
X441483750Y-148272500D03*
X449103750Y-148272500D03*
X442753750Y-145732500D03*
X447793750Y-146812500D03*
D15*
X450373750Y-150812500D03*
D13*
X442793750Y-146312500D03*
D16*
X445293750Y-150812500D03*
%TD*%
D12*
%TO.C,SW12*%
X421023750Y-146612500D03*
D13*
X431243750Y-154612500D03*
X426243750Y-156712500D03*
X421243750Y-154612500D03*
D14*
X431743750Y-150812500D03*
X420743750Y-150812500D03*
D12*
X431463750Y-146612500D03*
D13*
X428783750Y-145732500D03*
X423743750Y-146812500D03*
X428743750Y-146312500D03*
D15*
X421163750Y-150812500D03*
D13*
X422433750Y-148272500D03*
X430053750Y-148272500D03*
X423703750Y-145732500D03*
X428743750Y-146812500D03*
D15*
X431323750Y-150812500D03*
D13*
X423743750Y-146312500D03*
D16*
X426243750Y-150812500D03*
%TD*%
D12*
%TO.C,SW11*%
X401973750Y-146612500D03*
D13*
X412193750Y-154612500D03*
X407193750Y-156712500D03*
X402193750Y-154612500D03*
D14*
X412693750Y-150812500D03*
X401693750Y-150812500D03*
D12*
X412413750Y-146612500D03*
D13*
X409733750Y-145732500D03*
X404693750Y-146812500D03*
X409693750Y-146312500D03*
D15*
X402113750Y-150812500D03*
D13*
X403383750Y-148272500D03*
X411003750Y-148272500D03*
X404653750Y-145732500D03*
X409693750Y-146812500D03*
D15*
X412273750Y-150812500D03*
D13*
X404693750Y-146312500D03*
D16*
X407193750Y-150812500D03*
%TD*%
D12*
%TO.C,SW10*%
X382923750Y-146612500D03*
D13*
X393143750Y-154612500D03*
X388143750Y-156712500D03*
X383143750Y-154612500D03*
D14*
X393643750Y-150812500D03*
X382643750Y-150812500D03*
D12*
X393363750Y-146612500D03*
D13*
X390683750Y-145732500D03*
X385643750Y-146812500D03*
X390643750Y-146312500D03*
D15*
X383063750Y-150812500D03*
D13*
X384333750Y-148272500D03*
X391953750Y-148272500D03*
X385603750Y-145732500D03*
X390643750Y-146812500D03*
D15*
X393223750Y-150812500D03*
D13*
X385643750Y-146312500D03*
D16*
X388143750Y-150812500D03*
%TD*%
D12*
%TO.C,SW9*%
X363873750Y-146612500D03*
D13*
X374093750Y-154612500D03*
X369093750Y-156712500D03*
X364093750Y-154612500D03*
D14*
X374593750Y-150812500D03*
X363593750Y-150812500D03*
D12*
X374313750Y-146612500D03*
D13*
X371633750Y-145732500D03*
X366593750Y-146812500D03*
X371593750Y-146312500D03*
D15*
X364013750Y-150812500D03*
D13*
X365283750Y-148272500D03*
X372903750Y-148272500D03*
X366553750Y-145732500D03*
X371593750Y-146812500D03*
D15*
X374173750Y-150812500D03*
D13*
X366593750Y-146312500D03*
D16*
X369093750Y-150812500D03*
%TD*%
D12*
%TO.C,SW8*%
X344823750Y-146612500D03*
D13*
X355043750Y-154612500D03*
X350043750Y-156712500D03*
X345043750Y-154612500D03*
D14*
X355543750Y-150812500D03*
X344543750Y-150812500D03*
D12*
X355263750Y-146612500D03*
D13*
X352583750Y-145732500D03*
X347543750Y-146812500D03*
X352543750Y-146312500D03*
D15*
X344963750Y-150812500D03*
D13*
X346233750Y-148272500D03*
X353853750Y-148272500D03*
X347503750Y-145732500D03*
X352543750Y-146812500D03*
D15*
X355123750Y-150812500D03*
D13*
X347543750Y-146312500D03*
D16*
X350043750Y-150812500D03*
%TD*%
D12*
%TO.C,SW5*%
X287673750Y-146612500D03*
D13*
X297893750Y-154612500D03*
X292893750Y-156712500D03*
X287893750Y-154612500D03*
D14*
X298393750Y-150812500D03*
X287393750Y-150812500D03*
D12*
X298113750Y-146612500D03*
D13*
X295433750Y-145732500D03*
X290393750Y-146812500D03*
X295393750Y-146312500D03*
D15*
X287813750Y-150812500D03*
D13*
X289083750Y-148272500D03*
X296703750Y-148272500D03*
X290353750Y-145732500D03*
X295393750Y-146812500D03*
D15*
X297973750Y-150812500D03*
D13*
X290393750Y-146312500D03*
D16*
X292893750Y-150812500D03*
%TD*%
D12*
%TO.C,SW3*%
X249567400Y-146612500D03*
D13*
X259787400Y-154612500D03*
X254787400Y-156712500D03*
X249787400Y-154612500D03*
D14*
X260287400Y-150812500D03*
X249287400Y-150812500D03*
D12*
X260007400Y-146612500D03*
D13*
X257327400Y-145732500D03*
X252287400Y-146812500D03*
X257287400Y-146312500D03*
D15*
X249707400Y-150812500D03*
D13*
X250977400Y-148272500D03*
X258597400Y-148272500D03*
X252247400Y-145732500D03*
X257287400Y-146812500D03*
D15*
X259867400Y-150812500D03*
D13*
X252287400Y-146312500D03*
D16*
X254787400Y-150812500D03*
%TD*%
D12*
%TO.C,SW2*%
X230523750Y-146612500D03*
D13*
X240743750Y-154612500D03*
X235743750Y-156712500D03*
X230743750Y-154612500D03*
D14*
X241243750Y-150812500D03*
X230243750Y-150812500D03*
D12*
X240963750Y-146612500D03*
D13*
X238283750Y-145732500D03*
X233243750Y-146812500D03*
X238243750Y-146312500D03*
D15*
X230663750Y-150812500D03*
D13*
X231933750Y-148272500D03*
X239553750Y-148272500D03*
X233203750Y-145732500D03*
X238243750Y-146812500D03*
D15*
X240823750Y-150812500D03*
D13*
X233243750Y-146312500D03*
D16*
X235743750Y-150812500D03*
%TD*%
D12*
%TO.C,SW1*%
X211473750Y-146612500D03*
D13*
X221693750Y-154612500D03*
X216693750Y-156712500D03*
X211693750Y-154612500D03*
D14*
X222193750Y-150812500D03*
X211193750Y-150812500D03*
D12*
X221913750Y-146612500D03*
D13*
X219233750Y-145732500D03*
X214193750Y-146812500D03*
X219193750Y-146312500D03*
D15*
X211613750Y-150812500D03*
D13*
X212883750Y-148272500D03*
X220503750Y-148272500D03*
X214153750Y-145732500D03*
X219193750Y-146812500D03*
D15*
X221773750Y-150812500D03*
D13*
X214193750Y-146312500D03*
D16*
X216693750Y-150812500D03*
%TD*%
M02*
