M48
; DRILL file {KiCad (5.1.6)-1} date 03/17/21 18:03:17
; FORMAT={-:-/ absolute / inch / decimal}
; #@! TF.CreationDate,2021-03-17T18:03:17-05:00
; #@! TF.GenerationSoftware,Kicad,Pcbnew,(5.1.6)-1
FMAT,2
INCH
T1C0.0157
T2C0.0390
T3C0.0394
T4C0.0430
T5C0.0472
T6C0.0591
T7C0.0472
T8C0.0709
T9C0.0748
T10C0.1570
%
G90
G05
T1
X8.8535Y-9.363
X8.877Y-8.614
X8.895Y-7.871
X8.911Y-7.124
X8.9244Y-6.361
X11.533Y-5.372
X11.7812Y-5.3042
X11.805Y-4.991
X11.856Y-5.2295
X11.897Y-5.058
X11.936Y-5.6165
X12.01Y-5.613
X12.444Y-9.507
X12.541Y-9.507
X12.569Y-5.623
X12.5738Y-5.7772
X12.616Y-9.395
X12.663Y-9.398
X17.782Y-6.254
X17.788Y-7.089
X17.828Y-5.019
X17.87Y-5.367
X18.0809Y-5.3371
X18.295Y-6.3255
X18.335Y-6.3035
X18.392Y-6.2857
X18.597Y-4.964
X18.607Y-5.008
X18.706Y-6.396
X18.707Y-6.316
X18.737Y-6.211
X20.945Y-5.678
T2
X20.3812Y-9.2812
X20.6812Y-9.2812
X14.9375Y-9.6937
X14.9375Y-9.9938
X19.6312Y-8.5312
X19.9312Y-8.5312
X18.5312Y-5.7875
X18.5312Y-6.0875
X16.6312Y-8.5312
X16.9312Y-8.5312
X18.4062Y-5.7875
X18.4062Y-6.0875
X17.3812Y-7.7812
X17.6812Y-7.7812
X18.8812Y-7.0283
X19.1812Y-7.0283
X20.9062Y-5.7875
X20.9062Y-6.0875
X18.1562Y-5.7938
X18.1562Y-6.0938
X9.8812Y-7.7812
X10.1813Y-7.7812
X13.6312Y-7.0312
X13.9313Y-7.0312
X9.1312Y-6.2812
X9.4313Y-6.2812
X19.6312Y-7.7812
X19.9312Y-7.7812
X17.0062Y-9.2812
X17.3062Y-9.2812
X9.625Y-9.6937
X9.625Y-9.9938
X15.6875Y-9.6937
X15.6875Y-9.9938
X16.4375Y-9.6937
X16.4375Y-9.9938
X20.3812Y-8.5312
X20.6812Y-8.5312
X18.8812Y-8.5312
X19.1812Y-8.5312
X9.1312Y-9.2812
X9.4313Y-9.2812
X14.3812Y-7.7812
X14.6813Y-7.7812
X21.1312Y-7.0312
X21.4312Y-7.0312
X8.3812Y-6.2812
X8.6813Y-6.2812
X21.1312Y-8.1562
X21.4312Y-8.1562
X16.6312Y-7.0312
X16.9312Y-7.0312
X9.8812Y-6.2812
X10.1813Y-6.2812
X20.3812Y-7.7812
X20.6812Y-7.7812
X18.8812Y-9.2812
X19.1812Y-9.2812
X19.6312Y-9.2812
X19.9312Y-9.2812
X15.125Y-9.2812
X15.425Y-9.2812
X17.9375Y-9.6937
X17.9375Y-9.9938
X18.6875Y-9.6937
X18.6875Y-9.9938
X19.4375Y-9.6937
X19.4375Y-9.9938
X10.6312Y-8.5312
X10.9313Y-8.5312
X14.3812Y-8.5312
X14.6813Y-8.5312
X8.3812Y-8.5312
X8.6813Y-8.5312
X15.8812Y-7.7812
X16.1812Y-7.7812
X14.3812Y-7.0312
X14.6813Y-7.0312
X18.8812Y-6.2812
X19.1812Y-6.2812
X15.1312Y-7.7812
X15.4313Y-7.7812
X17.3812Y-7.0312
X17.6812Y-7.0312
X10.6312Y-6.2812
X10.9313Y-6.2812
X14.3812Y-9.2812
X14.6813Y-9.2812
X21.1312Y-9.6562
X21.4312Y-9.6562
X10.4062Y-9.6875
X10.4062Y-9.9875
X11.8125Y-9.5375
X11.8125Y-9.8375
X12.1312Y-8.5312
X12.4313Y-8.5312
X8.3812Y-9.2812
X8.6813Y-9.2812
X9.1312Y-8.5312
X9.4313Y-8.5312
X15.1312Y-7.0312
X15.4313Y-7.0312
X13.6312Y-6.2812
X13.9313Y-6.2812
X8.3812Y-7.7812
X8.6813Y-7.7812
X11.3812Y-7.0312
X11.6813Y-7.0312
X12.8812Y-6.2812
X13.1813Y-6.2812
X11.3812Y-7.7812
X11.6813Y-7.7812
X9.1312Y-7.0312
X9.4313Y-7.0312
X15.1312Y-6.2812
X15.4313Y-6.2812
X18.1312Y-9.2812
X18.4312Y-9.2812
X10.6312Y-9.2812
X10.9313Y-9.2812
X11.9375Y-8.9437
X11.9375Y-9.2438
X10.8125Y-9.6937
X10.8125Y-9.9938
X17.1875Y-9.6937
X17.1875Y-9.9938
X17.7875Y-8.5312
X18.0875Y-8.5312
X13.6312Y-8.5312
X13.9313Y-8.5312
X9.8812Y-8.5312
X10.1813Y-8.5312
X15.8812Y-7.0312
X16.1812Y-7.0312
X17.3812Y-6.2812
X17.6812Y-6.2812
X18.1312Y-7.7812
X18.4312Y-7.7812
X10.6312Y-7.0312
X10.9313Y-7.0312
X14.3812Y-6.2812
X14.6813Y-6.2812
X12.1312Y-7.7812
X12.4313Y-7.7812
X9.8812Y-7.0312
X10.1813Y-7.0312
X11.3812Y-6.2812
X11.6813Y-6.2812
X9.8812Y-9.2812
X10.1813Y-9.2812
X15.8812Y-9.2812
X16.1812Y-9.2812
X12.8812Y-9.2812
X13.1813Y-9.2812
X13.0625Y-9.6937
X13.0625Y-9.9938
X20.1875Y-9.6937
X20.1875Y-9.9938
X12.8812Y-8.5312
X13.1813Y-8.5312
X15.1312Y-8.5312
X15.4313Y-8.5312
X10.6312Y-7.7812
X10.9313Y-7.7812
X8.3812Y-7.0312
X8.6813Y-7.0312
X16.6312Y-6.2812
X16.9312Y-6.2812
X18.0312Y-5.7938
X18.0312Y-6.0938
X16.6312Y-7.7812
X16.9312Y-7.7812
X20.3812Y-7.0312
X20.6812Y-7.0312
X20.3812Y-6.2812
X20.6812Y-6.2812
X18.8812Y-7.7812
X19.1812Y-7.7812
X19.6312Y-7.0312
X19.9312Y-7.0312
X12.1312Y-6.2812
X12.4313Y-6.2812
X8.875Y-9.6937
X8.875Y-9.9938
X11.3812Y-9.2812
X11.6813Y-9.2812
X14.1875Y-9.6937
X14.1875Y-9.9938
X15.8812Y-8.5312
X16.1812Y-8.5312
X11.3812Y-8.5312
X11.6813Y-8.5312
X12.8812Y-7.7812
X13.1813Y-7.7812
X18.1312Y-7.0312
X18.4312Y-7.0312
X9.1312Y-7.7812
X9.4313Y-7.7812
X12.1312Y-7.0312
X12.4313Y-7.0312
X19.6312Y-6.2812
X19.9312Y-6.2812
X13.6312Y-7.7812
X13.9313Y-7.7812
X12.8812Y-7.0312
X13.1813Y-7.0312
X15.8812Y-6.2812
X16.1812Y-6.2812
X13.6312Y-9.2812
X13.9313Y-9.2812
T3
X21.1828Y-5.6619
X21.1828Y-6.2328
X21.2812Y-6.2328
X21.3797Y-5.6619
X21.3797Y-6.2328
X12.1828Y-9.3922
X12.1828Y-9.9631
X12.2812Y-9.3922
X12.3797Y-9.3922
X12.3797Y-9.9631
T4
X17.7312Y-4.8875
X17.7312Y-5.4875
X17.8313Y-4.8875
X17.8313Y-5.4875
X17.9312Y-4.8875
X17.9312Y-5.4875
X18.0312Y-4.8875
X18.0312Y-5.4875
X18.1312Y-4.8875
X18.1312Y-5.4875
X18.2312Y-4.8875
X18.2312Y-5.4875
X18.3313Y-4.8875
X18.3313Y-5.4875
X18.4312Y-4.8875
X18.4312Y-5.4875
X18.5312Y-4.8875
X18.5312Y-5.4875
X18.6312Y-4.8875
X18.6312Y-5.4875
X18.7312Y-4.8875
X18.7312Y-5.4875
X18.8313Y-4.8875
X18.8313Y-4.9875
X18.8313Y-5.0875
X18.8313Y-5.1875
X18.8313Y-5.2875
X18.8313Y-5.3875
X18.8313Y-5.4785
X10.9812Y-4.8875
X10.9812Y-5.4875
X11.0812Y-4.8875
X11.0812Y-5.4875
X11.1813Y-4.8875
X11.1813Y-5.4875
X11.2812Y-4.8875
X11.2812Y-5.4875
X11.3812Y-4.8875
X11.3812Y-5.4875
X11.4812Y-4.8875
X11.4812Y-5.4875
X11.5812Y-4.8875
X11.5812Y-5.4875
X11.6813Y-4.8875
X11.6813Y-5.4875
X11.7812Y-4.8875
X11.7812Y-5.4875
X11.8812Y-4.8875
X11.8812Y-5.4875
X11.9812Y-4.8875
X11.9812Y-5.4875
X12.0812Y-4.8875
X12.0812Y-5.4875
T5
X11.3344Y-6.0871
X11.5312Y-6.1698
X11.7281Y-6.0871
X8.3344Y-6.8371
X8.5312Y-6.9198
X8.7281Y-6.8371
X9.0844Y-6.0871
X9.2812Y-6.1698
X9.4781Y-6.0871
X12.0844Y-6.8371
X12.2812Y-6.9198
X12.4781Y-6.8371
X20.3344Y-9.8371
X20.5312Y-9.9198
X20.7281Y-9.8371
X16.5844Y-9.8371
X16.7812Y-9.9198
X16.9781Y-9.8371
X12.8344Y-7.5871
X13.0312Y-7.6698
X13.2281Y-7.5871
X17.3344Y-9.8371
X17.5312Y-9.9198
X17.7281Y-9.8371
X12.0844Y-7.5871
X12.2812Y-7.6698
X12.4781Y-7.5871
X19.5844Y-6.8371
X19.7812Y-6.9198
X19.9781Y-6.8371
X17.3344Y-7.5871
X17.5312Y-7.6698
X17.7281Y-7.5871
X20.3344Y-8.3371
X20.5312Y-8.4198
X20.7281Y-8.3371
X15.0844Y-8.3371
X15.2812Y-8.4198
X15.4781Y-8.3371
X11.3344Y-9.0871
X11.5312Y-9.1698
X11.7281Y-9.0871
X10.5844Y-7.5871
X10.7812Y-7.6698
X10.9781Y-7.5871
X16.9594Y-9.0871
X17.1562Y-9.1698
X17.3531Y-9.0871
X17.3344Y-6.0871
X17.5312Y-6.1698
X17.7281Y-6.0871
X13.5844Y-6.8371
X13.7812Y-6.9198
X13.9781Y-6.8371
X10.5844Y-6.0871
X10.7812Y-6.1698
X10.9781Y-6.0871
X12.8344Y-6.0871
X13.0312Y-6.1698
X13.2281Y-6.0871
X18.8344Y-9.8371
X19.0312Y-9.9198
X19.2281Y-9.8371
X16.5844Y-7.5871
X16.7812Y-7.6698
X16.9781Y-7.5871
X9.0844Y-9.8371
X9.2812Y-9.9198
X9.4781Y-9.8371
X17.3344Y-6.8371
X17.5312Y-6.9198
X17.7281Y-6.8371
X13.5844Y-7.5871
X13.7812Y-7.6698
X13.9781Y-7.5871
X9.8344Y-8.3371
X10.0312Y-8.4198
X10.2281Y-8.3371
X21.049Y-7.8125
X21.1316Y-7.6156
X21.1316Y-8.0094
X19.5844Y-9.0871
X19.7812Y-9.1698
X19.9781Y-9.0871
X18.0844Y-9.0871
X18.2812Y-9.1698
X18.4781Y-9.0871
X12.8344Y-6.8371
X13.0312Y-6.9198
X13.2281Y-6.8371
X9.8341Y-6.0871
X10.031Y-6.1698
X10.2279Y-6.0871
X14.3344Y-6.0871
X14.5312Y-6.1698
X14.7281Y-6.0871
X15.0844Y-6.0871
X15.2812Y-6.1698
X15.4781Y-6.0871
X15.8344Y-9.8371
X16.0312Y-9.9198
X16.2281Y-9.8371
X10.9594Y-9.8371
X11.1562Y-9.9198
X11.3531Y-9.8371
X8.3344Y-8.3371
X8.5312Y-8.4198
X8.7281Y-8.3371
X9.8344Y-9.8371
X10.0312Y-9.9198
X10.2281Y-9.8371
X18.0844Y-6.8371
X18.2812Y-6.9198
X18.4781Y-6.8371
X15.8344Y-7.5871
X16.0312Y-7.6698
X16.2281Y-7.5871
X11.3344Y-8.3371
X11.5312Y-8.4198
X11.7281Y-8.3371
X13.5844Y-8.3371
X13.7812Y-8.4198
X13.9781Y-8.3371
X10.5844Y-9.0871
X10.7812Y-9.1698
X10.9781Y-9.0871
X12.0844Y-9.0871
X12.2812Y-9.1698
X12.4781Y-9.0871
X15.8344Y-6.0871
X16.0312Y-6.1698
X16.2281Y-6.0871
X15.8344Y-6.8371
X16.0312Y-6.9198
X16.2281Y-6.8371
X16.5844Y-6.8371
X16.7812Y-6.9198
X16.9781Y-6.8371
X16.5844Y-6.0871
X16.7812Y-6.1698
X16.9781Y-6.0871
X9.8344Y-6.8371
X10.0312Y-6.9198
X10.2281Y-6.8371
X18.0844Y-9.8371
X18.2812Y-9.9198
X18.4781Y-9.8371
X15.0844Y-9.8371
X15.2812Y-9.9198
X15.4781Y-9.8371
X16.5844Y-8.3371
X16.7812Y-8.4198
X16.9781Y-8.3371
X19.5844Y-9.8371
X19.7812Y-9.9198
X19.9781Y-9.8371
X21.0844Y-6.8371
X21.2812Y-6.9198
X21.4781Y-6.8371
X18.8344Y-7.5871
X19.0312Y-7.6698
X19.2281Y-7.5871
X12.0844Y-8.3371
X12.2812Y-8.4198
X12.4781Y-8.3371
X13.5844Y-9.0871
X13.7812Y-9.1698
X13.9781Y-9.0871
X14.3344Y-7.5871
X14.5312Y-7.6698
X14.7281Y-7.5871
X9.8344Y-9.0871
X10.0312Y-9.1698
X10.2281Y-9.0871
X17.7406Y-8.3371
X17.9375Y-8.4198
X18.1344Y-8.3371
X9.0844Y-6.8371
X9.2812Y-6.9198
X9.4781Y-6.8371
X10.5844Y-6.8371
X10.7812Y-6.9198
X10.9781Y-6.8371
X12.0844Y-6.0871
X12.2812Y-6.1698
X12.4781Y-6.0871
X18.8344Y-6.0871
X19.0312Y-6.1698
X19.2281Y-6.0871
X21.049Y-9.3125
X21.1316Y-9.1156
X21.1316Y-9.5094
X20.3344Y-9.0871
X20.5312Y-9.1698
X20.7281Y-9.0871
X14.3344Y-8.3371
X14.5312Y-8.4198
X14.7281Y-8.3371
X9.0844Y-8.3371
X9.2812Y-8.4198
X9.4781Y-8.3371
X9.8344Y-7.5871
X10.0312Y-7.6698
X10.2281Y-7.5871
X11.3344Y-7.5871
X11.5312Y-7.6698
X11.7281Y-7.5871
X8.3344Y-9.0871
X8.5312Y-9.1698
X8.7281Y-9.0871
X18.8344Y-6.8371
X19.0312Y-6.9198
X19.2281Y-6.8371
X14.3344Y-9.0871
X14.5312Y-9.1698
X14.7281Y-9.0871
X12.8344Y-9.0871
X13.0312Y-9.1698
X13.2281Y-9.0871
X13.5844Y-6.0871
X13.7812Y-6.1698
X13.9781Y-6.0871
X15.0844Y-6.8371
X15.2812Y-6.9198
X15.4781Y-6.8371
X20.3344Y-6.0871
X20.5312Y-6.1698
X20.7281Y-6.0871
X13.2094Y-9.8371
X13.4062Y-9.9198
X13.6031Y-9.8371
X15.8344Y-8.3371
X16.0312Y-8.4198
X16.2281Y-8.3371
X10.5844Y-8.3371
X10.7812Y-8.4198
X10.9781Y-8.3371
X12.8344Y-8.3371
X13.0312Y-8.4198
X13.2281Y-8.3371
X15.0844Y-7.5871
X15.2812Y-7.6698
X15.4781Y-7.5871
X15.0844Y-9.0871
X15.2812Y-9.1698
X15.4781Y-9.0871
X20.3344Y-6.8371
X20.5312Y-6.9198
X20.7281Y-6.8371
X15.8344Y-9.0871
X16.0312Y-9.1698
X16.2281Y-9.0871
X19.5844Y-8.3371
X19.7812Y-8.4198
X19.9781Y-8.3371
X8.3344Y-6.0871
X8.5312Y-6.1698
X8.7281Y-6.0871
X19.5844Y-6.0871
X19.7812Y-6.1698
X19.9781Y-6.0871
X11.3344Y-6.8371
X11.5312Y-6.9198
X11.7281Y-6.8371
X14.3344Y-6.8371
X14.5312Y-6.9198
X14.7281Y-6.8371
X14.3344Y-9.8371
X14.5312Y-9.9198
X14.7281Y-9.8371
X8.3344Y-9.8371
X8.5312Y-9.9198
X8.7281Y-9.8371
X18.0844Y-7.5871
X18.2812Y-7.6698
X18.4781Y-7.5871
X8.3344Y-7.5871
X8.5312Y-7.6698
X8.7281Y-7.5871
X19.5844Y-7.5871
X19.7812Y-7.6698
X19.9781Y-7.5871
X20.3344Y-7.5871
X20.5312Y-7.6698
X20.7281Y-7.5871
X9.0844Y-9.0871
X9.2812Y-9.1698
X9.4781Y-9.0871
X9.0844Y-7.5871
X9.2812Y-7.6698
X9.4781Y-7.5871
X18.8344Y-9.0871
X19.0312Y-9.1698
X19.2281Y-9.0871
X18.8344Y-8.3371
X19.0312Y-8.4198
X19.2281Y-8.3371
T6
X12.1312Y-5.8375
X12.1813Y-5.7375
X12.1828Y-5.7603
X12.1828Y-5.78
X12.3797Y-5.7603
X12.3797Y-5.78
X12.3812Y-5.7375
X12.4313Y-5.8375
X18.8812Y-5.8375
X18.9312Y-5.7375
X18.9328Y-5.7603
X18.9328Y-5.78
X19.1297Y-5.7603
X19.1297Y-5.78
X19.1312Y-5.7375
X19.1812Y-5.8375
X21.3812Y-9.1625
X21.3812Y-9.4625
X21.4387Y-9.2141
X21.4387Y-9.4109
X21.4584Y-9.2141
X21.4584Y-9.4109
X21.4812Y-9.2125
X21.4812Y-9.4125
X20.3812Y-8.8375
X20.4312Y-8.7375
X20.4328Y-8.7603
X20.4328Y-8.78
X20.6297Y-8.7603
X20.6297Y-8.78
X20.6312Y-8.7375
X20.6812Y-8.8375
X14.3812Y-8.0875
X14.4313Y-7.9875
X14.4328Y-8.0103
X14.4328Y-8.03
X14.6297Y-8.0103
X14.6297Y-8.03
X14.6312Y-7.9875
X14.6813Y-8.0875
X9.1312Y-8.0875
X9.1813Y-7.9875
X9.1828Y-8.0103
X9.1828Y-8.03
X9.3797Y-8.0103
X9.3797Y-8.03
X9.3812Y-7.9875
X9.4313Y-8.0875
X9.8812Y-7.3375
X9.9313Y-7.2375
X9.9328Y-7.2603
X9.9328Y-7.28
X10.1297Y-7.2603
X10.1297Y-7.28
X10.1312Y-7.2375
X10.1813Y-7.3375
X11.3812Y-7.3375
X11.4313Y-7.2375
X11.4328Y-7.2603
X11.4328Y-7.28
X11.6297Y-7.2603
X11.6297Y-7.28
X11.6312Y-7.2375
X11.6813Y-7.3375
X8.3812Y-8.8375
X8.4313Y-8.7375
X8.4328Y-8.7603
X8.4328Y-8.78
X8.6297Y-8.7603
X8.6297Y-8.78
X8.6312Y-8.7375
X8.6813Y-8.8375
X18.8812Y-6.5875
X18.9312Y-6.4875
X18.9328Y-6.5103
X18.9328Y-6.53
X19.1297Y-6.5103
X19.1297Y-6.53
X19.1312Y-6.4875
X19.1812Y-6.5875
X14.3812Y-8.8375
X14.4313Y-8.7375
X14.4328Y-8.7603
X14.4328Y-8.78
X14.6297Y-8.7603
X14.6297Y-8.78
X14.6312Y-8.7375
X14.6813Y-8.8375
X12.8812Y-8.8375
X12.9313Y-8.7375
X12.9328Y-8.7603
X12.9328Y-8.78
X13.1297Y-8.7603
X13.1297Y-8.78
X13.1312Y-8.7375
X13.1813Y-8.8375
X13.6312Y-5.8375
X13.6813Y-5.7375
X13.6828Y-5.7603
X13.6828Y-5.78
X13.8797Y-5.7603
X13.8797Y-5.78
X13.8812Y-5.7375
X13.9313Y-5.8375
X15.1312Y-6.5875
X15.1813Y-6.4875
X15.1828Y-6.5103
X15.1828Y-6.53
X15.3797Y-6.5103
X15.3797Y-6.53
X15.3812Y-6.4875
X15.4313Y-6.5875
X20.3812Y-5.8375
X20.4312Y-5.7375
X20.4328Y-5.7603
X20.4328Y-5.78
X20.6297Y-5.7603
X20.6297Y-5.78
X20.6312Y-5.7375
X20.6812Y-5.8375
X13.2562Y-9.5875
X13.3063Y-9.4875
X13.3078Y-9.5103
X13.3078Y-9.53
X13.5047Y-9.5103
X13.5047Y-9.53
X13.5062Y-9.4875
X13.5563Y-9.5875
X15.8812Y-8.0875
X15.9313Y-7.9875
X15.9328Y-8.0103
X15.9328Y-8.03
X16.1297Y-8.0103
X16.1297Y-8.03
X16.1312Y-7.9875
X16.1812Y-8.0875
X10.6312Y-8.0875
X10.6813Y-7.9875
X10.6828Y-8.0103
X10.6828Y-8.03
X10.8797Y-8.0103
X10.8797Y-8.03
X10.8812Y-7.9875
X10.9313Y-8.0875
X12.8812Y-8.0875
X12.9313Y-7.9875
X12.9328Y-8.0103
X12.9328Y-8.03
X13.1297Y-8.0103
X13.1297Y-8.03
X13.1312Y-7.9875
X13.1813Y-8.0875
X15.1312Y-7.3375
X15.1813Y-7.2375
X15.1828Y-7.2603
X15.1828Y-7.28
X15.3797Y-7.2603
X15.3797Y-7.28
X15.3812Y-7.2375
X15.4313Y-7.3375
X15.1312Y-8.8375
X15.1813Y-8.7375
X15.1828Y-8.7603
X15.1828Y-8.78
X15.3797Y-8.7603
X15.3797Y-8.78
X15.3812Y-8.7375
X15.4313Y-8.8375
X20.3812Y-6.5875
X20.4312Y-6.4875
X20.4328Y-6.5103
X20.4328Y-6.53
X20.6297Y-6.5103
X20.6297Y-6.53
X20.6312Y-6.4875
X20.6812Y-6.5875
X15.8812Y-8.8375
X15.9313Y-8.7375
X15.9328Y-8.7603
X15.9328Y-8.78
X16.1297Y-8.7603
X16.1297Y-8.78
X16.1312Y-8.7375
X16.1812Y-8.8375
X19.6312Y-8.0875
X19.6812Y-7.9875
X19.6828Y-8.0103
X19.6828Y-8.03
X19.8797Y-8.0103
X19.8797Y-8.03
X19.8812Y-7.9875
X19.9312Y-8.0875
X8.3812Y-5.8375
X8.4313Y-5.7375
X8.4328Y-5.7603
X8.4328Y-5.78
X8.6297Y-5.7603
X8.6297Y-5.78
X8.6312Y-5.7375
X8.6813Y-5.8375
X19.6312Y-5.8375
X19.6812Y-5.7375
X19.6828Y-5.7603
X19.6828Y-5.78
X19.8797Y-5.7603
X19.8797Y-5.78
X19.8812Y-5.7375
X19.9312Y-5.8375
X11.3812Y-6.5875
X11.4313Y-6.4875
X11.4328Y-6.5103
X11.4328Y-6.53
X11.6297Y-6.5103
X11.6297Y-6.53
X11.6312Y-6.4875
X11.6813Y-6.5875
X14.3812Y-6.5875
X14.4313Y-6.4875
X14.4328Y-6.5103
X14.4328Y-6.53
X14.6297Y-6.5103
X14.6297Y-6.53
X14.6312Y-6.4875
X14.6813Y-6.5875
X14.3812Y-9.5875
X14.4313Y-9.4875
X14.4328Y-9.5103
X14.4328Y-9.53
X14.6297Y-9.5103
X14.6297Y-9.53
X14.6312Y-9.4875
X14.6813Y-9.5875
X8.3812Y-9.5875
X8.4313Y-9.4875
X8.4328Y-9.5103
X8.4328Y-9.53
X8.6297Y-9.5103
X8.6297Y-9.53
X8.6312Y-9.4875
X8.6813Y-9.5875
X18.1312Y-7.3375
X18.1812Y-7.2375
X18.1828Y-7.2603
X18.1828Y-7.28
X18.3797Y-7.2603
X18.3797Y-7.28
X18.3812Y-7.2375
X18.4312Y-7.3375
X8.3812Y-7.3375
X8.4313Y-7.2375
X8.4328Y-7.2603
X8.4328Y-7.28
X8.6297Y-7.2603
X8.6297Y-7.28
X8.6312Y-7.2375
X8.6813Y-7.3375
X19.6312Y-7.3375
X19.6812Y-7.2375
X19.6828Y-7.2603
X19.6828Y-7.28
X19.8797Y-7.2603
X19.8797Y-7.28
X19.8812Y-7.2375
X19.9312Y-7.3375
X20.3812Y-7.3375
X20.4312Y-7.2375
X20.4328Y-7.2603
X20.4328Y-7.28
X20.6297Y-7.2603
X20.6297Y-7.28
X20.6312Y-7.2375
X20.6812Y-7.3375
X9.1312Y-8.8375
X9.1813Y-8.7375
X9.1828Y-8.7603
X9.1828Y-8.78
X9.3797Y-8.7603
X9.3797Y-8.78
X9.3812Y-8.7375
X9.4313Y-8.8375
X9.1312Y-7.3375
X9.1813Y-7.2375
X9.1828Y-7.2603
X9.1828Y-7.28
X9.3797Y-7.2603
X9.3797Y-7.28
X9.3812Y-7.2375
X9.4313Y-7.3375
X18.8812Y-8.8375
X18.9312Y-8.7375
X18.9328Y-8.7603
X18.9328Y-8.78
X19.1297Y-8.7603
X19.1297Y-8.78
X19.1312Y-8.7375
X19.1812Y-8.8375
X18.8812Y-8.0875
X18.9312Y-7.9875
X18.9328Y-8.0103
X18.9328Y-8.03
X19.1297Y-8.0103
X19.1297Y-8.03
X19.1312Y-7.9875
X19.1812Y-8.0875
X11.3812Y-5.8375
X11.4313Y-5.7375
X11.4328Y-5.7603
X11.4328Y-5.78
X11.6297Y-5.7603
X11.6297Y-5.78
X11.6312Y-5.7375
X11.6813Y-5.8375
X8.3812Y-6.5875
X8.4313Y-6.4875
X8.4328Y-6.5103
X8.4328Y-6.53
X8.6297Y-6.5103
X8.6297Y-6.53
X8.6312Y-6.4875
X8.6813Y-6.5875
X9.1312Y-5.8375
X9.1813Y-5.7375
X9.1828Y-5.7603
X9.1828Y-5.78
X9.3797Y-5.7603
X9.3797Y-5.78
X9.3812Y-5.7375
X9.4313Y-5.8375
X12.1312Y-6.5875
X12.1813Y-6.4875
X12.1828Y-6.5103
X12.1828Y-6.53
X12.3797Y-6.5103
X12.3797Y-6.53
X12.3812Y-6.4875
X12.4313Y-6.5875
X20.3812Y-9.5875
X20.4312Y-9.4875
X20.4328Y-9.5103
X20.4328Y-9.53
X20.6297Y-9.5103
X20.6297Y-9.53
X20.6312Y-9.4875
X20.6812Y-9.5875
X16.6312Y-9.5875
X16.6812Y-9.4875
X16.6828Y-9.5103
X16.6828Y-9.53
X16.8797Y-9.5103
X16.8797Y-9.53
X16.8812Y-9.4875
X16.9312Y-9.5875
X12.8812Y-7.3375
X12.9313Y-7.2375
X12.9328Y-7.2603
X12.9328Y-7.28
X13.1297Y-7.2603
X13.1297Y-7.28
X13.1312Y-7.2375
X13.1813Y-7.3375
X17.3812Y-9.5875
X17.4312Y-9.4875
X17.4328Y-9.5103
X17.4328Y-9.53
X17.6297Y-9.5103
X17.6297Y-9.53
X17.6312Y-9.4875
X17.6812Y-9.5875
X12.1312Y-7.3375
X12.1813Y-7.2375
X12.1828Y-7.2603
X12.1828Y-7.28
X12.3797Y-7.2603
X12.3797Y-7.28
X12.3812Y-7.2375
X12.4313Y-7.3375
X19.6312Y-6.5875
X19.6812Y-6.4875
X19.6828Y-6.5103
X19.6828Y-6.53
X19.8797Y-6.5103
X19.8797Y-6.53
X19.8812Y-6.4875
X19.9312Y-6.5875
X17.3812Y-7.3375
X17.4312Y-7.2375
X17.4328Y-7.2603
X17.4328Y-7.28
X17.6297Y-7.2603
X17.6297Y-7.28
X17.6312Y-7.2375
X17.6812Y-7.3375
X20.3812Y-8.0875
X20.4312Y-7.9875
X20.4328Y-8.0103
X20.4328Y-8.03
X20.6297Y-8.0103
X20.6297Y-8.03
X20.6312Y-7.9875
X20.6812Y-8.0875
X15.1312Y-8.0875
X15.1813Y-7.9875
X15.1828Y-8.0103
X15.1828Y-8.03
X15.3797Y-8.0103
X15.3797Y-8.03
X15.3812Y-7.9875
X15.4313Y-8.0875
X11.3812Y-8.8375
X11.4313Y-8.7375
X11.4328Y-8.7603
X11.4328Y-8.78
X11.6297Y-8.7603
X11.6297Y-8.78
X11.6312Y-8.7375
X11.6813Y-8.8375
X10.6312Y-7.3375
X10.6813Y-7.2375
X10.6828Y-7.2603
X10.6828Y-7.28
X10.8797Y-7.2603
X10.8797Y-7.28
X10.8812Y-7.2375
X10.9313Y-7.3375
X17.0062Y-8.8375
X17.0562Y-8.7375
X17.0578Y-8.7603
X17.0578Y-8.78
X17.2547Y-8.7603
X17.2547Y-8.78
X17.2562Y-8.7375
X17.3062Y-8.8375
X17.3812Y-5.8375
X17.4312Y-5.7375
X17.4328Y-5.7603
X17.4328Y-5.78
X17.6297Y-5.7603
X17.6297Y-5.78
X17.6312Y-5.7375
X17.6812Y-5.8375
X13.6312Y-6.5875
X13.6813Y-6.4875
X13.6828Y-6.5103
X13.6828Y-6.53
X13.8797Y-6.5103
X13.8797Y-6.53
X13.8812Y-6.4875
X13.9313Y-6.5875
X10.6312Y-5.8375
X10.6813Y-5.7375
X10.6828Y-5.7603
X10.6828Y-5.78
X10.8797Y-5.7603
X10.8797Y-5.78
X10.8812Y-5.7375
X10.9313Y-5.8375
X12.8812Y-5.8375
X12.9313Y-5.7375
X12.9328Y-5.7603
X12.9328Y-5.78
X13.1297Y-5.7603
X13.1297Y-5.78
X13.1312Y-5.7375
X13.1813Y-5.8375
X18.8812Y-9.5875
X18.9312Y-9.4875
X18.9328Y-9.5103
X18.9328Y-9.53
X19.1297Y-9.5103
X19.1297Y-9.53
X19.1312Y-9.4875
X19.1812Y-9.5875
X16.6312Y-7.3375
X16.6812Y-7.2375
X16.6828Y-7.2603
X16.6828Y-7.28
X16.8797Y-7.2603
X16.8797Y-7.28
X16.8812Y-7.2375
X16.9312Y-7.3375
X9.1312Y-9.5875
X9.1813Y-9.4875
X9.1828Y-9.5103
X9.1828Y-9.53
X9.3797Y-9.5103
X9.3797Y-9.53
X9.3812Y-9.4875
X9.4313Y-9.5875
X17.3812Y-6.5875
X17.4312Y-6.4875
X17.4328Y-6.5103
X17.4328Y-6.53
X17.6297Y-6.5103
X17.6297Y-6.53
X17.6312Y-6.4875
X17.6812Y-6.5875
X13.6312Y-7.3375
X13.6813Y-7.2375
X13.6828Y-7.2603
X13.6828Y-7.28
X13.8797Y-7.2603
X13.8797Y-7.28
X13.8812Y-7.2375
X13.9313Y-7.3375
X9.8812Y-8.0875
X9.9313Y-7.9875
X9.9328Y-8.0103
X9.9328Y-8.03
X10.1297Y-8.0103
X10.1297Y-8.03
X10.1312Y-7.9875
X10.1813Y-8.0875
X21.3812Y-7.6625
X21.3812Y-7.9625
X21.4387Y-7.7141
X21.4387Y-7.9109
X21.4584Y-7.7141
X21.4584Y-7.9109
X21.4812Y-7.7125
X21.4812Y-7.9125
X19.6312Y-8.8375
X19.6812Y-8.7375
X19.6828Y-8.7603
X19.6828Y-8.78
X19.8797Y-8.7603
X19.8797Y-8.78
X19.8812Y-8.7375
X19.9312Y-8.8375
X18.1312Y-8.8375
X18.1812Y-8.7375
X18.1828Y-8.7603
X18.1828Y-8.78
X18.3797Y-8.7603
X18.3797Y-8.78
X18.3812Y-8.7375
X18.4312Y-8.8375
X12.8812Y-6.5875
X12.9313Y-6.4875
X12.9328Y-6.5103
X12.9328Y-6.53
X13.1297Y-6.5103
X13.1297Y-6.53
X13.1312Y-6.4875
X13.1813Y-6.5875
X9.881Y-5.8375
X9.931Y-5.7375
X9.9326Y-5.7603
X9.9326Y-5.78
X10.1294Y-5.7603
X10.1294Y-5.78
X10.131Y-5.7375
X10.181Y-5.8375
X14.3812Y-5.8375
X14.4313Y-5.7375
X14.4328Y-5.7603
X14.4328Y-5.78
X14.6297Y-5.7603
X14.6297Y-5.78
X14.6312Y-5.7375
X14.6813Y-5.8375
X15.1312Y-5.8375
X15.1813Y-5.7375
X15.1828Y-5.7603
X15.1828Y-5.78
X15.3797Y-5.7603
X15.3797Y-5.78
X15.3812Y-5.7375
X15.4313Y-5.8375
X15.8812Y-9.5875
X15.9313Y-9.4875
X15.9328Y-9.5103
X15.9328Y-9.53
X16.1297Y-9.5103
X16.1297Y-9.53
X16.1312Y-9.4875
X16.1812Y-9.5875
X11.0062Y-9.5875
X11.0563Y-9.4875
X11.0578Y-9.5103
X11.0578Y-9.53
X11.2547Y-9.5103
X11.2547Y-9.53
X11.2562Y-9.4875
X11.3063Y-9.5875
X8.3812Y-8.0875
X8.4313Y-7.9875
X8.4328Y-8.0103
X8.4328Y-8.03
X8.6297Y-8.0103
X8.6297Y-8.03
X8.6312Y-7.9875
X8.6813Y-8.0875
X9.8812Y-9.5875
X9.9313Y-9.4875
X9.9328Y-9.5103
X9.9328Y-9.53
X10.1297Y-9.5103
X10.1297Y-9.53
X10.1312Y-9.4875
X10.1813Y-9.5875
X18.1312Y-6.5875
X18.1812Y-6.4875
X18.1828Y-6.5103
X18.1828Y-6.53
X18.3797Y-6.5103
X18.3797Y-6.53
X18.3812Y-6.4875
X18.4312Y-6.5875
X15.8812Y-7.3375
X15.9313Y-7.2375
X15.9328Y-7.2603
X15.9328Y-7.28
X16.1297Y-7.2603
X16.1297Y-7.28
X16.1312Y-7.2375
X16.1812Y-7.3375
X11.3812Y-8.0875
X11.4313Y-7.9875
X11.4328Y-8.0103
X11.4328Y-8.03
X11.6297Y-8.0103
X11.6297Y-8.03
X11.6312Y-7.9875
X11.6813Y-8.0875
X13.6312Y-8.0875
X13.6813Y-7.9875
X13.6828Y-8.0103
X13.6828Y-8.03
X13.8797Y-8.0103
X13.8797Y-8.03
X13.8812Y-7.9875
X13.9313Y-8.0875
X10.6312Y-8.8375
X10.6813Y-8.7375
X10.6828Y-8.7603
X10.6828Y-8.78
X10.8797Y-8.7603
X10.8797Y-8.78
X10.8812Y-8.7375
X10.9313Y-8.8375
X12.1312Y-8.8375
X12.1813Y-8.7375
X12.1828Y-8.7603
X12.1828Y-8.78
X12.3797Y-8.7603
X12.3797Y-8.78
X12.3812Y-8.7375
X12.4313Y-8.8375
X15.8812Y-5.8375
X15.9313Y-5.7375
X15.9328Y-5.7603
X15.9328Y-5.78
X16.1297Y-5.7603
X16.1297Y-5.78
X16.1312Y-5.7375
X16.1812Y-5.8375
X15.8812Y-6.5875
X15.9313Y-6.4875
X15.9328Y-6.5103
X15.9328Y-6.53
X16.1297Y-6.5103
X16.1297Y-6.53
X16.1312Y-6.4875
X16.1812Y-6.5875
X16.6312Y-6.5875
X16.6812Y-6.4875
X16.6828Y-6.5103
X16.6828Y-6.53
X16.8797Y-6.5103
X16.8797Y-6.53
X16.8812Y-6.4875
X16.9312Y-6.5875
X16.6312Y-5.8375
X16.6812Y-5.7375
X16.6828Y-5.7603
X16.6828Y-5.78
X16.8797Y-5.7603
X16.8797Y-5.78
X16.8812Y-5.7375
X16.9312Y-5.8375
X9.8812Y-6.5875
X9.9313Y-6.4875
X9.9328Y-6.5103
X9.9328Y-6.53
X10.1297Y-6.5103
X10.1297Y-6.53
X10.1312Y-6.4875
X10.1813Y-6.5875
X18.1312Y-9.5875
X18.1812Y-9.4875
X18.1828Y-9.5103
X18.1828Y-9.53
X18.3797Y-9.5103
X18.3797Y-9.53
X18.3812Y-9.4875
X18.4312Y-9.5875
X15.1312Y-9.5875
X15.1813Y-9.4875
X15.1828Y-9.5103
X15.1828Y-9.53
X15.3797Y-9.5103
X15.3797Y-9.53
X15.3812Y-9.4875
X15.4313Y-9.5875
X16.6312Y-8.0875
X16.6812Y-7.9875
X16.6828Y-8.0103
X16.6828Y-8.03
X16.8797Y-8.0103
X16.8797Y-8.03
X16.8812Y-7.9875
X16.9312Y-8.0875
X19.6312Y-9.5875
X19.6812Y-9.4875
X19.6828Y-9.5103
X19.6828Y-9.53
X19.8797Y-9.5103
X19.8797Y-9.53
X19.8812Y-9.4875
X19.9312Y-9.5875
X21.1312Y-6.5875
X21.1812Y-6.4875
X21.1828Y-6.5103
X21.1828Y-6.53
X21.3797Y-6.5103
X21.3797Y-6.53
X21.3812Y-6.4875
X21.4312Y-6.5875
X18.8812Y-7.3375
X18.9312Y-7.2375
X18.9328Y-7.2603
X18.9328Y-7.28
X19.1297Y-7.2603
X19.1297Y-7.28
X19.1312Y-7.2375
X19.1812Y-7.3375
X12.1312Y-8.0875
X12.1813Y-7.9875
X12.1828Y-8.0103
X12.1828Y-8.03
X12.3797Y-8.0103
X12.3797Y-8.03
X12.3812Y-7.9875
X12.4313Y-8.0875
X13.6312Y-8.8375
X13.6813Y-8.7375
X13.6828Y-8.7603
X13.6828Y-8.78
X13.8797Y-8.7603
X13.8797Y-8.78
X13.8812Y-8.7375
X13.9313Y-8.8375
X14.3812Y-7.3375
X14.4313Y-7.2375
X14.4328Y-7.2603
X14.4328Y-7.28
X14.6297Y-7.2603
X14.6297Y-7.28
X14.6312Y-7.2375
X14.6813Y-7.3375
X9.8812Y-8.8375
X9.9313Y-8.7375
X9.9328Y-8.7603
X9.9328Y-8.78
X10.1297Y-8.7603
X10.1297Y-8.78
X10.1312Y-8.7375
X10.1813Y-8.8375
X17.7875Y-8.0875
X17.8375Y-7.9875
X17.8391Y-8.0103
X17.8391Y-8.03
X18.0359Y-8.0103
X18.0359Y-8.03
X18.0375Y-7.9875
X18.0875Y-8.0875
X9.1312Y-6.5875
X9.1813Y-6.4875
X9.1828Y-6.5103
X9.1828Y-6.53
X9.3797Y-6.5103
X9.3797Y-6.53
X9.3812Y-6.4875
X9.4313Y-6.5875
X10.6312Y-6.5875
X10.6813Y-6.4875
X10.6828Y-6.5103
X10.6828Y-6.53
X10.8797Y-6.5103
X10.8797Y-6.53
X10.8812Y-6.4875
X10.9313Y-6.5875
T7
X9.8255Y-5.7721
X10.2365Y-5.7721
X14.3257Y-5.7721
X14.7368Y-5.7721
X15.0757Y-5.7721
X15.4868Y-5.7721
X15.8257Y-9.5221
X16.2368Y-9.5221
X10.9507Y-9.5221
X11.3618Y-9.5221
X8.3257Y-8.0221
X8.7368Y-8.0221
X9.8257Y-9.5221
X10.2368Y-9.5221
X18.0757Y-6.5221
X18.4868Y-6.5221
X15.8257Y-7.2721
X16.2368Y-7.2721
X11.3257Y-8.0221
X11.7368Y-8.0221
X13.5757Y-8.0221
X13.9868Y-8.0221
X10.5757Y-8.7721
X10.9868Y-8.7721
X12.0757Y-8.7721
X12.4868Y-8.7721
X15.8257Y-5.7721
X16.2368Y-5.7721
X15.8257Y-6.5221
X16.2368Y-6.5221
X16.5757Y-6.5221
X16.9868Y-6.5221
X16.5757Y-5.7721
X16.9868Y-5.7721
X9.8257Y-6.5221
X10.2368Y-6.5221
X18.0757Y-9.5221
X18.4868Y-9.5221
X15.0757Y-9.5221
X15.4868Y-9.5221
X16.5757Y-8.0221
X16.9868Y-8.0221
X19.5757Y-9.5221
X19.9868Y-9.5221
X21.0757Y-6.5221
X21.4868Y-6.5221
X18.8257Y-7.2721
X19.2368Y-7.2721
X12.0757Y-8.0221
X12.4868Y-8.0221
X13.5757Y-8.7721
X13.9868Y-8.7721
X14.3257Y-7.2721
X14.7368Y-7.2721
X9.8257Y-8.7721
X10.2368Y-8.7721
X17.732Y-8.0221
X18.143Y-8.0221
X9.0757Y-6.5221
X9.4868Y-6.5221
X10.5757Y-6.5221
X10.9868Y-6.5221
X12.0757Y-5.7721
X12.4868Y-5.7721
X18.8257Y-5.7721
X19.2368Y-5.7721
X21.4466Y-9.107
X21.4466Y-9.518
X20.3257Y-8.7721
X20.7368Y-8.7721
X14.3257Y-8.0221
X14.7368Y-8.0221
X9.0757Y-8.0221
X9.4868Y-8.0221
X9.8257Y-7.2721
X10.2368Y-7.2721
X11.3257Y-7.2721
X11.7368Y-7.2721
X8.3257Y-8.7721
X8.7368Y-8.7721
X18.8257Y-6.5221
X19.2368Y-6.5221
X14.3257Y-8.7721
X14.7368Y-8.7721
X12.8257Y-8.7721
X13.2368Y-8.7721
X13.5757Y-5.7721
X13.9868Y-5.7721
X15.0757Y-6.5221
X15.4868Y-6.5221
X20.3257Y-5.7721
X20.7368Y-5.7721
X13.2007Y-9.5221
X13.6118Y-9.5221
X15.8257Y-8.0221
X16.2368Y-8.0221
X10.5757Y-8.0221
X10.9868Y-8.0221
X12.8257Y-8.0221
X13.2368Y-8.0221
X15.0757Y-7.2721
X15.4868Y-7.2721
X15.0757Y-8.7721
X15.4868Y-8.7721
X20.3257Y-6.5221
X20.7368Y-6.5221
X15.8257Y-8.7721
X16.2368Y-8.7721
X19.5757Y-8.0221
X19.9868Y-8.0221
X8.3257Y-5.7721
X8.7368Y-5.7721
X19.5757Y-5.7721
X19.9868Y-5.7721
X11.3257Y-6.5221
X11.7368Y-6.5221
X14.3257Y-6.5221
X14.7368Y-6.5221
X14.3257Y-9.5221
X14.7368Y-9.5221
X8.3257Y-9.5221
X8.7368Y-9.5221
X18.0757Y-7.2721
X18.4868Y-7.2721
X8.3257Y-7.2721
X8.7368Y-7.2721
X19.5757Y-7.2721
X19.9868Y-7.2721
X20.3257Y-7.2721
X20.7368Y-7.2721
X9.0757Y-8.7721
X9.4868Y-8.7721
X9.0757Y-7.2721
X9.4868Y-7.2721
X18.8257Y-8.7721
X19.2368Y-8.7721
X18.8257Y-8.0221
X19.2368Y-8.0221
X11.3257Y-5.7721
X11.7368Y-5.7721
X8.3257Y-6.5221
X8.7368Y-6.5221
X9.0757Y-5.7721
X9.4868Y-5.7721
X12.0757Y-6.5221
X12.4868Y-6.5221
X20.3257Y-9.5221
X20.7368Y-9.5221
X16.5757Y-9.5221
X16.9868Y-9.5221
X12.8257Y-7.2721
X13.2368Y-7.2721
X17.3257Y-9.5221
X17.7368Y-9.5221
X12.0757Y-7.2721
X12.4868Y-7.2721
X19.5757Y-6.5221
X19.9868Y-6.5221
X17.3257Y-7.2721
X17.7368Y-7.2721
X20.3257Y-8.0221
X20.7368Y-8.0221
X15.0757Y-8.0221
X15.4868Y-8.0221
X11.3257Y-8.7721
X11.7368Y-8.7721
X10.5757Y-7.2721
X10.9868Y-7.2721
X16.9507Y-8.7721
X17.3618Y-8.7721
X17.3257Y-5.7721
X17.7368Y-5.7721
X13.5757Y-6.5221
X13.9868Y-6.5221
X10.5757Y-5.7721
X10.9868Y-5.7721
X12.8257Y-5.7721
X13.2368Y-5.7721
X18.8257Y-9.5221
X19.2368Y-9.5221
X16.5757Y-7.2721
X16.9868Y-7.2721
X9.0757Y-9.5221
X9.4868Y-9.5221
X17.3257Y-6.5221
X17.7368Y-6.5221
X13.5757Y-7.2721
X13.9868Y-7.2721
X9.8257Y-8.0221
X10.2368Y-8.0221
X21.4466Y-7.607
X21.4466Y-8.018
X19.5757Y-8.7721
X19.9868Y-8.7721
X18.0757Y-8.7721
X18.4868Y-8.7721
X12.8257Y-6.5221
X13.2368Y-6.5221
T8
X11.3312Y-5.9375
X11.7312Y-5.9375
X8.3312Y-6.6875
X8.7312Y-6.6875
X9.0812Y-5.9375
X9.4812Y-5.9375
X12.0812Y-6.6875
X12.4812Y-6.6875
X20.3313Y-9.6875
X20.7312Y-9.6875
X16.5813Y-9.6875
X16.9812Y-9.6875
X12.8312Y-7.4375
X13.2312Y-7.4375
X17.3313Y-9.6875
X17.7312Y-9.6875
X12.0812Y-7.4375
X12.4812Y-7.4375
X19.5813Y-6.6875
X19.9812Y-6.6875
X17.3313Y-7.4375
X17.7312Y-7.4375
X20.3313Y-8.1875
X20.7312Y-8.1875
X15.0812Y-8.1875
X15.4812Y-8.1875
X11.3312Y-8.9375
X11.7312Y-8.9375
X10.5812Y-7.4375
X10.9812Y-7.4375
X16.9563Y-8.9375
X17.3562Y-8.9375
X17.3313Y-5.9375
X17.7312Y-5.9375
X13.5812Y-6.6875
X13.9812Y-6.6875
X10.5812Y-5.9375
X10.9812Y-5.9375
X12.8312Y-5.9375
X13.2312Y-5.9375
X18.8313Y-9.6875
X19.2312Y-9.6875
X16.5813Y-7.4375
X16.9812Y-7.4375
X9.0812Y-9.6875
X9.4812Y-9.6875
X17.3313Y-6.6875
X17.7312Y-6.6875
X13.5812Y-7.4375
X13.9812Y-7.4375
X9.8312Y-8.1875
X10.2312Y-8.1875
X21.2812Y-7.6125
X21.2812Y-8.0125
X19.5813Y-8.9375
X19.9812Y-8.9375
X18.0813Y-8.9375
X18.4812Y-8.9375
X12.8312Y-6.6875
X13.2312Y-6.6875
X9.831Y-5.9375
X10.231Y-5.9375
X14.3312Y-5.9375
X14.7312Y-5.9375
X15.0812Y-5.9375
X15.4812Y-5.9375
X15.8312Y-9.6875
X16.2312Y-9.6875
X10.9562Y-9.6875
X11.3562Y-9.6875
X8.3312Y-8.1875
X8.7312Y-8.1875
X9.8312Y-9.6875
X10.2312Y-9.6875
X18.0813Y-6.6875
X18.4812Y-6.6875
X15.8312Y-7.4375
X16.2312Y-7.4375
X11.3312Y-8.1875
X11.7312Y-8.1875
X13.5812Y-8.1875
X13.9812Y-8.1875
X10.5812Y-8.9375
X10.9812Y-8.9375
X12.0812Y-8.9375
X12.4812Y-8.9375
X15.8312Y-5.9375
X16.2312Y-5.9375
X15.8312Y-6.6875
X16.2312Y-6.6875
X16.5813Y-6.6875
X16.9812Y-6.6875
X16.5813Y-5.9375
X16.9812Y-5.9375
X9.8312Y-6.6875
X10.2312Y-6.6875
X18.0813Y-9.6875
X18.4812Y-9.6875
X15.0812Y-9.6875
X15.4812Y-9.6875
X16.5813Y-8.1875
X16.9812Y-8.1875
X19.5813Y-9.6875
X19.9812Y-9.6875
X21.0813Y-6.6875
X21.4812Y-6.6875
X18.8313Y-7.4375
X19.2312Y-7.4375
X12.0812Y-8.1875
X12.4812Y-8.1875
X13.5812Y-8.9375
X13.9812Y-8.9375
X14.3312Y-7.4375
X14.7312Y-7.4375
X9.8312Y-8.9375
X10.2312Y-8.9375
X17.7375Y-8.1875
X18.1375Y-8.1875
X9.0812Y-6.6875
X9.4812Y-6.6875
X10.5812Y-6.6875
X10.9812Y-6.6875
X12.0812Y-5.9375
X12.4812Y-5.9375
X18.8313Y-5.9375
X19.2312Y-5.9375
X21.2812Y-9.1125
X21.2812Y-9.5125
X20.3313Y-8.9375
X20.7312Y-8.9375
X14.3312Y-8.1875
X14.7312Y-8.1875
X9.0812Y-8.1875
X9.4812Y-8.1875
X9.8312Y-7.4375
X10.2312Y-7.4375
X11.3312Y-7.4375
X11.7312Y-7.4375
X8.3312Y-8.9375
X8.7312Y-8.9375
X18.8313Y-6.6875
X19.2312Y-6.6875
X14.3312Y-8.9375
X14.7312Y-8.9375
X12.8312Y-8.9375
X13.2312Y-8.9375
X13.5812Y-5.9375
X13.9812Y-5.9375
X15.0812Y-6.6875
X15.4812Y-6.6875
X20.3313Y-5.9375
X20.7312Y-5.9375
X13.2062Y-9.6875
X13.6062Y-9.6875
X15.8312Y-8.1875
X16.2312Y-8.1875
X10.5812Y-8.1875
X10.9812Y-8.1875
X12.8312Y-8.1875
X13.2312Y-8.1875
X15.0812Y-7.4375
X15.4812Y-7.4375
X15.0812Y-8.9375
X15.4812Y-8.9375
X20.3313Y-6.6875
X20.7312Y-6.6875
X15.8312Y-8.9375
X16.2312Y-8.9375
X19.5813Y-8.1875
X19.9812Y-8.1875
X8.3312Y-5.9375
X8.7312Y-5.9375
X19.5813Y-5.9375
X19.9812Y-5.9375
X11.3312Y-6.6875
X11.7312Y-6.6875
X14.3312Y-6.6875
X14.7312Y-6.6875
X14.3312Y-9.6875
X14.7312Y-9.6875
X8.3312Y-9.6875
X8.7312Y-9.6875
X18.0813Y-7.4375
X18.4812Y-7.4375
X8.3312Y-7.4375
X8.7312Y-7.4375
X19.5813Y-7.4375
X19.9812Y-7.4375
X20.3313Y-7.4375
X20.7312Y-7.4375
X9.0812Y-8.9375
X9.4812Y-8.9375
X9.0812Y-7.4375
X9.4812Y-7.4375
X18.8313Y-8.9375
X19.2312Y-8.9375
X18.8313Y-8.1875
X19.2312Y-8.1875
T9
X13.5647Y-5.9375
X13.9978Y-5.9375
X15.0647Y-6.6875
X15.4978Y-6.6875
X20.3147Y-5.9375
X20.7478Y-5.9375
X13.1897Y-9.6875
X13.6228Y-9.6875
X15.8147Y-8.1875
X16.2478Y-8.1875
X10.5647Y-8.1875
X10.9978Y-8.1875
X12.8147Y-8.1875
X13.2478Y-8.1875
X15.0647Y-7.4375
X15.4978Y-7.4375
X15.0647Y-8.9375
X15.4978Y-8.9375
X20.3147Y-6.6875
X20.7478Y-6.6875
X15.8147Y-8.9375
X16.2478Y-8.9375
X19.5647Y-8.1875
X19.9978Y-8.1875
X8.3147Y-5.9375
X8.7478Y-5.9375
X19.5647Y-5.9375
X19.9978Y-5.9375
X11.3147Y-6.6875
X11.7478Y-6.6875
X14.3147Y-6.6875
X14.7478Y-6.6875
X14.3147Y-9.6875
X14.7478Y-9.6875
X8.3147Y-9.6875
X8.7478Y-9.6875
X18.0647Y-7.4375
X18.4978Y-7.4375
X8.3147Y-7.4375
X8.7478Y-7.4375
X19.5647Y-7.4375
X19.9978Y-7.4375
X20.3147Y-7.4375
X20.7478Y-7.4375
X9.0647Y-8.9375
X9.4978Y-8.9375
X9.0647Y-7.4375
X9.4978Y-7.4375
X18.8147Y-8.9375
X19.2478Y-8.9375
X18.8147Y-8.1875
X19.2478Y-8.1875
X11.3147Y-5.9375
X11.7478Y-5.9375
X8.3147Y-6.6875
X8.7478Y-6.6875
X9.0647Y-5.9375
X9.4978Y-5.9375
X12.0647Y-6.6875
X12.4978Y-6.6875
X20.3147Y-9.6875
X20.7478Y-9.6875
X16.5647Y-9.6875
X16.9978Y-9.6875
X12.8147Y-7.4375
X13.2478Y-7.4375
X17.3147Y-9.6875
X17.7478Y-9.6875
X12.0647Y-7.4375
X12.4978Y-7.4375
X19.5647Y-6.6875
X19.9978Y-6.6875
X17.3147Y-7.4375
X17.7478Y-7.4375
X20.3147Y-8.1875
X20.7478Y-8.1875
X15.0647Y-8.1875
X15.4978Y-8.1875
X11.3147Y-8.9375
X11.7478Y-8.9375
X10.5647Y-7.4375
X10.9978Y-7.4375
X16.9397Y-8.9375
X17.3728Y-8.9375
X17.3147Y-5.9375
X17.7478Y-5.9375
X13.5647Y-6.6875
X13.9978Y-6.6875
X10.5647Y-5.9375
X10.9978Y-5.9375
X12.8147Y-5.9375
X13.2478Y-5.9375
X18.8147Y-9.6875
X19.2478Y-9.6875
X16.5647Y-7.4375
X16.9978Y-7.4375
X9.0647Y-9.6875
X9.4978Y-9.6875
X17.3147Y-6.6875
X17.7478Y-6.6875
X13.5647Y-7.4375
X13.9978Y-7.4375
X9.8147Y-8.1875
X10.2478Y-8.1875
X21.2812Y-7.596
X21.2812Y-8.029
X19.5647Y-8.9375
X19.9978Y-8.9375
X18.0647Y-8.9375
X18.4978Y-8.9375
X12.8147Y-6.6875
X13.2478Y-6.6875
X9.8145Y-5.9375
X10.2475Y-5.9375
X14.3147Y-5.9375
X14.7478Y-5.9375
X15.0647Y-5.9375
X15.4978Y-5.9375
X15.8147Y-9.6875
X16.2478Y-9.6875
X10.9397Y-9.6875
X11.3728Y-9.6875
X8.3147Y-8.1875
X8.7478Y-8.1875
X9.8147Y-9.6875
X10.2478Y-9.6875
X18.0647Y-6.6875
X18.4978Y-6.6875
X15.8147Y-7.4375
X16.2478Y-7.4375
X11.3147Y-8.1875
X11.7478Y-8.1875
X13.5647Y-8.1875
X13.9978Y-8.1875
X10.5647Y-8.9375
X10.9978Y-8.9375
X12.0647Y-8.9375
X12.4978Y-8.9375
X15.8147Y-5.9375
X16.2478Y-5.9375
X15.8147Y-6.6875
X16.2478Y-6.6875
X16.5647Y-6.6875
X16.9978Y-6.6875
X16.5647Y-5.9375
X16.9978Y-5.9375
X9.8147Y-6.6875
X10.2478Y-6.6875
X18.0647Y-9.6875
X18.4978Y-9.6875
X15.0647Y-9.6875
X15.4978Y-9.6875
X16.5647Y-8.1875
X16.9978Y-8.1875
X19.5647Y-9.6875
X19.9978Y-9.6875
X21.0647Y-6.6875
X21.4978Y-6.6875
X18.8147Y-7.4375
X19.2478Y-7.4375
X12.0647Y-8.1875
X12.4978Y-8.1875
X13.5647Y-8.9375
X13.9978Y-8.9375
X14.3147Y-7.4375
X14.7478Y-7.4375
X9.8147Y-8.9375
X10.2478Y-8.9375
X17.721Y-8.1875
X18.154Y-8.1875
X9.0647Y-6.6875
X9.4978Y-6.6875
X10.5647Y-6.6875
X10.9978Y-6.6875
X12.0647Y-5.9375
X12.4978Y-5.9375
X18.8147Y-5.9375
X19.2478Y-5.9375
X21.2812Y-9.096
X21.2812Y-9.529
X20.3147Y-8.9375
X20.7478Y-8.9375
X14.3147Y-8.1875
X14.7478Y-8.1875
X9.0647Y-8.1875
X9.4978Y-8.1875
X9.8147Y-7.4375
X10.2478Y-7.4375
X11.3147Y-7.4375
X11.7478Y-7.4375
X8.3147Y-8.9375
X8.7478Y-8.9375
X18.8147Y-6.6875
X19.2478Y-6.6875
X14.3147Y-8.9375
X14.7478Y-8.9375
X12.8147Y-8.9375
X13.2478Y-8.9375
T10
X16.0312Y-7.4375
X11.5312Y-8.1875
X13.7812Y-8.1875
X10.7812Y-8.9375
X12.2812Y-8.9375
X16.0312Y-5.9375
X16.0312Y-6.6875
X16.7812Y-6.6875
X16.7812Y-5.9375
X10.0312Y-6.6875
X18.2812Y-9.6875
X15.2812Y-9.6875
X16.7812Y-8.1875
X19.7812Y-9.6875
X21.2812Y-6.6875
X19.0312Y-7.4375
X12.2812Y-8.1875
X13.7812Y-8.9375
X14.5312Y-7.4375
X10.0312Y-8.9375
X17.9375Y-8.1875
X9.2812Y-6.6875
X10.7812Y-6.6875
X12.2812Y-5.9375
X19.0312Y-5.9375
X21.2812Y-9.3125
X20.5312Y-8.9375
X14.5312Y-8.1875
X9.2812Y-8.1875
X10.0312Y-7.4375
X11.5312Y-7.4375
X8.5312Y-8.9375
X19.0312Y-6.6875
X14.5312Y-8.9375
X13.0312Y-8.9375
X13.7812Y-5.9375
X15.2812Y-6.6875
X20.5312Y-5.9375
X13.4062Y-9.6875
X16.0312Y-8.1875
X10.7812Y-8.1875
X13.0312Y-8.1875
X15.2812Y-7.4375
X15.2812Y-8.9375
X20.5312Y-6.6875
X16.0312Y-8.9375
X19.7812Y-8.1875
X8.5312Y-5.9375
X19.7812Y-5.9375
X11.5312Y-6.6875
X14.5312Y-6.6875
X14.5312Y-9.6875
X8.5312Y-9.6875
X18.2812Y-7.4375
X8.5312Y-7.4375
X19.7812Y-7.4375
X20.5312Y-7.4375
X9.2812Y-8.9375
X9.2812Y-7.4375
X19.0312Y-8.9375
X19.0312Y-8.1875
X11.5312Y-5.9375
X8.5312Y-6.6875
X9.2812Y-5.9375
X12.2812Y-6.6875
X20.5312Y-9.6875
X16.7812Y-9.6875
X13.0312Y-7.4375
X17.5312Y-9.6875
X12.2812Y-7.4375
X19.7812Y-6.6875
X17.5312Y-7.4375
X20.5312Y-8.1875
X15.2812Y-8.1875
X11.5312Y-8.9375
X10.7812Y-7.4375
X17.1562Y-8.9375
X17.5312Y-5.9375
X13.7812Y-6.6875
X10.7812Y-5.9375
X13.0312Y-5.9375
X19.0312Y-9.6875
X16.7812Y-7.4375
X9.2812Y-9.6875
X17.5312Y-6.6875
X13.7812Y-7.4375
X10.0312Y-8.1875
X21.2812Y-7.8125
X19.7812Y-8.9375
X18.2812Y-8.9375
X13.0312Y-6.6875
X10.031Y-5.9375
X14.5312Y-5.9375
X15.2812Y-5.9375
X16.0312Y-9.6875
X11.1562Y-9.6875
X8.5312Y-8.1875
X10.0312Y-9.6875
X18.2812Y-6.6875
T6
G00X21.0608Y-5.9631
M15
G01X21.0608Y-5.9119
M16
G05
G00X21.5017Y-5.9631
M15
G01X21.5017Y-5.9119
M16
G05
G00X12.0608Y-9.6619
M15
G01X12.0608Y-9.7131
M16
G05
G00X12.5017Y-9.6619
M15
G01X12.5017Y-9.7131
M16
G05
T0
M30
