%TF.GenerationSoftware,KiCad,Pcbnew,(5.1.6)-1*%
%TF.CreationDate,2021-03-17T18:03:01-05:00*%
%TF.ProjectId,ThreeToOne,54687265-6554-46f4-9f6e-652e6b696361,rev?*%
%TF.SameCoordinates,Original*%
%TF.FileFunction,Legend,Bot*%
%TF.FilePolarity,Positive*%
%FSLAX46Y46*%
G04 Gerber Fmt 4.6, Leading zero omitted, Abs format (unit mm)*
G04 Created by KiCad (PCBNEW (5.1.6)-1) date 2021-03-17 18:03:01*
%MOMM*%
%LPD*%
G01*
G04 APERTURE LIST*
%ADD10C,0.150000*%
%ADD11C,0.100000*%
%ADD12C,0.300000*%
%ADD13C,0.381000*%
G04 APERTURE END LIST*
D10*
%TO.C,R1*%
X471455750Y-152844500D02*
X469931750Y-152844500D01*
X471455750Y-148780500D02*
X471455750Y-152844500D01*
X469931750Y-152844500D02*
X469931750Y-148780500D01*
X469931750Y-148780500D02*
X471455750Y-148780500D01*
%TO.C,R0*%
X458755750Y-153003250D02*
X457231750Y-153003250D01*
X458755750Y-148939250D02*
X458755750Y-153003250D01*
X457231750Y-153003250D02*
X457231750Y-148939250D01*
X457231750Y-148939250D02*
X458755750Y-148939250D01*
%TO.C,LED1*%
X468280750Y-152844500D02*
X466756750Y-152844500D01*
X468280750Y-148780500D02*
X468280750Y-152844500D01*
D11*
G36*
X466756750Y-152082500D02*
G01*
X468280750Y-152082500D01*
X468280750Y-152336500D01*
X466756750Y-152336500D01*
X466756750Y-152082500D01*
G37*
X466756750Y-152082500D02*
X468280750Y-152082500D01*
X468280750Y-152336500D01*
X466756750Y-152336500D01*
X466756750Y-152082500D01*
D10*
X466756750Y-152844500D02*
X466756750Y-148780500D01*
X466756750Y-148780500D02*
X468280750Y-148780500D01*
%TO.C,LED0*%
X461930750Y-153003250D02*
X460406750Y-153003250D01*
X461930750Y-148939250D02*
X461930750Y-153003250D01*
D11*
G36*
X460406750Y-152241250D02*
G01*
X461930750Y-152241250D01*
X461930750Y-152495250D01*
X460406750Y-152495250D01*
X460406750Y-152241250D01*
G37*
X460406750Y-152241250D02*
X461930750Y-152241250D01*
X461930750Y-152495250D01*
X460406750Y-152495250D01*
X460406750Y-152241250D01*
D10*
X460406750Y-153003250D02*
X460406750Y-148939250D01*
X460406750Y-148939250D02*
X461930750Y-148939250D01*
D12*
%TO.C,SW4*%
X267493750Y-144462500D02*
X268763750Y-144462500D01*
X280193750Y-145732500D02*
X280193750Y-144462500D01*
X267493750Y-157162500D02*
X268763750Y-157162500D01*
X267493750Y-145732500D02*
X267493750Y-144462500D01*
X267493750Y-155892500D02*
X267493750Y-157162500D01*
X278923750Y-157162500D02*
X280193750Y-157162500D01*
X280193750Y-157162500D02*
X280193750Y-155892500D01*
X280193750Y-144462500D02*
X278923750Y-144462500D01*
%TO.C,SW7*%
X324643750Y-144462500D02*
X325913750Y-144462500D01*
X337343750Y-145732500D02*
X337343750Y-144462500D01*
X324643750Y-157162500D02*
X325913750Y-157162500D01*
X324643750Y-145732500D02*
X324643750Y-144462500D01*
X324643750Y-155892500D02*
X324643750Y-157162500D01*
X336073750Y-157162500D02*
X337343750Y-157162500D01*
X337343750Y-157162500D02*
X337343750Y-155892500D01*
X337343750Y-144462500D02*
X336073750Y-144462500D01*
%TO.C,SW6*%
X305593750Y-144462500D02*
X306863750Y-144462500D01*
X318293750Y-145732500D02*
X318293750Y-144462500D01*
X305593750Y-157162500D02*
X306863750Y-157162500D01*
X305593750Y-145732500D02*
X305593750Y-144462500D01*
X305593750Y-155892500D02*
X305593750Y-157162500D01*
X317023750Y-157162500D02*
X318293750Y-157162500D01*
X318293750Y-157162500D02*
X318293750Y-155892500D01*
X318293750Y-144462500D02*
X317023750Y-144462500D01*
D13*
%TO.C,U2*%
X451643750Y-138112500D02*
X451643750Y-140652500D01*
X449103750Y-138112500D02*
X451643750Y-138112500D01*
D10*
G36*
X455392780Y-125717865D02*
G01*
X455492780Y-125717865D01*
X455492780Y-125617865D01*
X455392780Y-125617865D01*
X455392780Y-125717865D01*
G37*
X455392780Y-125717865D02*
X455492780Y-125717865D01*
X455492780Y-125617865D01*
X455392780Y-125617865D01*
X455392780Y-125717865D01*
G36*
X454992780Y-125517865D02*
G01*
X455792780Y-125517865D01*
X455792780Y-125417865D01*
X454992780Y-125417865D01*
X454992780Y-125517865D01*
G37*
X454992780Y-125517865D02*
X455792780Y-125517865D01*
X455792780Y-125417865D01*
X454992780Y-125417865D01*
X454992780Y-125517865D01*
G36*
X455592780Y-125917865D02*
G01*
X455792780Y-125917865D01*
X455792780Y-125817865D01*
X455592780Y-125817865D01*
X455592780Y-125917865D01*
G37*
X455592780Y-125917865D02*
X455792780Y-125917865D01*
X455792780Y-125817865D01*
X455592780Y-125817865D01*
X455592780Y-125917865D01*
G36*
X454992780Y-125917865D02*
G01*
X455292780Y-125917865D01*
X455292780Y-125817865D01*
X454992780Y-125817865D01*
X454992780Y-125917865D01*
G37*
X454992780Y-125917865D02*
X455292780Y-125917865D01*
X455292780Y-125817865D01*
X454992780Y-125817865D01*
X454992780Y-125917865D01*
G36*
X454992780Y-125917865D02*
G01*
X455092780Y-125917865D01*
X455092780Y-125417865D01*
X454992780Y-125417865D01*
X454992780Y-125917865D01*
G37*
X454992780Y-125917865D02*
X455092780Y-125917865D01*
X455092780Y-125417865D01*
X454992780Y-125417865D01*
X454992780Y-125917865D01*
D13*
X479583750Y-122872500D02*
X446563750Y-122872500D01*
X479583750Y-140652500D02*
X479583750Y-122872500D01*
X446563750Y-140652500D02*
X479583750Y-140652500D01*
X446563750Y-122872500D02*
X446563750Y-140652500D01*
X449103750Y-138112500D02*
X449103750Y-140652500D01*
%TO.C,U1*%
X305593750Y-125412500D02*
X305593750Y-122872500D01*
X308133750Y-125412500D02*
X305593750Y-125412500D01*
D10*
G36*
X301844720Y-137807135D02*
G01*
X301744720Y-137807135D01*
X301744720Y-137907135D01*
X301844720Y-137907135D01*
X301844720Y-137807135D01*
G37*
X301844720Y-137807135D02*
X301744720Y-137807135D01*
X301744720Y-137907135D01*
X301844720Y-137907135D01*
X301844720Y-137807135D01*
G36*
X302244720Y-138007135D02*
G01*
X301444720Y-138007135D01*
X301444720Y-138107135D01*
X302244720Y-138107135D01*
X302244720Y-138007135D01*
G37*
X302244720Y-138007135D02*
X301444720Y-138007135D01*
X301444720Y-138107135D01*
X302244720Y-138107135D01*
X302244720Y-138007135D01*
G36*
X301644720Y-137607135D02*
G01*
X301444720Y-137607135D01*
X301444720Y-137707135D01*
X301644720Y-137707135D01*
X301644720Y-137607135D01*
G37*
X301644720Y-137607135D02*
X301444720Y-137607135D01*
X301444720Y-137707135D01*
X301644720Y-137707135D01*
X301644720Y-137607135D01*
G36*
X302244720Y-137607135D02*
G01*
X301944720Y-137607135D01*
X301944720Y-137707135D01*
X302244720Y-137707135D01*
X302244720Y-137607135D01*
G37*
X302244720Y-137607135D02*
X301944720Y-137607135D01*
X301944720Y-137707135D01*
X302244720Y-137707135D01*
X302244720Y-137607135D01*
G36*
X302244720Y-137607135D02*
G01*
X302144720Y-137607135D01*
X302144720Y-138107135D01*
X302244720Y-138107135D01*
X302244720Y-137607135D01*
G37*
X302244720Y-137607135D02*
X302144720Y-137607135D01*
X302144720Y-138107135D01*
X302244720Y-138107135D01*
X302244720Y-137607135D01*
D13*
X277653750Y-140652500D02*
X310673750Y-140652500D01*
X277653750Y-122872500D02*
X277653750Y-140652500D01*
X310673750Y-122872500D02*
X277653750Y-122872500D01*
X310673750Y-140652500D02*
X310673750Y-122872500D01*
X308133750Y-125412500D02*
X308133750Y-122872500D01*
D12*
%TO.C,SW69*%
X515143750Y-201612500D02*
X516413750Y-201612500D01*
X527843750Y-202882500D02*
X527843750Y-201612500D01*
X515143750Y-214312500D02*
X516413750Y-214312500D01*
X515143750Y-202882500D02*
X515143750Y-201612500D01*
X515143750Y-213042500D02*
X515143750Y-214312500D01*
X526573750Y-214312500D02*
X527843750Y-214312500D01*
X527843750Y-214312500D02*
X527843750Y-213042500D01*
X527843750Y-201612500D02*
X526573750Y-201612500D01*
D10*
%TO.C,D101*%
X513524500Y-252063250D02*
X512000500Y-252063250D01*
X513524500Y-247999250D02*
X513524500Y-252063250D01*
D11*
G36*
X512000500Y-251301250D02*
G01*
X513524500Y-251301250D01*
X513524500Y-251555250D01*
X512000500Y-251555250D01*
X512000500Y-251301250D01*
G37*
X512000500Y-251301250D02*
X513524500Y-251301250D01*
X513524500Y-251555250D01*
X512000500Y-251555250D01*
X512000500Y-251301250D01*
D10*
X512000500Y-252063250D02*
X512000500Y-247999250D01*
X512000500Y-247999250D02*
X513524500Y-247999250D01*
%TO.C,D100*%
X494474500Y-252063250D02*
X492950500Y-252063250D01*
X494474500Y-247999250D02*
X494474500Y-252063250D01*
D11*
G36*
X492950500Y-251301250D02*
G01*
X494474500Y-251301250D01*
X494474500Y-251555250D01*
X492950500Y-251555250D01*
X492950500Y-251301250D01*
G37*
X492950500Y-251301250D02*
X494474500Y-251301250D01*
X494474500Y-251555250D01*
X492950500Y-251555250D01*
X492950500Y-251301250D01*
D10*
X492950500Y-252063250D02*
X492950500Y-247999250D01*
X492950500Y-247999250D02*
X494474500Y-247999250D01*
%TO.C,D99*%
X475424500Y-252063250D02*
X473900500Y-252063250D01*
X475424500Y-247999250D02*
X475424500Y-252063250D01*
D11*
G36*
X473900500Y-251301250D02*
G01*
X475424500Y-251301250D01*
X475424500Y-251555250D01*
X473900500Y-251555250D01*
X473900500Y-251301250D01*
G37*
X473900500Y-251301250D02*
X475424500Y-251301250D01*
X475424500Y-251555250D01*
X473900500Y-251555250D01*
X473900500Y-251301250D01*
D10*
X473900500Y-252063250D02*
X473900500Y-247999250D01*
X473900500Y-247999250D02*
X475424500Y-247999250D01*
%TO.C,D98*%
X456374500Y-252063250D02*
X454850500Y-252063250D01*
X456374500Y-247999250D02*
X456374500Y-252063250D01*
D11*
G36*
X454850500Y-251301250D02*
G01*
X456374500Y-251301250D01*
X456374500Y-251555250D01*
X454850500Y-251555250D01*
X454850500Y-251301250D01*
G37*
X454850500Y-251301250D02*
X456374500Y-251301250D01*
X456374500Y-251555250D01*
X454850500Y-251555250D01*
X454850500Y-251301250D01*
D10*
X454850500Y-252063250D02*
X454850500Y-247999250D01*
X454850500Y-247999250D02*
X456374500Y-247999250D01*
%TO.C,D97*%
X437324500Y-252063250D02*
X435800500Y-252063250D01*
X437324500Y-247999250D02*
X437324500Y-252063250D01*
D11*
G36*
X435800500Y-251301250D02*
G01*
X437324500Y-251301250D01*
X437324500Y-251555250D01*
X435800500Y-251555250D01*
X435800500Y-251301250D01*
G37*
X435800500Y-251301250D02*
X437324500Y-251301250D01*
X437324500Y-251555250D01*
X435800500Y-251555250D01*
X435800500Y-251301250D01*
D10*
X435800500Y-252063250D02*
X435800500Y-247999250D01*
X435800500Y-247999250D02*
X437324500Y-247999250D01*
%TO.C,D96*%
X418274500Y-252063250D02*
X416750500Y-252063250D01*
X418274500Y-247999250D02*
X418274500Y-252063250D01*
D11*
G36*
X416750500Y-251301250D02*
G01*
X418274500Y-251301250D01*
X418274500Y-251555250D01*
X416750500Y-251555250D01*
X416750500Y-251301250D01*
G37*
X416750500Y-251301250D02*
X418274500Y-251301250D01*
X418274500Y-251555250D01*
X416750500Y-251555250D01*
X416750500Y-251301250D01*
D10*
X416750500Y-252063250D02*
X416750500Y-247999250D01*
X416750500Y-247999250D02*
X418274500Y-247999250D01*
%TO.C,D95*%
X399224500Y-252063250D02*
X397700500Y-252063250D01*
X399224500Y-247999250D02*
X399224500Y-252063250D01*
D11*
G36*
X397700500Y-251301250D02*
G01*
X399224500Y-251301250D01*
X399224500Y-251555250D01*
X397700500Y-251555250D01*
X397700500Y-251301250D01*
G37*
X397700500Y-251301250D02*
X399224500Y-251301250D01*
X399224500Y-251555250D01*
X397700500Y-251555250D01*
X397700500Y-251301250D01*
D10*
X397700500Y-252063250D02*
X397700500Y-247999250D01*
X397700500Y-247999250D02*
X399224500Y-247999250D01*
%TO.C,D94*%
X380174500Y-252063250D02*
X378650500Y-252063250D01*
X380174500Y-247999250D02*
X380174500Y-252063250D01*
D11*
G36*
X378650500Y-251301250D02*
G01*
X380174500Y-251301250D01*
X380174500Y-251555250D01*
X378650500Y-251555250D01*
X378650500Y-251301250D01*
G37*
X378650500Y-251301250D02*
X380174500Y-251301250D01*
X380174500Y-251555250D01*
X378650500Y-251555250D01*
X378650500Y-251301250D01*
D10*
X378650500Y-252063250D02*
X378650500Y-247999250D01*
X378650500Y-247999250D02*
X380174500Y-247999250D01*
%TO.C,D93*%
X361124500Y-252063250D02*
X359600500Y-252063250D01*
X361124500Y-247999250D02*
X361124500Y-252063250D01*
D11*
G36*
X359600500Y-251301250D02*
G01*
X361124500Y-251301250D01*
X361124500Y-251555250D01*
X359600500Y-251555250D01*
X359600500Y-251301250D01*
G37*
X359600500Y-251301250D02*
X361124500Y-251301250D01*
X361124500Y-251555250D01*
X359600500Y-251555250D01*
X359600500Y-251301250D01*
D10*
X359600500Y-252063250D02*
X359600500Y-247999250D01*
X359600500Y-247999250D02*
X361124500Y-247999250D01*
%TO.C,D92*%
X332549500Y-252063250D02*
X331025500Y-252063250D01*
X332549500Y-247999250D02*
X332549500Y-252063250D01*
D11*
G36*
X331025500Y-251301250D02*
G01*
X332549500Y-251301250D01*
X332549500Y-251555250D01*
X331025500Y-251555250D01*
X331025500Y-251301250D01*
G37*
X331025500Y-251301250D02*
X332549500Y-251301250D01*
X332549500Y-251555250D01*
X331025500Y-251555250D01*
X331025500Y-251301250D01*
D10*
X331025500Y-252063250D02*
X331025500Y-247999250D01*
X331025500Y-247999250D02*
X332549500Y-247999250D01*
%TO.C,D91*%
X300799500Y-248094500D02*
X299275500Y-248094500D01*
X300799500Y-244030500D02*
X300799500Y-248094500D01*
D11*
G36*
X299275500Y-247332500D02*
G01*
X300799500Y-247332500D01*
X300799500Y-247586500D01*
X299275500Y-247586500D01*
X299275500Y-247332500D01*
G37*
X299275500Y-247332500D02*
X300799500Y-247332500D01*
X300799500Y-247586500D01*
X299275500Y-247586500D01*
X299275500Y-247332500D01*
D10*
X299275500Y-248094500D02*
X299275500Y-244030500D01*
X299275500Y-244030500D02*
X300799500Y-244030500D01*
%TO.C,D90*%
X275399500Y-252063250D02*
X273875500Y-252063250D01*
X275399500Y-247999250D02*
X275399500Y-252063250D01*
D11*
G36*
X273875500Y-251301250D02*
G01*
X275399500Y-251301250D01*
X275399500Y-251555250D01*
X273875500Y-251555250D01*
X273875500Y-251301250D01*
G37*
X273875500Y-251301250D02*
X275399500Y-251301250D01*
X275399500Y-251555250D01*
X273875500Y-251555250D01*
X273875500Y-251301250D01*
D10*
X273875500Y-252063250D02*
X273875500Y-247999250D01*
X273875500Y-247999250D02*
X275399500Y-247999250D01*
%TO.C,D89*%
X265080750Y-251904500D02*
X263556750Y-251904500D01*
X265080750Y-247840500D02*
X265080750Y-251904500D01*
D11*
G36*
X263556750Y-251142500D02*
G01*
X265080750Y-251142500D01*
X265080750Y-251396500D01*
X263556750Y-251396500D01*
X263556750Y-251142500D01*
G37*
X263556750Y-251142500D02*
X265080750Y-251142500D01*
X265080750Y-251396500D01*
X263556750Y-251396500D01*
X263556750Y-251142500D01*
D10*
X263556750Y-251904500D02*
X263556750Y-247840500D01*
X263556750Y-247840500D02*
X265080750Y-247840500D01*
%TO.C,D88*%
X245237000Y-252063250D02*
X243713000Y-252063250D01*
X245237000Y-247999250D02*
X245237000Y-252063250D01*
D11*
G36*
X243713000Y-251301250D02*
G01*
X245237000Y-251301250D01*
X245237000Y-251555250D01*
X243713000Y-251555250D01*
X243713000Y-251301250D01*
G37*
X243713000Y-251301250D02*
X245237000Y-251301250D01*
X245237000Y-251555250D01*
X243713000Y-251555250D01*
X243713000Y-251301250D01*
D10*
X243713000Y-252063250D02*
X243713000Y-247999250D01*
X243713000Y-247999250D02*
X245237000Y-247999250D01*
%TO.C,D87*%
X226187000Y-252063250D02*
X224663000Y-252063250D01*
X226187000Y-247999250D02*
X226187000Y-252063250D01*
D11*
G36*
X224663000Y-251301250D02*
G01*
X226187000Y-251301250D01*
X226187000Y-251555250D01*
X224663000Y-251555250D01*
X224663000Y-251301250D01*
G37*
X224663000Y-251301250D02*
X226187000Y-251301250D01*
X226187000Y-251555250D01*
X224663000Y-251555250D01*
X224663000Y-251301250D01*
D10*
X224663000Y-252063250D02*
X224663000Y-247999250D01*
X224663000Y-247999250D02*
X226187000Y-247999250D01*
%TO.C,D86*%
X538511750Y-246030750D02*
X538511750Y-244506750D01*
X542575750Y-246030750D02*
X538511750Y-246030750D01*
D11*
G36*
X539273750Y-244506750D02*
G01*
X539273750Y-246030750D01*
X539019750Y-246030750D01*
X539019750Y-244506750D01*
X539273750Y-244506750D01*
G37*
X539273750Y-244506750D02*
X539273750Y-246030750D01*
X539019750Y-246030750D01*
X539019750Y-244506750D01*
X539273750Y-244506750D01*
D10*
X538511750Y-244506750D02*
X542575750Y-244506750D01*
X542575750Y-244506750D02*
X542575750Y-246030750D01*
%TO.C,D85*%
X519461750Y-236505750D02*
X519461750Y-234981750D01*
X523525750Y-236505750D02*
X519461750Y-236505750D01*
D11*
G36*
X520223750Y-234981750D02*
G01*
X520223750Y-236505750D01*
X519969750Y-236505750D01*
X519969750Y-234981750D01*
X520223750Y-234981750D01*
G37*
X520223750Y-234981750D02*
X520223750Y-236505750D01*
X519969750Y-236505750D01*
X519969750Y-234981750D01*
X520223750Y-234981750D01*
D10*
X519461750Y-234981750D02*
X523525750Y-234981750D01*
X523525750Y-234981750D02*
X523525750Y-236505750D01*
%TO.C,D84*%
X500411750Y-236505750D02*
X500411750Y-234981750D01*
X504475750Y-236505750D02*
X500411750Y-236505750D01*
D11*
G36*
X501173750Y-234981750D02*
G01*
X501173750Y-236505750D01*
X500919750Y-236505750D01*
X500919750Y-234981750D01*
X501173750Y-234981750D01*
G37*
X501173750Y-234981750D02*
X501173750Y-236505750D01*
X500919750Y-236505750D01*
X500919750Y-234981750D01*
X501173750Y-234981750D01*
D10*
X500411750Y-234981750D02*
X504475750Y-234981750D01*
X504475750Y-234981750D02*
X504475750Y-236505750D01*
%TO.C,D83*%
X481361750Y-236505750D02*
X481361750Y-234981750D01*
X485425750Y-236505750D02*
X481361750Y-236505750D01*
D11*
G36*
X482123750Y-234981750D02*
G01*
X482123750Y-236505750D01*
X481869750Y-236505750D01*
X481869750Y-234981750D01*
X482123750Y-234981750D01*
G37*
X482123750Y-234981750D02*
X482123750Y-236505750D01*
X481869750Y-236505750D01*
X481869750Y-234981750D01*
X482123750Y-234981750D01*
D10*
X481361750Y-234981750D02*
X485425750Y-234981750D01*
X485425750Y-234981750D02*
X485425750Y-236505750D01*
%TO.C,D82*%
X462311750Y-236505750D02*
X462311750Y-234981750D01*
X466375750Y-236505750D02*
X462311750Y-236505750D01*
D11*
G36*
X463073750Y-234981750D02*
G01*
X463073750Y-236505750D01*
X462819750Y-236505750D01*
X462819750Y-234981750D01*
X463073750Y-234981750D01*
G37*
X463073750Y-234981750D02*
X463073750Y-236505750D01*
X462819750Y-236505750D01*
X462819750Y-234981750D01*
X463073750Y-234981750D01*
D10*
X462311750Y-234981750D02*
X466375750Y-234981750D01*
X466375750Y-234981750D02*
X466375750Y-236505750D01*
%TO.C,D81*%
X433736750Y-236505750D02*
X433736750Y-234981750D01*
X437800750Y-236505750D02*
X433736750Y-236505750D01*
D11*
G36*
X434498750Y-234981750D02*
G01*
X434498750Y-236505750D01*
X434244750Y-236505750D01*
X434244750Y-234981750D01*
X434498750Y-234981750D01*
G37*
X434498750Y-234981750D02*
X434498750Y-236505750D01*
X434244750Y-236505750D01*
X434244750Y-234981750D01*
X434498750Y-234981750D01*
D10*
X433736750Y-234981750D02*
X437800750Y-234981750D01*
X437800750Y-234981750D02*
X437800750Y-236505750D01*
%TO.C,D80*%
X405161750Y-236505750D02*
X405161750Y-234981750D01*
X409225750Y-236505750D02*
X405161750Y-236505750D01*
D11*
G36*
X405923750Y-234981750D02*
G01*
X405923750Y-236505750D01*
X405669750Y-236505750D01*
X405669750Y-234981750D01*
X405923750Y-234981750D01*
G37*
X405923750Y-234981750D02*
X405923750Y-236505750D01*
X405669750Y-236505750D01*
X405669750Y-234981750D01*
X405923750Y-234981750D01*
D10*
X405161750Y-234981750D02*
X409225750Y-234981750D01*
X409225750Y-234981750D02*
X409225750Y-236505750D01*
%TO.C,D79*%
X385953000Y-236505750D02*
X385953000Y-234981750D01*
X390017000Y-236505750D02*
X385953000Y-236505750D01*
D11*
G36*
X386715000Y-234981750D02*
G01*
X386715000Y-236505750D01*
X386461000Y-236505750D01*
X386461000Y-234981750D01*
X386715000Y-234981750D01*
G37*
X386715000Y-234981750D02*
X386715000Y-236505750D01*
X386461000Y-236505750D01*
X386461000Y-234981750D01*
X386715000Y-234981750D01*
D10*
X385953000Y-234981750D02*
X390017000Y-234981750D01*
X390017000Y-234981750D02*
X390017000Y-236505750D01*
%TO.C,D78*%
X371125750Y-234981750D02*
X371125750Y-236505750D01*
X367061750Y-234981750D02*
X371125750Y-234981750D01*
D11*
G36*
X370363750Y-236505750D02*
G01*
X370363750Y-234981750D01*
X370617750Y-234981750D01*
X370617750Y-236505750D01*
X370363750Y-236505750D01*
G37*
X370363750Y-236505750D02*
X370363750Y-234981750D01*
X370617750Y-234981750D01*
X370617750Y-236505750D01*
X370363750Y-236505750D01*
D10*
X371125750Y-236505750D02*
X367061750Y-236505750D01*
X367061750Y-236505750D02*
X367061750Y-234981750D01*
%TO.C,D77*%
X352075750Y-234981750D02*
X352075750Y-236505750D01*
X348011750Y-234981750D02*
X352075750Y-234981750D01*
D11*
G36*
X351313750Y-236505750D02*
G01*
X351313750Y-234981750D01*
X351567750Y-234981750D01*
X351567750Y-236505750D01*
X351313750Y-236505750D01*
G37*
X351313750Y-236505750D02*
X351313750Y-234981750D01*
X351567750Y-234981750D01*
X351567750Y-236505750D01*
X351313750Y-236505750D01*
D10*
X352075750Y-236505750D02*
X348011750Y-236505750D01*
X348011750Y-236505750D02*
X348011750Y-234981750D01*
%TO.C,D76*%
X333025750Y-234981750D02*
X333025750Y-236505750D01*
X328961750Y-234981750D02*
X333025750Y-234981750D01*
D11*
G36*
X332263750Y-236505750D02*
G01*
X332263750Y-234981750D01*
X332517750Y-234981750D01*
X332517750Y-236505750D01*
X332263750Y-236505750D01*
G37*
X332263750Y-236505750D02*
X332263750Y-234981750D01*
X332517750Y-234981750D01*
X332517750Y-236505750D01*
X332263750Y-236505750D01*
D10*
X333025750Y-236505750D02*
X328961750Y-236505750D01*
X328961750Y-236505750D02*
X328961750Y-234981750D01*
%TO.C,D75*%
X303974500Y-233013250D02*
X302450500Y-233013250D01*
X303974500Y-228949250D02*
X303974500Y-233013250D01*
D11*
G36*
X302450500Y-232251250D02*
G01*
X303974500Y-232251250D01*
X303974500Y-232505250D01*
X302450500Y-232505250D01*
X302450500Y-232251250D01*
G37*
X302450500Y-232251250D02*
X303974500Y-232251250D01*
X303974500Y-232505250D01*
X302450500Y-232505250D01*
X302450500Y-232251250D01*
D10*
X302450500Y-233013250D02*
X302450500Y-228949250D01*
X302450500Y-228949250D02*
X303974500Y-228949250D01*
%TO.C,D74*%
X294925750Y-234981750D02*
X294925750Y-236505750D01*
X290861750Y-234981750D02*
X294925750Y-234981750D01*
D11*
G36*
X294163750Y-236505750D02*
G01*
X294163750Y-234981750D01*
X294417750Y-234981750D01*
X294417750Y-236505750D01*
X294163750Y-236505750D01*
G37*
X294163750Y-236505750D02*
X294163750Y-234981750D01*
X294417750Y-234981750D01*
X294417750Y-236505750D01*
X294163750Y-236505750D01*
D10*
X294925750Y-236505750D02*
X290861750Y-236505750D01*
X290861750Y-236505750D02*
X290861750Y-234981750D01*
%TO.C,D73*%
X275875750Y-234981750D02*
X275875750Y-236505750D01*
X271811750Y-234981750D02*
X275875750Y-234981750D01*
D11*
G36*
X275113750Y-236505750D02*
G01*
X275113750Y-234981750D01*
X275367750Y-234981750D01*
X275367750Y-236505750D01*
X275113750Y-236505750D01*
G37*
X275113750Y-236505750D02*
X275113750Y-234981750D01*
X275367750Y-234981750D01*
X275367750Y-236505750D01*
X275113750Y-236505750D01*
D10*
X275875750Y-236505750D02*
X271811750Y-236505750D01*
X271811750Y-236505750D02*
X271811750Y-234981750D01*
%TO.C,D72*%
X256825750Y-234981750D02*
X256825750Y-236505750D01*
X252761750Y-234981750D02*
X256825750Y-234981750D01*
D11*
G36*
X256063750Y-236505750D02*
G01*
X256063750Y-234981750D01*
X256317750Y-234981750D01*
X256317750Y-236505750D01*
X256063750Y-236505750D01*
G37*
X256063750Y-236505750D02*
X256063750Y-234981750D01*
X256317750Y-234981750D01*
X256317750Y-236505750D01*
X256063750Y-236505750D01*
D10*
X256825750Y-236505750D02*
X252761750Y-236505750D01*
X252761750Y-236505750D02*
X252761750Y-234981750D01*
%TO.C,D71*%
X237775750Y-234981750D02*
X237775750Y-236505750D01*
X233711750Y-234981750D02*
X237775750Y-234981750D01*
D11*
G36*
X237013750Y-236505750D02*
G01*
X237013750Y-234981750D01*
X237267750Y-234981750D01*
X237267750Y-236505750D01*
X237013750Y-236505750D01*
G37*
X237013750Y-236505750D02*
X237013750Y-234981750D01*
X237267750Y-234981750D01*
X237267750Y-236505750D01*
X237013750Y-236505750D01*
D10*
X237775750Y-236505750D02*
X233711750Y-236505750D01*
X233711750Y-236505750D02*
X233711750Y-234981750D01*
%TO.C,D70*%
X218725750Y-234981750D02*
X218725750Y-236505750D01*
X214661750Y-234981750D02*
X218725750Y-234981750D01*
D11*
G36*
X217963750Y-236505750D02*
G01*
X217963750Y-234981750D01*
X218217750Y-234981750D01*
X218217750Y-236505750D01*
X217963750Y-236505750D01*
G37*
X217963750Y-236505750D02*
X217963750Y-234981750D01*
X218217750Y-234981750D01*
X218217750Y-236505750D01*
X217963750Y-236505750D01*
D10*
X218725750Y-236505750D02*
X214661750Y-236505750D01*
X214661750Y-236505750D02*
X214661750Y-234981750D01*
%TO.C,D69*%
X519461750Y-217455750D02*
X519461750Y-215931750D01*
X523525750Y-217455750D02*
X519461750Y-217455750D01*
D11*
G36*
X520223750Y-215931750D02*
G01*
X520223750Y-217455750D01*
X519969750Y-217455750D01*
X519969750Y-215931750D01*
X520223750Y-215931750D01*
G37*
X520223750Y-215931750D02*
X520223750Y-217455750D01*
X519969750Y-217455750D01*
X519969750Y-215931750D01*
X520223750Y-215931750D01*
D10*
X519461750Y-215931750D02*
X523525750Y-215931750D01*
X523525750Y-215931750D02*
X523525750Y-217455750D01*
%TO.C,D68*%
X500411750Y-217455750D02*
X500411750Y-215931750D01*
X504475750Y-217455750D02*
X500411750Y-217455750D01*
D11*
G36*
X501173750Y-215931750D02*
G01*
X501173750Y-217455750D01*
X500919750Y-217455750D01*
X500919750Y-215931750D01*
X501173750Y-215931750D01*
G37*
X501173750Y-215931750D02*
X501173750Y-217455750D01*
X500919750Y-217455750D01*
X500919750Y-215931750D01*
X501173750Y-215931750D01*
D10*
X500411750Y-215931750D02*
X504475750Y-215931750D01*
X504475750Y-215931750D02*
X504475750Y-217455750D01*
%TO.C,D67*%
X481361750Y-217455750D02*
X481361750Y-215931750D01*
X485425750Y-217455750D02*
X481361750Y-217455750D01*
D11*
G36*
X482123750Y-215931750D02*
G01*
X482123750Y-217455750D01*
X481869750Y-217455750D01*
X481869750Y-215931750D01*
X482123750Y-215931750D01*
G37*
X482123750Y-215931750D02*
X482123750Y-217455750D01*
X481869750Y-217455750D01*
X481869750Y-215931750D01*
X482123750Y-215931750D01*
D10*
X481361750Y-215931750D02*
X485425750Y-215931750D01*
X485425750Y-215931750D02*
X485425750Y-217455750D01*
%TO.C,D66*%
X453580500Y-217455750D02*
X453580500Y-215931750D01*
X457644500Y-217455750D02*
X453580500Y-217455750D01*
D11*
G36*
X454342500Y-215931750D02*
G01*
X454342500Y-217455750D01*
X454088500Y-217455750D01*
X454088500Y-215931750D01*
X454342500Y-215931750D01*
G37*
X454342500Y-215931750D02*
X454342500Y-217455750D01*
X454088500Y-217455750D01*
X454088500Y-215931750D01*
X454342500Y-215931750D01*
D10*
X453580500Y-215931750D02*
X457644500Y-215931750D01*
X457644500Y-215931750D02*
X457644500Y-217455750D01*
%TO.C,D65*%
X424211750Y-217455750D02*
X424211750Y-215931750D01*
X428275750Y-217455750D02*
X424211750Y-217455750D01*
D11*
G36*
X424973750Y-215931750D02*
G01*
X424973750Y-217455750D01*
X424719750Y-217455750D01*
X424719750Y-215931750D01*
X424973750Y-215931750D01*
G37*
X424973750Y-215931750D02*
X424973750Y-217455750D01*
X424719750Y-217455750D01*
X424719750Y-215931750D01*
X424973750Y-215931750D01*
D10*
X424211750Y-215931750D02*
X428275750Y-215931750D01*
X428275750Y-215931750D02*
X428275750Y-217455750D01*
%TO.C,D64*%
X405161750Y-217455750D02*
X405161750Y-215931750D01*
X409225750Y-217455750D02*
X405161750Y-217455750D01*
D11*
G36*
X405923750Y-215931750D02*
G01*
X405923750Y-217455750D01*
X405669750Y-217455750D01*
X405669750Y-215931750D01*
X405923750Y-215931750D01*
G37*
X405923750Y-215931750D02*
X405923750Y-217455750D01*
X405669750Y-217455750D01*
X405669750Y-215931750D01*
X405923750Y-215931750D01*
D10*
X405161750Y-215931750D02*
X409225750Y-215931750D01*
X409225750Y-215931750D02*
X409225750Y-217455750D01*
%TO.C,D63*%
X386111750Y-217455750D02*
X386111750Y-215931750D01*
X390175750Y-217455750D02*
X386111750Y-217455750D01*
D11*
G36*
X386873750Y-215931750D02*
G01*
X386873750Y-217455750D01*
X386619750Y-217455750D01*
X386619750Y-215931750D01*
X386873750Y-215931750D01*
G37*
X386873750Y-215931750D02*
X386873750Y-217455750D01*
X386619750Y-217455750D01*
X386619750Y-215931750D01*
X386873750Y-215931750D01*
D10*
X386111750Y-215931750D02*
X390175750Y-215931750D01*
X390175750Y-215931750D02*
X390175750Y-217455750D01*
%TO.C,D62*%
X371125750Y-215931750D02*
X371125750Y-217455750D01*
X367061750Y-215931750D02*
X371125750Y-215931750D01*
D11*
G36*
X370363750Y-217455750D02*
G01*
X370363750Y-215931750D01*
X370617750Y-215931750D01*
X370617750Y-217455750D01*
X370363750Y-217455750D01*
G37*
X370363750Y-217455750D02*
X370363750Y-215931750D01*
X370617750Y-215931750D01*
X370617750Y-217455750D01*
X370363750Y-217455750D01*
D10*
X371125750Y-217455750D02*
X367061750Y-217455750D01*
X367061750Y-217455750D02*
X367061750Y-215931750D01*
%TO.C,D61*%
X352075750Y-215931750D02*
X352075750Y-217455750D01*
X348011750Y-215931750D02*
X352075750Y-215931750D01*
D11*
G36*
X351313750Y-217455750D02*
G01*
X351313750Y-215931750D01*
X351567750Y-215931750D01*
X351567750Y-217455750D01*
X351313750Y-217455750D01*
G37*
X351313750Y-217455750D02*
X351313750Y-215931750D01*
X351567750Y-215931750D01*
X351567750Y-217455750D01*
X351313750Y-217455750D01*
D10*
X352075750Y-217455750D02*
X348011750Y-217455750D01*
X348011750Y-217455750D02*
X348011750Y-215931750D01*
%TO.C,D60*%
X333025750Y-215931750D02*
X333025750Y-217455750D01*
X328961750Y-215931750D02*
X333025750Y-215931750D01*
D11*
G36*
X332263750Y-217455750D02*
G01*
X332263750Y-215931750D01*
X332517750Y-215931750D01*
X332517750Y-217455750D01*
X332263750Y-217455750D01*
G37*
X332263750Y-217455750D02*
X332263750Y-215931750D01*
X332517750Y-215931750D01*
X332517750Y-217455750D01*
X332263750Y-217455750D01*
D10*
X333025750Y-217455750D02*
X328961750Y-217455750D01*
X328961750Y-217455750D02*
X328961750Y-215931750D01*
%TO.C,D59*%
X313975750Y-215931750D02*
X313975750Y-217455750D01*
X309911750Y-215931750D02*
X313975750Y-215931750D01*
D11*
G36*
X313213750Y-217455750D02*
G01*
X313213750Y-215931750D01*
X313467750Y-215931750D01*
X313467750Y-217455750D01*
X313213750Y-217455750D01*
G37*
X313213750Y-217455750D02*
X313213750Y-215931750D01*
X313467750Y-215931750D01*
X313467750Y-217455750D01*
X313213750Y-217455750D01*
D10*
X313975750Y-217455750D02*
X309911750Y-217455750D01*
X309911750Y-217455750D02*
X309911750Y-215931750D01*
%TO.C,D58*%
X294925750Y-215931750D02*
X294925750Y-217455750D01*
X290861750Y-215931750D02*
X294925750Y-215931750D01*
D11*
G36*
X294163750Y-217455750D02*
G01*
X294163750Y-215931750D01*
X294417750Y-215931750D01*
X294417750Y-217455750D01*
X294163750Y-217455750D01*
G37*
X294163750Y-217455750D02*
X294163750Y-215931750D01*
X294417750Y-215931750D01*
X294417750Y-217455750D01*
X294163750Y-217455750D01*
D10*
X294925750Y-217455750D02*
X290861750Y-217455750D01*
X290861750Y-217455750D02*
X290861750Y-215931750D01*
%TO.C,D57*%
X275875750Y-215931750D02*
X275875750Y-217455750D01*
X271811750Y-215931750D02*
X275875750Y-215931750D01*
D11*
G36*
X275113750Y-217455750D02*
G01*
X275113750Y-215931750D01*
X275367750Y-215931750D01*
X275367750Y-217455750D01*
X275113750Y-217455750D01*
G37*
X275113750Y-217455750D02*
X275113750Y-215931750D01*
X275367750Y-215931750D01*
X275367750Y-217455750D01*
X275113750Y-217455750D01*
D10*
X275875750Y-217455750D02*
X271811750Y-217455750D01*
X271811750Y-217455750D02*
X271811750Y-215931750D01*
%TO.C,D56*%
X256825750Y-215931750D02*
X256825750Y-217455750D01*
X252761750Y-215931750D02*
X256825750Y-215931750D01*
D11*
G36*
X256063750Y-217455750D02*
G01*
X256063750Y-215931750D01*
X256317750Y-215931750D01*
X256317750Y-217455750D01*
X256063750Y-217455750D01*
G37*
X256063750Y-217455750D02*
X256063750Y-215931750D01*
X256317750Y-215931750D01*
X256317750Y-217455750D01*
X256063750Y-217455750D01*
D10*
X256825750Y-217455750D02*
X252761750Y-217455750D01*
X252761750Y-217455750D02*
X252761750Y-215931750D01*
%TO.C,D55*%
X237775750Y-215931750D02*
X237775750Y-217455750D01*
X233711750Y-215931750D02*
X237775750Y-215931750D01*
D11*
G36*
X237013750Y-217455750D02*
G01*
X237013750Y-215931750D01*
X237267750Y-215931750D01*
X237267750Y-217455750D01*
X237013750Y-217455750D01*
G37*
X237013750Y-217455750D02*
X237013750Y-215931750D01*
X237267750Y-215931750D01*
X237267750Y-217455750D01*
X237013750Y-217455750D01*
D10*
X237775750Y-217455750D02*
X233711750Y-217455750D01*
X233711750Y-217455750D02*
X233711750Y-215931750D01*
%TO.C,D54*%
X218725750Y-215931750D02*
X218725750Y-217455750D01*
X214661750Y-215931750D02*
X218725750Y-215931750D01*
D11*
G36*
X217963750Y-217455750D02*
G01*
X217963750Y-215931750D01*
X218217750Y-215931750D01*
X218217750Y-217455750D01*
X217963750Y-217455750D01*
G37*
X217963750Y-217455750D02*
X217963750Y-215931750D01*
X218217750Y-215931750D01*
X218217750Y-217455750D01*
X217963750Y-217455750D01*
D10*
X218725750Y-217455750D02*
X214661750Y-217455750D01*
X214661750Y-217455750D02*
X214661750Y-215931750D01*
%TO.C,D53*%
X538511750Y-207930750D02*
X538511750Y-206406750D01*
X542575750Y-207930750D02*
X538511750Y-207930750D01*
D11*
G36*
X539273750Y-206406750D02*
G01*
X539273750Y-207930750D01*
X539019750Y-207930750D01*
X539019750Y-206406750D01*
X539273750Y-206406750D01*
G37*
X539273750Y-206406750D02*
X539273750Y-207930750D01*
X539019750Y-207930750D01*
X539019750Y-206406750D01*
X539273750Y-206406750D01*
D10*
X538511750Y-206406750D02*
X542575750Y-206406750D01*
X542575750Y-206406750D02*
X542575750Y-207930750D01*
%TO.C,D52*%
X519461750Y-198405750D02*
X519461750Y-196881750D01*
X523525750Y-198405750D02*
X519461750Y-198405750D01*
D11*
G36*
X520223750Y-196881750D02*
G01*
X520223750Y-198405750D01*
X519969750Y-198405750D01*
X519969750Y-196881750D01*
X520223750Y-196881750D01*
G37*
X520223750Y-196881750D02*
X520223750Y-198405750D01*
X519969750Y-198405750D01*
X519969750Y-196881750D01*
X520223750Y-196881750D01*
D10*
X519461750Y-196881750D02*
X523525750Y-196881750D01*
X523525750Y-196881750D02*
X523525750Y-198405750D01*
%TO.C,D51*%
X500411750Y-198405750D02*
X500411750Y-196881750D01*
X504475750Y-198405750D02*
X500411750Y-198405750D01*
D11*
G36*
X501173750Y-196881750D02*
G01*
X501173750Y-198405750D01*
X500919750Y-198405750D01*
X500919750Y-196881750D01*
X501173750Y-196881750D01*
G37*
X501173750Y-196881750D02*
X501173750Y-198405750D01*
X500919750Y-198405750D01*
X500919750Y-196881750D01*
X501173750Y-196881750D01*
D10*
X500411750Y-196881750D02*
X504475750Y-196881750D01*
X504475750Y-196881750D02*
X504475750Y-198405750D01*
%TO.C,D50*%
X481361750Y-198405750D02*
X481361750Y-196881750D01*
X485425750Y-198405750D02*
X481361750Y-198405750D01*
D11*
G36*
X482123750Y-196881750D02*
G01*
X482123750Y-198405750D01*
X481869750Y-198405750D01*
X481869750Y-196881750D01*
X482123750Y-196881750D01*
G37*
X482123750Y-196881750D02*
X482123750Y-198405750D01*
X481869750Y-198405750D01*
X481869750Y-196881750D01*
X482123750Y-196881750D01*
D10*
X481361750Y-196881750D02*
X485425750Y-196881750D01*
X485425750Y-196881750D02*
X485425750Y-198405750D01*
%TO.C,D49*%
X462311750Y-198405750D02*
X462311750Y-196881750D01*
X466375750Y-198405750D02*
X462311750Y-198405750D01*
D11*
G36*
X463073750Y-196881750D02*
G01*
X463073750Y-198405750D01*
X462819750Y-198405750D01*
X462819750Y-196881750D01*
X463073750Y-196881750D01*
G37*
X463073750Y-196881750D02*
X463073750Y-198405750D01*
X462819750Y-198405750D01*
X462819750Y-196881750D01*
X463073750Y-196881750D01*
D10*
X462311750Y-196881750D02*
X466375750Y-196881750D01*
X466375750Y-196881750D02*
X466375750Y-198405750D01*
%TO.C,D48*%
X443261750Y-198405750D02*
X443261750Y-196881750D01*
X447325750Y-198405750D02*
X443261750Y-198405750D01*
D11*
G36*
X444023750Y-196881750D02*
G01*
X444023750Y-198405750D01*
X443769750Y-198405750D01*
X443769750Y-196881750D01*
X444023750Y-196881750D01*
G37*
X444023750Y-196881750D02*
X444023750Y-198405750D01*
X443769750Y-198405750D01*
X443769750Y-196881750D01*
X444023750Y-196881750D01*
D10*
X443261750Y-196881750D02*
X447325750Y-196881750D01*
X447325750Y-196881750D02*
X447325750Y-198405750D01*
%TO.C,D47*%
X424211750Y-198405750D02*
X424211750Y-196881750D01*
X428275750Y-198405750D02*
X424211750Y-198405750D01*
D11*
G36*
X424973750Y-196881750D02*
G01*
X424973750Y-198405750D01*
X424719750Y-198405750D01*
X424719750Y-196881750D01*
X424973750Y-196881750D01*
G37*
X424973750Y-196881750D02*
X424973750Y-198405750D01*
X424719750Y-198405750D01*
X424719750Y-196881750D01*
X424973750Y-196881750D01*
D10*
X424211750Y-196881750D02*
X428275750Y-196881750D01*
X428275750Y-196881750D02*
X428275750Y-198405750D01*
%TO.C,D46*%
X405161750Y-198405750D02*
X405161750Y-196881750D01*
X409225750Y-198405750D02*
X405161750Y-198405750D01*
D11*
G36*
X405923750Y-196881750D02*
G01*
X405923750Y-198405750D01*
X405669750Y-198405750D01*
X405669750Y-196881750D01*
X405923750Y-196881750D01*
G37*
X405923750Y-196881750D02*
X405923750Y-198405750D01*
X405669750Y-198405750D01*
X405669750Y-196881750D01*
X405923750Y-196881750D01*
D10*
X405161750Y-196881750D02*
X409225750Y-196881750D01*
X409225750Y-196881750D02*
X409225750Y-198405750D01*
%TO.C,D45*%
X386111750Y-198405750D02*
X386111750Y-196881750D01*
X390175750Y-198405750D02*
X386111750Y-198405750D01*
D11*
G36*
X386873750Y-196881750D02*
G01*
X386873750Y-198405750D01*
X386619750Y-198405750D01*
X386619750Y-196881750D01*
X386873750Y-196881750D01*
G37*
X386873750Y-196881750D02*
X386873750Y-198405750D01*
X386619750Y-198405750D01*
X386619750Y-196881750D01*
X386873750Y-196881750D01*
D10*
X386111750Y-196881750D02*
X390175750Y-196881750D01*
X390175750Y-196881750D02*
X390175750Y-198405750D01*
%TO.C,D44*%
X371125750Y-196881750D02*
X371125750Y-198405750D01*
X367061750Y-196881750D02*
X371125750Y-196881750D01*
D11*
G36*
X370363750Y-198405750D02*
G01*
X370363750Y-196881750D01*
X370617750Y-196881750D01*
X370617750Y-198405750D01*
X370363750Y-198405750D01*
G37*
X370363750Y-198405750D02*
X370363750Y-196881750D01*
X370617750Y-196881750D01*
X370617750Y-198405750D01*
X370363750Y-198405750D01*
D10*
X371125750Y-198405750D02*
X367061750Y-198405750D01*
X367061750Y-198405750D02*
X367061750Y-196881750D01*
%TO.C,D43*%
X352075750Y-196881750D02*
X352075750Y-198405750D01*
X348011750Y-196881750D02*
X352075750Y-196881750D01*
D11*
G36*
X351313750Y-198405750D02*
G01*
X351313750Y-196881750D01*
X351567750Y-196881750D01*
X351567750Y-198405750D01*
X351313750Y-198405750D01*
G37*
X351313750Y-198405750D02*
X351313750Y-196881750D01*
X351567750Y-196881750D01*
X351567750Y-198405750D01*
X351313750Y-198405750D01*
D10*
X352075750Y-198405750D02*
X348011750Y-198405750D01*
X348011750Y-198405750D02*
X348011750Y-196881750D01*
%TO.C,D42*%
X333025750Y-196881750D02*
X333025750Y-198405750D01*
X328961750Y-196881750D02*
X333025750Y-196881750D01*
D11*
G36*
X332263750Y-198405750D02*
G01*
X332263750Y-196881750D01*
X332517750Y-196881750D01*
X332517750Y-198405750D01*
X332263750Y-198405750D01*
G37*
X332263750Y-198405750D02*
X332263750Y-196881750D01*
X332517750Y-196881750D01*
X332517750Y-198405750D01*
X332263750Y-198405750D01*
D10*
X333025750Y-198405750D02*
X328961750Y-198405750D01*
X328961750Y-198405750D02*
X328961750Y-196881750D01*
%TO.C,D41*%
X313975750Y-196881750D02*
X313975750Y-198405750D01*
X309911750Y-196881750D02*
X313975750Y-196881750D01*
D11*
G36*
X313213750Y-198405750D02*
G01*
X313213750Y-196881750D01*
X313467750Y-196881750D01*
X313467750Y-198405750D01*
X313213750Y-198405750D01*
G37*
X313213750Y-198405750D02*
X313213750Y-196881750D01*
X313467750Y-196881750D01*
X313467750Y-198405750D01*
X313213750Y-198405750D01*
D10*
X313975750Y-198405750D02*
X309911750Y-198405750D01*
X309911750Y-198405750D02*
X309911750Y-196881750D01*
%TO.C,D40*%
X294925750Y-196881750D02*
X294925750Y-198405750D01*
X290861750Y-196881750D02*
X294925750Y-196881750D01*
D11*
G36*
X294163750Y-198405750D02*
G01*
X294163750Y-196881750D01*
X294417750Y-196881750D01*
X294417750Y-198405750D01*
X294163750Y-198405750D01*
G37*
X294163750Y-198405750D02*
X294163750Y-196881750D01*
X294417750Y-196881750D01*
X294417750Y-198405750D01*
X294163750Y-198405750D01*
D10*
X294925750Y-198405750D02*
X290861750Y-198405750D01*
X290861750Y-198405750D02*
X290861750Y-196881750D01*
%TO.C,D39*%
X275875750Y-196881750D02*
X275875750Y-198405750D01*
X271811750Y-196881750D02*
X275875750Y-196881750D01*
D11*
G36*
X275113750Y-198405750D02*
G01*
X275113750Y-196881750D01*
X275367750Y-196881750D01*
X275367750Y-198405750D01*
X275113750Y-198405750D01*
G37*
X275113750Y-198405750D02*
X275113750Y-196881750D01*
X275367750Y-196881750D01*
X275367750Y-198405750D01*
X275113750Y-198405750D01*
D10*
X275875750Y-198405750D02*
X271811750Y-198405750D01*
X271811750Y-198405750D02*
X271811750Y-196881750D01*
%TO.C,D38*%
X256825750Y-196881750D02*
X256825750Y-198405750D01*
X252761750Y-196881750D02*
X256825750Y-196881750D01*
D11*
G36*
X256063750Y-198405750D02*
G01*
X256063750Y-196881750D01*
X256317750Y-196881750D01*
X256317750Y-198405750D01*
X256063750Y-198405750D01*
G37*
X256063750Y-198405750D02*
X256063750Y-196881750D01*
X256317750Y-196881750D01*
X256317750Y-198405750D01*
X256063750Y-198405750D01*
D10*
X256825750Y-198405750D02*
X252761750Y-198405750D01*
X252761750Y-198405750D02*
X252761750Y-196881750D01*
%TO.C,D37*%
X237775750Y-196881750D02*
X237775750Y-198405750D01*
X233711750Y-196881750D02*
X237775750Y-196881750D01*
D11*
G36*
X237013750Y-198405750D02*
G01*
X237013750Y-196881750D01*
X237267750Y-196881750D01*
X237267750Y-198405750D01*
X237013750Y-198405750D01*
G37*
X237013750Y-198405750D02*
X237013750Y-196881750D01*
X237267750Y-196881750D01*
X237267750Y-198405750D01*
X237013750Y-198405750D01*
D10*
X237775750Y-198405750D02*
X233711750Y-198405750D01*
X233711750Y-198405750D02*
X233711750Y-196881750D01*
%TO.C,D36*%
X218725750Y-196881750D02*
X218725750Y-198405750D01*
X214661750Y-196881750D02*
X218725750Y-196881750D01*
D11*
G36*
X217963750Y-198405750D02*
G01*
X217963750Y-196881750D01*
X218217750Y-196881750D01*
X218217750Y-198405750D01*
X217963750Y-198405750D01*
G37*
X217963750Y-198405750D02*
X217963750Y-196881750D01*
X218217750Y-196881750D01*
X218217750Y-198405750D01*
X217963750Y-198405750D01*
D10*
X218725750Y-198405750D02*
X214661750Y-198405750D01*
X214661750Y-198405750D02*
X214661750Y-196881750D01*
%TO.C,D35*%
X538511750Y-179355750D02*
X538511750Y-177831750D01*
X542575750Y-179355750D02*
X538511750Y-179355750D01*
D11*
G36*
X539273750Y-177831750D02*
G01*
X539273750Y-179355750D01*
X539019750Y-179355750D01*
X539019750Y-177831750D01*
X539273750Y-177831750D01*
G37*
X539273750Y-177831750D02*
X539273750Y-179355750D01*
X539019750Y-179355750D01*
X539019750Y-177831750D01*
X539273750Y-177831750D01*
D10*
X538511750Y-177831750D02*
X542575750Y-177831750D01*
X542575750Y-177831750D02*
X542575750Y-179355750D01*
%TO.C,D34*%
X519461750Y-179355750D02*
X519461750Y-177831750D01*
X523525750Y-179355750D02*
X519461750Y-179355750D01*
D11*
G36*
X520223750Y-177831750D02*
G01*
X520223750Y-179355750D01*
X519969750Y-179355750D01*
X519969750Y-177831750D01*
X520223750Y-177831750D01*
G37*
X520223750Y-177831750D02*
X520223750Y-179355750D01*
X519969750Y-179355750D01*
X519969750Y-177831750D01*
X520223750Y-177831750D01*
D10*
X519461750Y-177831750D02*
X523525750Y-177831750D01*
X523525750Y-177831750D02*
X523525750Y-179355750D01*
%TO.C,D33*%
X500411750Y-179355750D02*
X500411750Y-177831750D01*
X504475750Y-179355750D02*
X500411750Y-179355750D01*
D11*
G36*
X501173750Y-177831750D02*
G01*
X501173750Y-179355750D01*
X500919750Y-179355750D01*
X500919750Y-177831750D01*
X501173750Y-177831750D01*
G37*
X501173750Y-177831750D02*
X501173750Y-179355750D01*
X500919750Y-179355750D01*
X500919750Y-177831750D01*
X501173750Y-177831750D01*
D10*
X500411750Y-177831750D02*
X504475750Y-177831750D01*
X504475750Y-177831750D02*
X504475750Y-179355750D01*
%TO.C,D32*%
X481361750Y-179282000D02*
X481361750Y-177758000D01*
X485425750Y-179282000D02*
X481361750Y-179282000D01*
D11*
G36*
X482123750Y-177758000D02*
G01*
X482123750Y-179282000D01*
X481869750Y-179282000D01*
X481869750Y-177758000D01*
X482123750Y-177758000D01*
G37*
X482123750Y-177758000D02*
X482123750Y-179282000D01*
X481869750Y-179282000D01*
X481869750Y-177758000D01*
X482123750Y-177758000D01*
D10*
X481361750Y-177758000D02*
X485425750Y-177758000D01*
X485425750Y-177758000D02*
X485425750Y-179282000D01*
%TO.C,D31*%
X462311750Y-179355750D02*
X462311750Y-177831750D01*
X466375750Y-179355750D02*
X462311750Y-179355750D01*
D11*
G36*
X463073750Y-177831750D02*
G01*
X463073750Y-179355750D01*
X462819750Y-179355750D01*
X462819750Y-177831750D01*
X463073750Y-177831750D01*
G37*
X463073750Y-177831750D02*
X463073750Y-179355750D01*
X462819750Y-179355750D01*
X462819750Y-177831750D01*
X463073750Y-177831750D01*
D10*
X462311750Y-177831750D02*
X466375750Y-177831750D01*
X466375750Y-177831750D02*
X466375750Y-179355750D01*
%TO.C,D30*%
X443261750Y-179355750D02*
X443261750Y-177831750D01*
X447325750Y-179355750D02*
X443261750Y-179355750D01*
D11*
G36*
X444023750Y-177831750D02*
G01*
X444023750Y-179355750D01*
X443769750Y-179355750D01*
X443769750Y-177831750D01*
X444023750Y-177831750D01*
G37*
X444023750Y-177831750D02*
X444023750Y-179355750D01*
X443769750Y-179355750D01*
X443769750Y-177831750D01*
X444023750Y-177831750D01*
D10*
X443261750Y-177831750D02*
X447325750Y-177831750D01*
X447325750Y-177831750D02*
X447325750Y-179355750D01*
%TO.C,D29*%
X424211750Y-179355750D02*
X424211750Y-177831750D01*
X428275750Y-179355750D02*
X424211750Y-179355750D01*
D11*
G36*
X424973750Y-177831750D02*
G01*
X424973750Y-179355750D01*
X424719750Y-179355750D01*
X424719750Y-177831750D01*
X424973750Y-177831750D01*
G37*
X424973750Y-177831750D02*
X424973750Y-179355750D01*
X424719750Y-179355750D01*
X424719750Y-177831750D01*
X424973750Y-177831750D01*
D10*
X424211750Y-177831750D02*
X428275750Y-177831750D01*
X428275750Y-177831750D02*
X428275750Y-179355750D01*
%TO.C,D28*%
X405161750Y-179355750D02*
X405161750Y-177831750D01*
X409225750Y-179355750D02*
X405161750Y-179355750D01*
D11*
G36*
X405923750Y-177831750D02*
G01*
X405923750Y-179355750D01*
X405669750Y-179355750D01*
X405669750Y-177831750D01*
X405923750Y-177831750D01*
G37*
X405923750Y-177831750D02*
X405923750Y-179355750D01*
X405669750Y-179355750D01*
X405669750Y-177831750D01*
X405923750Y-177831750D01*
D10*
X405161750Y-177831750D02*
X409225750Y-177831750D01*
X409225750Y-177831750D02*
X409225750Y-179355750D01*
%TO.C,D27*%
X386111750Y-179355750D02*
X386111750Y-177831750D01*
X390175750Y-179355750D02*
X386111750Y-179355750D01*
D11*
G36*
X386873750Y-177831750D02*
G01*
X386873750Y-179355750D01*
X386619750Y-179355750D01*
X386619750Y-177831750D01*
X386873750Y-177831750D01*
G37*
X386873750Y-177831750D02*
X386873750Y-179355750D01*
X386619750Y-179355750D01*
X386619750Y-177831750D01*
X386873750Y-177831750D01*
D10*
X386111750Y-177831750D02*
X390175750Y-177831750D01*
X390175750Y-177831750D02*
X390175750Y-179355750D01*
%TO.C,D26*%
X371125750Y-177831750D02*
X371125750Y-179355750D01*
X367061750Y-177831750D02*
X371125750Y-177831750D01*
D11*
G36*
X370363750Y-179355750D02*
G01*
X370363750Y-177831750D01*
X370617750Y-177831750D01*
X370617750Y-179355750D01*
X370363750Y-179355750D01*
G37*
X370363750Y-179355750D02*
X370363750Y-177831750D01*
X370617750Y-177831750D01*
X370617750Y-179355750D01*
X370363750Y-179355750D01*
D10*
X371125750Y-179355750D02*
X367061750Y-179355750D01*
X367061750Y-179355750D02*
X367061750Y-177831750D01*
%TO.C,D25*%
X352075750Y-177831750D02*
X352075750Y-179355750D01*
X348011750Y-177831750D02*
X352075750Y-177831750D01*
D11*
G36*
X351313750Y-179355750D02*
G01*
X351313750Y-177831750D01*
X351567750Y-177831750D01*
X351567750Y-179355750D01*
X351313750Y-179355750D01*
G37*
X351313750Y-179355750D02*
X351313750Y-177831750D01*
X351567750Y-177831750D01*
X351567750Y-179355750D01*
X351313750Y-179355750D01*
D10*
X352075750Y-179355750D02*
X348011750Y-179355750D01*
X348011750Y-179355750D02*
X348011750Y-177831750D01*
%TO.C,D24*%
X333025750Y-177831750D02*
X333025750Y-179355750D01*
X328961750Y-177831750D02*
X333025750Y-177831750D01*
D11*
G36*
X332263750Y-179355750D02*
G01*
X332263750Y-177831750D01*
X332517750Y-177831750D01*
X332517750Y-179355750D01*
X332263750Y-179355750D01*
G37*
X332263750Y-179355750D02*
X332263750Y-177831750D01*
X332517750Y-177831750D01*
X332517750Y-179355750D01*
X332263750Y-179355750D01*
D10*
X333025750Y-179355750D02*
X328961750Y-179355750D01*
X328961750Y-179355750D02*
X328961750Y-177831750D01*
%TO.C,D23*%
X313975750Y-177831750D02*
X313975750Y-179355750D01*
X309911750Y-177831750D02*
X313975750Y-177831750D01*
D11*
G36*
X313213750Y-179355750D02*
G01*
X313213750Y-177831750D01*
X313467750Y-177831750D01*
X313467750Y-179355750D01*
X313213750Y-179355750D01*
G37*
X313213750Y-179355750D02*
X313213750Y-177831750D01*
X313467750Y-177831750D01*
X313467750Y-179355750D01*
X313213750Y-179355750D01*
D10*
X313975750Y-179355750D02*
X309911750Y-179355750D01*
X309911750Y-179355750D02*
X309911750Y-177831750D01*
%TO.C,D22*%
X294925750Y-177831750D02*
X294925750Y-179355750D01*
X290861750Y-177831750D02*
X294925750Y-177831750D01*
D11*
G36*
X294163750Y-179355750D02*
G01*
X294163750Y-177831750D01*
X294417750Y-177831750D01*
X294417750Y-179355750D01*
X294163750Y-179355750D01*
G37*
X294163750Y-179355750D02*
X294163750Y-177831750D01*
X294417750Y-177831750D01*
X294417750Y-179355750D01*
X294163750Y-179355750D01*
D10*
X294925750Y-179355750D02*
X290861750Y-179355750D01*
X290861750Y-179355750D02*
X290861750Y-177831750D01*
%TO.C,D21*%
X275875750Y-177831750D02*
X275875750Y-179355750D01*
X271811750Y-177831750D02*
X275875750Y-177831750D01*
D11*
G36*
X275113750Y-179355750D02*
G01*
X275113750Y-177831750D01*
X275367750Y-177831750D01*
X275367750Y-179355750D01*
X275113750Y-179355750D01*
G37*
X275113750Y-179355750D02*
X275113750Y-177831750D01*
X275367750Y-177831750D01*
X275367750Y-179355750D01*
X275113750Y-179355750D01*
D10*
X275875750Y-179355750D02*
X271811750Y-179355750D01*
X271811750Y-179355750D02*
X271811750Y-177831750D01*
%TO.C,D20*%
X256825750Y-177831750D02*
X256825750Y-179355750D01*
X252761750Y-177831750D02*
X256825750Y-177831750D01*
D11*
G36*
X256063750Y-179355750D02*
G01*
X256063750Y-177831750D01*
X256317750Y-177831750D01*
X256317750Y-179355750D01*
X256063750Y-179355750D01*
G37*
X256063750Y-179355750D02*
X256063750Y-177831750D01*
X256317750Y-177831750D01*
X256317750Y-179355750D01*
X256063750Y-179355750D01*
D10*
X256825750Y-179355750D02*
X252761750Y-179355750D01*
X252761750Y-179355750D02*
X252761750Y-177831750D01*
%TO.C,D19*%
X237775750Y-177831750D02*
X237775750Y-179355750D01*
X233711750Y-177831750D02*
X237775750Y-177831750D01*
D11*
G36*
X237013750Y-179355750D02*
G01*
X237013750Y-177831750D01*
X237267750Y-177831750D01*
X237267750Y-179355750D01*
X237013750Y-179355750D01*
G37*
X237013750Y-179355750D02*
X237013750Y-177831750D01*
X237267750Y-177831750D01*
X237267750Y-179355750D01*
X237013750Y-179355750D01*
D10*
X237775750Y-179355750D02*
X233711750Y-179355750D01*
X233711750Y-179355750D02*
X233711750Y-177831750D01*
%TO.C,D18*%
X218725750Y-177831750D02*
X218725750Y-179355750D01*
X214661750Y-177831750D02*
X218725750Y-177831750D01*
D11*
G36*
X217963750Y-179355750D02*
G01*
X217963750Y-177831750D01*
X218217750Y-177831750D01*
X218217750Y-179355750D01*
X217963750Y-179355750D01*
G37*
X217963750Y-179355750D02*
X217963750Y-177831750D01*
X218217750Y-177831750D01*
X218217750Y-179355750D01*
X217963750Y-179355750D01*
D10*
X218725750Y-179355750D02*
X214661750Y-179355750D01*
X214661750Y-179355750D02*
X214661750Y-177831750D01*
%TO.C,D17*%
X531780750Y-152844500D02*
X530256750Y-152844500D01*
X531780750Y-148780500D02*
X531780750Y-152844500D01*
D11*
G36*
X530256750Y-152082500D02*
G01*
X531780750Y-152082500D01*
X531780750Y-152336500D01*
X530256750Y-152336500D01*
X530256750Y-152082500D01*
G37*
X530256750Y-152082500D02*
X531780750Y-152082500D01*
X531780750Y-152336500D01*
X530256750Y-152336500D01*
X530256750Y-152082500D01*
D10*
X530256750Y-152844500D02*
X530256750Y-148780500D01*
X530256750Y-148780500D02*
X531780750Y-148780500D01*
%TO.C,D16*%
X519461750Y-160305750D02*
X519461750Y-158781750D01*
X523525750Y-160305750D02*
X519461750Y-160305750D01*
D11*
G36*
X520223750Y-158781750D02*
G01*
X520223750Y-160305750D01*
X519969750Y-160305750D01*
X519969750Y-158781750D01*
X520223750Y-158781750D01*
G37*
X520223750Y-158781750D02*
X520223750Y-160305750D01*
X519969750Y-160305750D01*
X519969750Y-158781750D01*
X520223750Y-158781750D01*
D10*
X519461750Y-158781750D02*
X523525750Y-158781750D01*
X523525750Y-158781750D02*
X523525750Y-160305750D01*
%TO.C,D15*%
X500411750Y-160305750D02*
X500411750Y-158781750D01*
X504475750Y-160305750D02*
X500411750Y-160305750D01*
D11*
G36*
X501173750Y-158781750D02*
G01*
X501173750Y-160305750D01*
X500919750Y-160305750D01*
X500919750Y-158781750D01*
X501173750Y-158781750D01*
G37*
X501173750Y-158781750D02*
X501173750Y-160305750D01*
X500919750Y-160305750D01*
X500919750Y-158781750D01*
X501173750Y-158781750D01*
D10*
X500411750Y-158781750D02*
X504475750Y-158781750D01*
X504475750Y-158781750D02*
X504475750Y-160305750D01*
%TO.C,D14*%
X481361750Y-160305750D02*
X481361750Y-158781750D01*
X485425750Y-160305750D02*
X481361750Y-160305750D01*
D11*
G36*
X482123750Y-158781750D02*
G01*
X482123750Y-160305750D01*
X481869750Y-160305750D01*
X481869750Y-158781750D01*
X482123750Y-158781750D01*
G37*
X482123750Y-158781750D02*
X482123750Y-160305750D01*
X481869750Y-160305750D01*
X481869750Y-158781750D01*
X482123750Y-158781750D01*
D10*
X481361750Y-158781750D02*
X485425750Y-158781750D01*
X485425750Y-158781750D02*
X485425750Y-160305750D01*
%TO.C,D13*%
X443261750Y-160305750D02*
X443261750Y-158781750D01*
X447325750Y-160305750D02*
X443261750Y-160305750D01*
D11*
G36*
X444023750Y-158781750D02*
G01*
X444023750Y-160305750D01*
X443769750Y-160305750D01*
X443769750Y-158781750D01*
X444023750Y-158781750D01*
G37*
X444023750Y-158781750D02*
X444023750Y-160305750D01*
X443769750Y-160305750D01*
X443769750Y-158781750D01*
X444023750Y-158781750D01*
D10*
X443261750Y-158781750D02*
X447325750Y-158781750D01*
X447325750Y-158781750D02*
X447325750Y-160305750D01*
%TO.C,D12*%
X424211750Y-160305750D02*
X424211750Y-158781750D01*
X428275750Y-160305750D02*
X424211750Y-160305750D01*
D11*
G36*
X424973750Y-158781750D02*
G01*
X424973750Y-160305750D01*
X424719750Y-160305750D01*
X424719750Y-158781750D01*
X424973750Y-158781750D01*
G37*
X424973750Y-158781750D02*
X424973750Y-160305750D01*
X424719750Y-160305750D01*
X424719750Y-158781750D01*
X424973750Y-158781750D01*
D10*
X424211750Y-158781750D02*
X428275750Y-158781750D01*
X428275750Y-158781750D02*
X428275750Y-160305750D01*
%TO.C,D11*%
X405161750Y-160305750D02*
X405161750Y-158781750D01*
X409225750Y-160305750D02*
X405161750Y-160305750D01*
D11*
G36*
X405923750Y-158781750D02*
G01*
X405923750Y-160305750D01*
X405669750Y-160305750D01*
X405669750Y-158781750D01*
X405923750Y-158781750D01*
G37*
X405923750Y-158781750D02*
X405923750Y-160305750D01*
X405669750Y-160305750D01*
X405669750Y-158781750D01*
X405923750Y-158781750D01*
D10*
X405161750Y-158781750D02*
X409225750Y-158781750D01*
X409225750Y-158781750D02*
X409225750Y-160305750D01*
%TO.C,D10*%
X386111750Y-160305750D02*
X386111750Y-158781750D01*
X390175750Y-160305750D02*
X386111750Y-160305750D01*
D11*
G36*
X386873750Y-158781750D02*
G01*
X386873750Y-160305750D01*
X386619750Y-160305750D01*
X386619750Y-158781750D01*
X386873750Y-158781750D01*
G37*
X386873750Y-158781750D02*
X386873750Y-160305750D01*
X386619750Y-160305750D01*
X386619750Y-158781750D01*
X386873750Y-158781750D01*
D10*
X386111750Y-158781750D02*
X390175750Y-158781750D01*
X390175750Y-158781750D02*
X390175750Y-160305750D01*
%TO.C,D9*%
X371125750Y-158781750D02*
X371125750Y-160305750D01*
X367061750Y-158781750D02*
X371125750Y-158781750D01*
D11*
G36*
X370363750Y-160305750D02*
G01*
X370363750Y-158781750D01*
X370617750Y-158781750D01*
X370617750Y-160305750D01*
X370363750Y-160305750D01*
G37*
X370363750Y-160305750D02*
X370363750Y-158781750D01*
X370617750Y-158781750D01*
X370617750Y-160305750D01*
X370363750Y-160305750D01*
D10*
X371125750Y-160305750D02*
X367061750Y-160305750D01*
X367061750Y-160305750D02*
X367061750Y-158781750D01*
%TO.C,D8*%
X352075750Y-158781750D02*
X352075750Y-160305750D01*
X348011750Y-158781750D02*
X352075750Y-158781750D01*
D11*
G36*
X351313750Y-160305750D02*
G01*
X351313750Y-158781750D01*
X351567750Y-158781750D01*
X351567750Y-160305750D01*
X351313750Y-160305750D01*
G37*
X351313750Y-160305750D02*
X351313750Y-158781750D01*
X351567750Y-158781750D01*
X351567750Y-160305750D01*
X351313750Y-160305750D01*
D10*
X352075750Y-160305750D02*
X348011750Y-160305750D01*
X348011750Y-160305750D02*
X348011750Y-158781750D01*
%TO.C,D7*%
X333025750Y-158781750D02*
X333025750Y-160305750D01*
X328961750Y-158781750D02*
X333025750Y-158781750D01*
D11*
G36*
X332263750Y-160305750D02*
G01*
X332263750Y-158781750D01*
X332517750Y-158781750D01*
X332517750Y-160305750D01*
X332263750Y-160305750D01*
G37*
X332263750Y-160305750D02*
X332263750Y-158781750D01*
X332517750Y-158781750D01*
X332517750Y-160305750D01*
X332263750Y-160305750D01*
D10*
X333025750Y-160305750D02*
X328961750Y-160305750D01*
X328961750Y-160305750D02*
X328961750Y-158781750D01*
%TO.C,D6*%
X313975750Y-158781750D02*
X313975750Y-160305750D01*
X309911750Y-158781750D02*
X313975750Y-158781750D01*
D11*
G36*
X313213750Y-160305750D02*
G01*
X313213750Y-158781750D01*
X313467750Y-158781750D01*
X313467750Y-160305750D01*
X313213750Y-160305750D01*
G37*
X313213750Y-160305750D02*
X313213750Y-158781750D01*
X313467750Y-158781750D01*
X313467750Y-160305750D01*
X313213750Y-160305750D01*
D10*
X313975750Y-160305750D02*
X309911750Y-160305750D01*
X309911750Y-160305750D02*
X309911750Y-158781750D01*
%TO.C,D5*%
X294925750Y-158781750D02*
X294925750Y-160305750D01*
X290861750Y-158781750D02*
X294925750Y-158781750D01*
D11*
G36*
X294163750Y-160305750D02*
G01*
X294163750Y-158781750D01*
X294417750Y-158781750D01*
X294417750Y-160305750D01*
X294163750Y-160305750D01*
G37*
X294163750Y-160305750D02*
X294163750Y-158781750D01*
X294417750Y-158781750D01*
X294417750Y-160305750D01*
X294163750Y-160305750D01*
D10*
X294925750Y-160305750D02*
X290861750Y-160305750D01*
X290861750Y-160305750D02*
X290861750Y-158781750D01*
%TO.C,D4*%
X275875750Y-158781750D02*
X275875750Y-160305750D01*
X271811750Y-158781750D02*
X275875750Y-158781750D01*
D11*
G36*
X275113750Y-160305750D02*
G01*
X275113750Y-158781750D01*
X275367750Y-158781750D01*
X275367750Y-160305750D01*
X275113750Y-160305750D01*
G37*
X275113750Y-160305750D02*
X275113750Y-158781750D01*
X275367750Y-158781750D01*
X275367750Y-160305750D01*
X275113750Y-160305750D01*
D10*
X275875750Y-160305750D02*
X271811750Y-160305750D01*
X271811750Y-160305750D02*
X271811750Y-158781750D01*
%TO.C,D3*%
X256825750Y-158781750D02*
X256825750Y-160305750D01*
X252761750Y-158781750D02*
X256825750Y-158781750D01*
D11*
G36*
X256063750Y-160305750D02*
G01*
X256063750Y-158781750D01*
X256317750Y-158781750D01*
X256317750Y-160305750D01*
X256063750Y-160305750D01*
G37*
X256063750Y-160305750D02*
X256063750Y-158781750D01*
X256317750Y-158781750D01*
X256317750Y-160305750D01*
X256063750Y-160305750D01*
D10*
X256825750Y-160305750D02*
X252761750Y-160305750D01*
X252761750Y-160305750D02*
X252761750Y-158781750D01*
%TO.C,D2*%
X237775750Y-158781750D02*
X237775750Y-160305750D01*
X233711750Y-158781750D02*
X237775750Y-158781750D01*
D11*
G36*
X237013750Y-160305750D02*
G01*
X237013750Y-158781750D01*
X237267750Y-158781750D01*
X237267750Y-160305750D01*
X237013750Y-160305750D01*
G37*
X237013750Y-160305750D02*
X237013750Y-158781750D01*
X237267750Y-158781750D01*
X237267750Y-160305750D01*
X237013750Y-160305750D01*
D10*
X237775750Y-160305750D02*
X233711750Y-160305750D01*
X233711750Y-160305750D02*
X233711750Y-158781750D01*
%TO.C,D1*%
X218725750Y-158781750D02*
X218725750Y-160305750D01*
X214661750Y-158781750D02*
X218725750Y-158781750D01*
D11*
G36*
X217963750Y-160305750D02*
G01*
X217963750Y-158781750D01*
X218217750Y-158781750D01*
X218217750Y-160305750D01*
X217963750Y-160305750D01*
G37*
X217963750Y-160305750D02*
X217963750Y-158781750D01*
X218217750Y-158781750D01*
X218217750Y-160305750D01*
X217963750Y-160305750D01*
D10*
X218725750Y-160305750D02*
X214661750Y-160305750D01*
X214661750Y-160305750D02*
X214661750Y-158781750D01*
D12*
%TO.C,SW101*%
X515143750Y-239712500D02*
X516413750Y-239712500D01*
X527843750Y-240982500D02*
X527843750Y-239712500D01*
X515143750Y-252412500D02*
X516413750Y-252412500D01*
X515143750Y-240982500D02*
X515143750Y-239712500D01*
X515143750Y-251142500D02*
X515143750Y-252412500D01*
X526573750Y-252412500D02*
X527843750Y-252412500D01*
X527843750Y-252412500D02*
X527843750Y-251142500D01*
X527843750Y-239712500D02*
X526573750Y-239712500D01*
%TO.C,SW100*%
X496093750Y-239712500D02*
X497363750Y-239712500D01*
X508793750Y-240982500D02*
X508793750Y-239712500D01*
X496093750Y-252412500D02*
X497363750Y-252412500D01*
X496093750Y-240982500D02*
X496093750Y-239712500D01*
X496093750Y-251142500D02*
X496093750Y-252412500D01*
X507523750Y-252412500D02*
X508793750Y-252412500D01*
X508793750Y-252412500D02*
X508793750Y-251142500D01*
X508793750Y-239712500D02*
X507523750Y-239712500D01*
%TO.C,SW99*%
X477043750Y-239712500D02*
X478313750Y-239712500D01*
X489743750Y-240982500D02*
X489743750Y-239712500D01*
X477043750Y-252412500D02*
X478313750Y-252412500D01*
X477043750Y-240982500D02*
X477043750Y-239712500D01*
X477043750Y-251142500D02*
X477043750Y-252412500D01*
X488473750Y-252412500D02*
X489743750Y-252412500D01*
X489743750Y-252412500D02*
X489743750Y-251142500D01*
X489743750Y-239712500D02*
X488473750Y-239712500D01*
%TO.C,SW98*%
X457993750Y-239712500D02*
X459263750Y-239712500D01*
X470693750Y-240982500D02*
X470693750Y-239712500D01*
X457993750Y-252412500D02*
X459263750Y-252412500D01*
X457993750Y-240982500D02*
X457993750Y-239712500D01*
X457993750Y-251142500D02*
X457993750Y-252412500D01*
X469423750Y-252412500D02*
X470693750Y-252412500D01*
X470693750Y-252412500D02*
X470693750Y-251142500D01*
X470693750Y-239712500D02*
X469423750Y-239712500D01*
%TO.C,SW97*%
X438943750Y-239712500D02*
X440213750Y-239712500D01*
X451643750Y-240982500D02*
X451643750Y-239712500D01*
X438943750Y-252412500D02*
X440213750Y-252412500D01*
X438943750Y-240982500D02*
X438943750Y-239712500D01*
X438943750Y-251142500D02*
X438943750Y-252412500D01*
X450373750Y-252412500D02*
X451643750Y-252412500D01*
X451643750Y-252412500D02*
X451643750Y-251142500D01*
X451643750Y-239712500D02*
X450373750Y-239712500D01*
%TO.C,SW96*%
X419893750Y-239712500D02*
X421163750Y-239712500D01*
X432593750Y-240982500D02*
X432593750Y-239712500D01*
X419893750Y-252412500D02*
X421163750Y-252412500D01*
X419893750Y-240982500D02*
X419893750Y-239712500D01*
X419893750Y-251142500D02*
X419893750Y-252412500D01*
X431323750Y-252412500D02*
X432593750Y-252412500D01*
X432593750Y-252412500D02*
X432593750Y-251142500D01*
X432593750Y-239712500D02*
X431323750Y-239712500D01*
%TO.C,SW95*%
X400843750Y-239712500D02*
X402113750Y-239712500D01*
X413543750Y-240982500D02*
X413543750Y-239712500D01*
X400843750Y-252412500D02*
X402113750Y-252412500D01*
X400843750Y-240982500D02*
X400843750Y-239712500D01*
X400843750Y-251142500D02*
X400843750Y-252412500D01*
X412273750Y-252412500D02*
X413543750Y-252412500D01*
X413543750Y-252412500D02*
X413543750Y-251142500D01*
X413543750Y-239712500D02*
X412273750Y-239712500D01*
%TO.C,SW94*%
X381793750Y-239712500D02*
X383063750Y-239712500D01*
X394493750Y-240982500D02*
X394493750Y-239712500D01*
X381793750Y-252412500D02*
X383063750Y-252412500D01*
X381793750Y-240982500D02*
X381793750Y-239712500D01*
X381793750Y-251142500D02*
X381793750Y-252412500D01*
X393223750Y-252412500D02*
X394493750Y-252412500D01*
X394493750Y-252412500D02*
X394493750Y-251142500D01*
X394493750Y-239712500D02*
X393223750Y-239712500D01*
%TO.C,SW93*%
X362743750Y-239712500D02*
X364013750Y-239712500D01*
X375443750Y-240982500D02*
X375443750Y-239712500D01*
X362743750Y-252412500D02*
X364013750Y-252412500D01*
X362743750Y-240982500D02*
X362743750Y-239712500D01*
X362743750Y-251142500D02*
X362743750Y-252412500D01*
X374173750Y-252412500D02*
X375443750Y-252412500D01*
X375443750Y-252412500D02*
X375443750Y-251142500D01*
X375443750Y-239712500D02*
X374173750Y-239712500D01*
%TO.C,SW92*%
X334168750Y-239712500D02*
X335438750Y-239712500D01*
X346868750Y-240982500D02*
X346868750Y-239712500D01*
X334168750Y-252412500D02*
X335438750Y-252412500D01*
X334168750Y-240982500D02*
X334168750Y-239712500D01*
X334168750Y-251142500D02*
X334168750Y-252412500D01*
X345598750Y-252412500D02*
X346868750Y-252412500D01*
X346868750Y-252412500D02*
X346868750Y-251142500D01*
X346868750Y-239712500D02*
X345598750Y-239712500D01*
%TO.C,SW90*%
X277018750Y-239712500D02*
X278288750Y-239712500D01*
X289718750Y-240982500D02*
X289718750Y-239712500D01*
X277018750Y-252412500D02*
X278288750Y-252412500D01*
X277018750Y-240982500D02*
X277018750Y-239712500D01*
X277018750Y-251142500D02*
X277018750Y-252412500D01*
X288448750Y-252412500D02*
X289718750Y-252412500D01*
X289718750Y-252412500D02*
X289718750Y-251142500D01*
X289718750Y-239712500D02*
X288448750Y-239712500D01*
%TO.C,SW89*%
X248443750Y-239712500D02*
X249713750Y-239712500D01*
X261143750Y-240982500D02*
X261143750Y-239712500D01*
X248443750Y-252412500D02*
X249713750Y-252412500D01*
X248443750Y-240982500D02*
X248443750Y-239712500D01*
X248443750Y-251142500D02*
X248443750Y-252412500D01*
X259873750Y-252412500D02*
X261143750Y-252412500D01*
X261143750Y-252412500D02*
X261143750Y-251142500D01*
X261143750Y-239712500D02*
X259873750Y-239712500D01*
%TO.C,SW88*%
X229393750Y-239712500D02*
X230663750Y-239712500D01*
X242093750Y-240982500D02*
X242093750Y-239712500D01*
X229393750Y-252412500D02*
X230663750Y-252412500D01*
X229393750Y-240982500D02*
X229393750Y-239712500D01*
X229393750Y-251142500D02*
X229393750Y-252412500D01*
X240823750Y-252412500D02*
X242093750Y-252412500D01*
X242093750Y-252412500D02*
X242093750Y-251142500D01*
X242093750Y-239712500D02*
X240823750Y-239712500D01*
%TO.C,SW87*%
X210343750Y-239712500D02*
X211613750Y-239712500D01*
X223043750Y-240982500D02*
X223043750Y-239712500D01*
X210343750Y-252412500D02*
X211613750Y-252412500D01*
X210343750Y-240982500D02*
X210343750Y-239712500D01*
X210343750Y-251142500D02*
X210343750Y-252412500D01*
X221773750Y-252412500D02*
X223043750Y-252412500D01*
X223043750Y-252412500D02*
X223043750Y-251142500D01*
X223043750Y-239712500D02*
X221773750Y-239712500D01*
%TO.C,SW86*%
X546893750Y-230187500D02*
X546893750Y-231457500D01*
X545623750Y-242887500D02*
X546893750Y-242887500D01*
X534193750Y-230187500D02*
X534193750Y-231457500D01*
X545623750Y-230187500D02*
X546893750Y-230187500D01*
X535463750Y-230187500D02*
X534193750Y-230187500D01*
X534193750Y-241617500D02*
X534193750Y-242887500D01*
X534193750Y-242887500D02*
X535463750Y-242887500D01*
X546893750Y-242887500D02*
X546893750Y-241617500D01*
%TO.C,SW85*%
X515143750Y-220662500D02*
X516413750Y-220662500D01*
X527843750Y-221932500D02*
X527843750Y-220662500D01*
X515143750Y-233362500D02*
X516413750Y-233362500D01*
X515143750Y-221932500D02*
X515143750Y-220662500D01*
X515143750Y-232092500D02*
X515143750Y-233362500D01*
X526573750Y-233362500D02*
X527843750Y-233362500D01*
X527843750Y-233362500D02*
X527843750Y-232092500D01*
X527843750Y-220662500D02*
X526573750Y-220662500D01*
%TO.C,SW84*%
X496093750Y-220662500D02*
X497363750Y-220662500D01*
X508793750Y-221932500D02*
X508793750Y-220662500D01*
X496093750Y-233362500D02*
X497363750Y-233362500D01*
X496093750Y-221932500D02*
X496093750Y-220662500D01*
X496093750Y-232092500D02*
X496093750Y-233362500D01*
X507523750Y-233362500D02*
X508793750Y-233362500D01*
X508793750Y-233362500D02*
X508793750Y-232092500D01*
X508793750Y-220662500D02*
X507523750Y-220662500D01*
%TO.C,SW83*%
X477043750Y-220662500D02*
X478313750Y-220662500D01*
X489743750Y-221932500D02*
X489743750Y-220662500D01*
X477043750Y-233362500D02*
X478313750Y-233362500D01*
X477043750Y-221932500D02*
X477043750Y-220662500D01*
X477043750Y-232092500D02*
X477043750Y-233362500D01*
X488473750Y-233362500D02*
X489743750Y-233362500D01*
X489743750Y-233362500D02*
X489743750Y-232092500D01*
X489743750Y-220662500D02*
X488473750Y-220662500D01*
%TO.C,SW82*%
X457993750Y-220662500D02*
X459263750Y-220662500D01*
X470693750Y-221932500D02*
X470693750Y-220662500D01*
X457993750Y-233362500D02*
X459263750Y-233362500D01*
X457993750Y-221932500D02*
X457993750Y-220662500D01*
X457993750Y-232092500D02*
X457993750Y-233362500D01*
X469423750Y-233362500D02*
X470693750Y-233362500D01*
X470693750Y-233362500D02*
X470693750Y-232092500D01*
X470693750Y-220662500D02*
X469423750Y-220662500D01*
%TO.C,SW81*%
X429418750Y-220662500D02*
X430688750Y-220662500D01*
X442118750Y-221932500D02*
X442118750Y-220662500D01*
X429418750Y-233362500D02*
X430688750Y-233362500D01*
X429418750Y-221932500D02*
X429418750Y-220662500D01*
X429418750Y-232092500D02*
X429418750Y-233362500D01*
X440848750Y-233362500D02*
X442118750Y-233362500D01*
X442118750Y-233362500D02*
X442118750Y-232092500D01*
X442118750Y-220662500D02*
X440848750Y-220662500D01*
%TO.C,SW80*%
X400843750Y-220662500D02*
X402113750Y-220662500D01*
X413543750Y-221932500D02*
X413543750Y-220662500D01*
X400843750Y-233362500D02*
X402113750Y-233362500D01*
X400843750Y-221932500D02*
X400843750Y-220662500D01*
X400843750Y-232092500D02*
X400843750Y-233362500D01*
X412273750Y-233362500D02*
X413543750Y-233362500D01*
X413543750Y-233362500D02*
X413543750Y-232092500D01*
X413543750Y-220662500D02*
X412273750Y-220662500D01*
%TO.C,SW79*%
X381793750Y-220662500D02*
X383063750Y-220662500D01*
X394493750Y-221932500D02*
X394493750Y-220662500D01*
X381793750Y-233362500D02*
X383063750Y-233362500D01*
X381793750Y-221932500D02*
X381793750Y-220662500D01*
X381793750Y-232092500D02*
X381793750Y-233362500D01*
X393223750Y-233362500D02*
X394493750Y-233362500D01*
X394493750Y-233362500D02*
X394493750Y-232092500D01*
X394493750Y-220662500D02*
X393223750Y-220662500D01*
%TO.C,SW78*%
X362743750Y-220662500D02*
X364013750Y-220662500D01*
X375443750Y-221932500D02*
X375443750Y-220662500D01*
X362743750Y-233362500D02*
X364013750Y-233362500D01*
X362743750Y-221932500D02*
X362743750Y-220662500D01*
X362743750Y-232092500D02*
X362743750Y-233362500D01*
X374173750Y-233362500D02*
X375443750Y-233362500D01*
X375443750Y-233362500D02*
X375443750Y-232092500D01*
X375443750Y-220662500D02*
X374173750Y-220662500D01*
%TO.C,SW77*%
X343693750Y-220662500D02*
X344963750Y-220662500D01*
X356393750Y-221932500D02*
X356393750Y-220662500D01*
X343693750Y-233362500D02*
X344963750Y-233362500D01*
X343693750Y-221932500D02*
X343693750Y-220662500D01*
X343693750Y-232092500D02*
X343693750Y-233362500D01*
X355123750Y-233362500D02*
X356393750Y-233362500D01*
X356393750Y-233362500D02*
X356393750Y-232092500D01*
X356393750Y-220662500D02*
X355123750Y-220662500D01*
%TO.C,SW76*%
X324643750Y-220662500D02*
X325913750Y-220662500D01*
X337343750Y-221932500D02*
X337343750Y-220662500D01*
X324643750Y-233362500D02*
X325913750Y-233362500D01*
X324643750Y-221932500D02*
X324643750Y-220662500D01*
X324643750Y-232092500D02*
X324643750Y-233362500D01*
X336073750Y-233362500D02*
X337343750Y-233362500D01*
X337343750Y-233362500D02*
X337343750Y-232092500D01*
X337343750Y-220662500D02*
X336073750Y-220662500D01*
%TO.C,SW75*%
X305593750Y-220662500D02*
X306863750Y-220662500D01*
X318293750Y-221932500D02*
X318293750Y-220662500D01*
X305593750Y-233362500D02*
X306863750Y-233362500D01*
X305593750Y-221932500D02*
X305593750Y-220662500D01*
X305593750Y-232092500D02*
X305593750Y-233362500D01*
X317023750Y-233362500D02*
X318293750Y-233362500D01*
X318293750Y-233362500D02*
X318293750Y-232092500D01*
X318293750Y-220662500D02*
X317023750Y-220662500D01*
%TO.C,SW74*%
X286543750Y-220662500D02*
X287813750Y-220662500D01*
X299243750Y-221932500D02*
X299243750Y-220662500D01*
X286543750Y-233362500D02*
X287813750Y-233362500D01*
X286543750Y-221932500D02*
X286543750Y-220662500D01*
X286543750Y-232092500D02*
X286543750Y-233362500D01*
X297973750Y-233362500D02*
X299243750Y-233362500D01*
X299243750Y-233362500D02*
X299243750Y-232092500D01*
X299243750Y-220662500D02*
X297973750Y-220662500D01*
%TO.C,SW73*%
X267493750Y-220662500D02*
X268763750Y-220662500D01*
X280193750Y-221932500D02*
X280193750Y-220662500D01*
X267493750Y-233362500D02*
X268763750Y-233362500D01*
X267493750Y-221932500D02*
X267493750Y-220662500D01*
X267493750Y-232092500D02*
X267493750Y-233362500D01*
X278923750Y-233362500D02*
X280193750Y-233362500D01*
X280193750Y-233362500D02*
X280193750Y-232092500D01*
X280193750Y-220662500D02*
X278923750Y-220662500D01*
%TO.C,SW72*%
X248443750Y-220662500D02*
X249713750Y-220662500D01*
X261143750Y-221932500D02*
X261143750Y-220662500D01*
X248443750Y-233362500D02*
X249713750Y-233362500D01*
X248443750Y-221932500D02*
X248443750Y-220662500D01*
X248443750Y-232092500D02*
X248443750Y-233362500D01*
X259873750Y-233362500D02*
X261143750Y-233362500D01*
X261143750Y-233362500D02*
X261143750Y-232092500D01*
X261143750Y-220662500D02*
X259873750Y-220662500D01*
%TO.C,SW71*%
X229393750Y-220662500D02*
X230663750Y-220662500D01*
X242093750Y-221932500D02*
X242093750Y-220662500D01*
X229393750Y-233362500D02*
X230663750Y-233362500D01*
X229393750Y-221932500D02*
X229393750Y-220662500D01*
X229393750Y-232092500D02*
X229393750Y-233362500D01*
X240823750Y-233362500D02*
X242093750Y-233362500D01*
X242093750Y-233362500D02*
X242093750Y-232092500D01*
X242093750Y-220662500D02*
X240823750Y-220662500D01*
%TO.C,SW70*%
X210343750Y-220662500D02*
X211613750Y-220662500D01*
X223043750Y-221932500D02*
X223043750Y-220662500D01*
X210343750Y-233362500D02*
X211613750Y-233362500D01*
X210343750Y-221932500D02*
X210343750Y-220662500D01*
X210343750Y-232092500D02*
X210343750Y-233362500D01*
X221773750Y-233362500D02*
X223043750Y-233362500D01*
X223043750Y-233362500D02*
X223043750Y-232092500D01*
X223043750Y-220662500D02*
X221773750Y-220662500D01*
%TO.C,SW68*%
X496093750Y-201612500D02*
X497363750Y-201612500D01*
X508793750Y-202882500D02*
X508793750Y-201612500D01*
X496093750Y-214312500D02*
X497363750Y-214312500D01*
X496093750Y-202882500D02*
X496093750Y-201612500D01*
X496093750Y-213042500D02*
X496093750Y-214312500D01*
X507523750Y-214312500D02*
X508793750Y-214312500D01*
X508793750Y-214312500D02*
X508793750Y-213042500D01*
X508793750Y-201612500D02*
X507523750Y-201612500D01*
%TO.C,SW67*%
X477043750Y-201612500D02*
X478313750Y-201612500D01*
X489743750Y-202882500D02*
X489743750Y-201612500D01*
X477043750Y-214312500D02*
X478313750Y-214312500D01*
X477043750Y-202882500D02*
X477043750Y-201612500D01*
X477043750Y-213042500D02*
X477043750Y-214312500D01*
X488473750Y-214312500D02*
X489743750Y-214312500D01*
X489743750Y-214312500D02*
X489743750Y-213042500D01*
X489743750Y-201612500D02*
X488473750Y-201612500D01*
%TO.C,SW66*%
X449262500Y-201612500D02*
X450532500Y-201612500D01*
X461962500Y-202882500D02*
X461962500Y-201612500D01*
X449262500Y-214312500D02*
X450532500Y-214312500D01*
X449262500Y-202882500D02*
X449262500Y-201612500D01*
X449262500Y-213042500D02*
X449262500Y-214312500D01*
X460692500Y-214312500D02*
X461962500Y-214312500D01*
X461962500Y-214312500D02*
X461962500Y-213042500D01*
X461962500Y-201612500D02*
X460692500Y-201612500D01*
%TO.C,SW65*%
X419893750Y-201612500D02*
X421163750Y-201612500D01*
X432593750Y-202882500D02*
X432593750Y-201612500D01*
X419893750Y-214312500D02*
X421163750Y-214312500D01*
X419893750Y-202882500D02*
X419893750Y-201612500D01*
X419893750Y-213042500D02*
X419893750Y-214312500D01*
X431323750Y-214312500D02*
X432593750Y-214312500D01*
X432593750Y-214312500D02*
X432593750Y-213042500D01*
X432593750Y-201612500D02*
X431323750Y-201612500D01*
%TO.C,SW64*%
X400843750Y-201612500D02*
X402113750Y-201612500D01*
X413543750Y-202882500D02*
X413543750Y-201612500D01*
X400843750Y-214312500D02*
X402113750Y-214312500D01*
X400843750Y-202882500D02*
X400843750Y-201612500D01*
X400843750Y-213042500D02*
X400843750Y-214312500D01*
X412273750Y-214312500D02*
X413543750Y-214312500D01*
X413543750Y-214312500D02*
X413543750Y-213042500D01*
X413543750Y-201612500D02*
X412273750Y-201612500D01*
%TO.C,SW63*%
X381793750Y-201612500D02*
X383063750Y-201612500D01*
X394493750Y-202882500D02*
X394493750Y-201612500D01*
X381793750Y-214312500D02*
X383063750Y-214312500D01*
X381793750Y-202882500D02*
X381793750Y-201612500D01*
X381793750Y-213042500D02*
X381793750Y-214312500D01*
X393223750Y-214312500D02*
X394493750Y-214312500D01*
X394493750Y-214312500D02*
X394493750Y-213042500D01*
X394493750Y-201612500D02*
X393223750Y-201612500D01*
%TO.C,SW62*%
X362743750Y-201612500D02*
X364013750Y-201612500D01*
X375443750Y-202882500D02*
X375443750Y-201612500D01*
X362743750Y-214312500D02*
X364013750Y-214312500D01*
X362743750Y-202882500D02*
X362743750Y-201612500D01*
X362743750Y-213042500D02*
X362743750Y-214312500D01*
X374173750Y-214312500D02*
X375443750Y-214312500D01*
X375443750Y-214312500D02*
X375443750Y-213042500D01*
X375443750Y-201612500D02*
X374173750Y-201612500D01*
%TO.C,SW61*%
X343693750Y-201612500D02*
X344963750Y-201612500D01*
X356393750Y-202882500D02*
X356393750Y-201612500D01*
X343693750Y-214312500D02*
X344963750Y-214312500D01*
X343693750Y-202882500D02*
X343693750Y-201612500D01*
X343693750Y-213042500D02*
X343693750Y-214312500D01*
X355123750Y-214312500D02*
X356393750Y-214312500D01*
X356393750Y-214312500D02*
X356393750Y-213042500D01*
X356393750Y-201612500D02*
X355123750Y-201612500D01*
%TO.C,SW60*%
X324643750Y-201612500D02*
X325913750Y-201612500D01*
X337343750Y-202882500D02*
X337343750Y-201612500D01*
X324643750Y-214312500D02*
X325913750Y-214312500D01*
X324643750Y-202882500D02*
X324643750Y-201612500D01*
X324643750Y-213042500D02*
X324643750Y-214312500D01*
X336073750Y-214312500D02*
X337343750Y-214312500D01*
X337343750Y-214312500D02*
X337343750Y-213042500D01*
X337343750Y-201612500D02*
X336073750Y-201612500D01*
%TO.C,SW59*%
X305593750Y-201612500D02*
X306863750Y-201612500D01*
X318293750Y-202882500D02*
X318293750Y-201612500D01*
X305593750Y-214312500D02*
X306863750Y-214312500D01*
X305593750Y-202882500D02*
X305593750Y-201612500D01*
X305593750Y-213042500D02*
X305593750Y-214312500D01*
X317023750Y-214312500D02*
X318293750Y-214312500D01*
X318293750Y-214312500D02*
X318293750Y-213042500D01*
X318293750Y-201612500D02*
X317023750Y-201612500D01*
%TO.C,SW58*%
X286543750Y-201612500D02*
X287813750Y-201612500D01*
X299243750Y-202882500D02*
X299243750Y-201612500D01*
X286543750Y-214312500D02*
X287813750Y-214312500D01*
X286543750Y-202882500D02*
X286543750Y-201612500D01*
X286543750Y-213042500D02*
X286543750Y-214312500D01*
X297973750Y-214312500D02*
X299243750Y-214312500D01*
X299243750Y-214312500D02*
X299243750Y-213042500D01*
X299243750Y-201612500D02*
X297973750Y-201612500D01*
%TO.C,SW57*%
X267493750Y-201612500D02*
X268763750Y-201612500D01*
X280193750Y-202882500D02*
X280193750Y-201612500D01*
X267493750Y-214312500D02*
X268763750Y-214312500D01*
X267493750Y-202882500D02*
X267493750Y-201612500D01*
X267493750Y-213042500D02*
X267493750Y-214312500D01*
X278923750Y-214312500D02*
X280193750Y-214312500D01*
X280193750Y-214312500D02*
X280193750Y-213042500D01*
X280193750Y-201612500D02*
X278923750Y-201612500D01*
%TO.C,SW56*%
X248443750Y-201612500D02*
X249713750Y-201612500D01*
X261143750Y-202882500D02*
X261143750Y-201612500D01*
X248443750Y-214312500D02*
X249713750Y-214312500D01*
X248443750Y-202882500D02*
X248443750Y-201612500D01*
X248443750Y-213042500D02*
X248443750Y-214312500D01*
X259873750Y-214312500D02*
X261143750Y-214312500D01*
X261143750Y-214312500D02*
X261143750Y-213042500D01*
X261143750Y-201612500D02*
X259873750Y-201612500D01*
%TO.C,SW55*%
X229393750Y-201612500D02*
X230663750Y-201612500D01*
X242093750Y-202882500D02*
X242093750Y-201612500D01*
X229393750Y-214312500D02*
X230663750Y-214312500D01*
X229393750Y-202882500D02*
X229393750Y-201612500D01*
X229393750Y-213042500D02*
X229393750Y-214312500D01*
X240823750Y-214312500D02*
X242093750Y-214312500D01*
X242093750Y-214312500D02*
X242093750Y-213042500D01*
X242093750Y-201612500D02*
X240823750Y-201612500D01*
%TO.C,SW54*%
X210343750Y-201612500D02*
X211613750Y-201612500D01*
X223043750Y-202882500D02*
X223043750Y-201612500D01*
X210343750Y-214312500D02*
X211613750Y-214312500D01*
X210343750Y-202882500D02*
X210343750Y-201612500D01*
X210343750Y-213042500D02*
X210343750Y-214312500D01*
X221773750Y-214312500D02*
X223043750Y-214312500D01*
X223043750Y-214312500D02*
X223043750Y-213042500D01*
X223043750Y-201612500D02*
X221773750Y-201612500D01*
%TO.C,SW53*%
X546893750Y-192087500D02*
X546893750Y-193357500D01*
X545623750Y-204787500D02*
X546893750Y-204787500D01*
X534193750Y-192087500D02*
X534193750Y-193357500D01*
X545623750Y-192087500D02*
X546893750Y-192087500D01*
X535463750Y-192087500D02*
X534193750Y-192087500D01*
X534193750Y-203517500D02*
X534193750Y-204787500D01*
X534193750Y-204787500D02*
X535463750Y-204787500D01*
X546893750Y-204787500D02*
X546893750Y-203517500D01*
%TO.C,SW52*%
X515143750Y-182562500D02*
X516413750Y-182562500D01*
X527843750Y-183832500D02*
X527843750Y-182562500D01*
X515143750Y-195262500D02*
X516413750Y-195262500D01*
X515143750Y-183832500D02*
X515143750Y-182562500D01*
X515143750Y-193992500D02*
X515143750Y-195262500D01*
X526573750Y-195262500D02*
X527843750Y-195262500D01*
X527843750Y-195262500D02*
X527843750Y-193992500D01*
X527843750Y-182562500D02*
X526573750Y-182562500D01*
%TO.C,SW51*%
X496093750Y-182562500D02*
X497363750Y-182562500D01*
X508793750Y-183832500D02*
X508793750Y-182562500D01*
X496093750Y-195262500D02*
X497363750Y-195262500D01*
X496093750Y-183832500D02*
X496093750Y-182562500D01*
X496093750Y-193992500D02*
X496093750Y-195262500D01*
X507523750Y-195262500D02*
X508793750Y-195262500D01*
X508793750Y-195262500D02*
X508793750Y-193992500D01*
X508793750Y-182562500D02*
X507523750Y-182562500D01*
%TO.C,SW50*%
X477043750Y-182562500D02*
X478313750Y-182562500D01*
X489743750Y-183832500D02*
X489743750Y-182562500D01*
X477043750Y-195262500D02*
X478313750Y-195262500D01*
X477043750Y-183832500D02*
X477043750Y-182562500D01*
X477043750Y-193992500D02*
X477043750Y-195262500D01*
X488473750Y-195262500D02*
X489743750Y-195262500D01*
X489743750Y-195262500D02*
X489743750Y-193992500D01*
X489743750Y-182562500D02*
X488473750Y-182562500D01*
%TO.C,SW49*%
X457993750Y-182562500D02*
X459263750Y-182562500D01*
X470693750Y-183832500D02*
X470693750Y-182562500D01*
X457993750Y-195262500D02*
X459263750Y-195262500D01*
X457993750Y-183832500D02*
X457993750Y-182562500D01*
X457993750Y-193992500D02*
X457993750Y-195262500D01*
X469423750Y-195262500D02*
X470693750Y-195262500D01*
X470693750Y-195262500D02*
X470693750Y-193992500D01*
X470693750Y-182562500D02*
X469423750Y-182562500D01*
%TO.C,SW48*%
X438943750Y-182562500D02*
X440213750Y-182562500D01*
X451643750Y-183832500D02*
X451643750Y-182562500D01*
X438943750Y-195262500D02*
X440213750Y-195262500D01*
X438943750Y-183832500D02*
X438943750Y-182562500D01*
X438943750Y-193992500D02*
X438943750Y-195262500D01*
X450373750Y-195262500D02*
X451643750Y-195262500D01*
X451643750Y-195262500D02*
X451643750Y-193992500D01*
X451643750Y-182562500D02*
X450373750Y-182562500D01*
%TO.C,SW47*%
X419893750Y-182562500D02*
X421163750Y-182562500D01*
X432593750Y-183832500D02*
X432593750Y-182562500D01*
X419893750Y-195262500D02*
X421163750Y-195262500D01*
X419893750Y-183832500D02*
X419893750Y-182562500D01*
X419893750Y-193992500D02*
X419893750Y-195262500D01*
X431323750Y-195262500D02*
X432593750Y-195262500D01*
X432593750Y-195262500D02*
X432593750Y-193992500D01*
X432593750Y-182562500D02*
X431323750Y-182562500D01*
%TO.C,SW46*%
X400843750Y-182562500D02*
X402113750Y-182562500D01*
X413543750Y-183832500D02*
X413543750Y-182562500D01*
X400843750Y-195262500D02*
X402113750Y-195262500D01*
X400843750Y-183832500D02*
X400843750Y-182562500D01*
X400843750Y-193992500D02*
X400843750Y-195262500D01*
X412273750Y-195262500D02*
X413543750Y-195262500D01*
X413543750Y-195262500D02*
X413543750Y-193992500D01*
X413543750Y-182562500D02*
X412273750Y-182562500D01*
%TO.C,SW45*%
X381793750Y-182562500D02*
X383063750Y-182562500D01*
X394493750Y-183832500D02*
X394493750Y-182562500D01*
X381793750Y-195262500D02*
X383063750Y-195262500D01*
X381793750Y-183832500D02*
X381793750Y-182562500D01*
X381793750Y-193992500D02*
X381793750Y-195262500D01*
X393223750Y-195262500D02*
X394493750Y-195262500D01*
X394493750Y-195262500D02*
X394493750Y-193992500D01*
X394493750Y-182562500D02*
X393223750Y-182562500D01*
%TO.C,SW44*%
X362743750Y-182562500D02*
X364013750Y-182562500D01*
X375443750Y-183832500D02*
X375443750Y-182562500D01*
X362743750Y-195262500D02*
X364013750Y-195262500D01*
X362743750Y-183832500D02*
X362743750Y-182562500D01*
X362743750Y-193992500D02*
X362743750Y-195262500D01*
X374173750Y-195262500D02*
X375443750Y-195262500D01*
X375443750Y-195262500D02*
X375443750Y-193992500D01*
X375443750Y-182562500D02*
X374173750Y-182562500D01*
%TO.C,SW43*%
X343693750Y-182562500D02*
X344963750Y-182562500D01*
X356393750Y-183832500D02*
X356393750Y-182562500D01*
X343693750Y-195262500D02*
X344963750Y-195262500D01*
X343693750Y-183832500D02*
X343693750Y-182562500D01*
X343693750Y-193992500D02*
X343693750Y-195262500D01*
X355123750Y-195262500D02*
X356393750Y-195262500D01*
X356393750Y-195262500D02*
X356393750Y-193992500D01*
X356393750Y-182562500D02*
X355123750Y-182562500D01*
%TO.C,SW42*%
X324643750Y-182562500D02*
X325913750Y-182562500D01*
X337343750Y-183832500D02*
X337343750Y-182562500D01*
X324643750Y-195262500D02*
X325913750Y-195262500D01*
X324643750Y-183832500D02*
X324643750Y-182562500D01*
X324643750Y-193992500D02*
X324643750Y-195262500D01*
X336073750Y-195262500D02*
X337343750Y-195262500D01*
X337343750Y-195262500D02*
X337343750Y-193992500D01*
X337343750Y-182562500D02*
X336073750Y-182562500D01*
%TO.C,SW41*%
X305593750Y-182562500D02*
X306863750Y-182562500D01*
X318293750Y-183832500D02*
X318293750Y-182562500D01*
X305593750Y-195262500D02*
X306863750Y-195262500D01*
X305593750Y-183832500D02*
X305593750Y-182562500D01*
X305593750Y-193992500D02*
X305593750Y-195262500D01*
X317023750Y-195262500D02*
X318293750Y-195262500D01*
X318293750Y-195262500D02*
X318293750Y-193992500D01*
X318293750Y-182562500D02*
X317023750Y-182562500D01*
%TO.C,SW40*%
X286543750Y-182562500D02*
X287813750Y-182562500D01*
X299243750Y-183832500D02*
X299243750Y-182562500D01*
X286543750Y-195262500D02*
X287813750Y-195262500D01*
X286543750Y-183832500D02*
X286543750Y-182562500D01*
X286543750Y-193992500D02*
X286543750Y-195262500D01*
X297973750Y-195262500D02*
X299243750Y-195262500D01*
X299243750Y-195262500D02*
X299243750Y-193992500D01*
X299243750Y-182562500D02*
X297973750Y-182562500D01*
%TO.C,SW39*%
X267493750Y-182562500D02*
X268763750Y-182562500D01*
X280193750Y-183832500D02*
X280193750Y-182562500D01*
X267493750Y-195262500D02*
X268763750Y-195262500D01*
X267493750Y-183832500D02*
X267493750Y-182562500D01*
X267493750Y-193992500D02*
X267493750Y-195262500D01*
X278923750Y-195262500D02*
X280193750Y-195262500D01*
X280193750Y-195262500D02*
X280193750Y-193992500D01*
X280193750Y-182562500D02*
X278923750Y-182562500D01*
%TO.C,SW38*%
X248443750Y-182562500D02*
X249713750Y-182562500D01*
X261143750Y-183832500D02*
X261143750Y-182562500D01*
X248443750Y-195262500D02*
X249713750Y-195262500D01*
X248443750Y-183832500D02*
X248443750Y-182562500D01*
X248443750Y-193992500D02*
X248443750Y-195262500D01*
X259873750Y-195262500D02*
X261143750Y-195262500D01*
X261143750Y-195262500D02*
X261143750Y-193992500D01*
X261143750Y-182562500D02*
X259873750Y-182562500D01*
%TO.C,SW37*%
X229393750Y-182562500D02*
X230663750Y-182562500D01*
X242093750Y-183832500D02*
X242093750Y-182562500D01*
X229393750Y-195262500D02*
X230663750Y-195262500D01*
X229393750Y-183832500D02*
X229393750Y-182562500D01*
X229393750Y-193992500D02*
X229393750Y-195262500D01*
X240823750Y-195262500D02*
X242093750Y-195262500D01*
X242093750Y-195262500D02*
X242093750Y-193992500D01*
X242093750Y-182562500D02*
X240823750Y-182562500D01*
%TO.C,SW36*%
X210343750Y-182562500D02*
X211613750Y-182562500D01*
X223043750Y-183832500D02*
X223043750Y-182562500D01*
X210343750Y-195262500D02*
X211613750Y-195262500D01*
X210343750Y-183832500D02*
X210343750Y-182562500D01*
X210343750Y-193992500D02*
X210343750Y-195262500D01*
X221773750Y-195262500D02*
X223043750Y-195262500D01*
X223043750Y-195262500D02*
X223043750Y-193992500D01*
X223043750Y-182562500D02*
X221773750Y-182562500D01*
%TO.C,SW35*%
X534193750Y-163512500D02*
X535463750Y-163512500D01*
X546893750Y-164782500D02*
X546893750Y-163512500D01*
X534193750Y-176212500D02*
X535463750Y-176212500D01*
X534193750Y-164782500D02*
X534193750Y-163512500D01*
X534193750Y-174942500D02*
X534193750Y-176212500D01*
X545623750Y-176212500D02*
X546893750Y-176212500D01*
X546893750Y-176212500D02*
X546893750Y-174942500D01*
X546893750Y-163512500D02*
X545623750Y-163512500D01*
%TO.C,SW34*%
X515143750Y-163512500D02*
X516413750Y-163512500D01*
X527843750Y-164782500D02*
X527843750Y-163512500D01*
X515143750Y-176212500D02*
X516413750Y-176212500D01*
X515143750Y-164782500D02*
X515143750Y-163512500D01*
X515143750Y-174942500D02*
X515143750Y-176212500D01*
X526573750Y-176212500D02*
X527843750Y-176212500D01*
X527843750Y-176212500D02*
X527843750Y-174942500D01*
X527843750Y-163512500D02*
X526573750Y-163512500D01*
%TO.C,SW33*%
X496093750Y-163512500D02*
X497363750Y-163512500D01*
X508793750Y-164782500D02*
X508793750Y-163512500D01*
X496093750Y-176212500D02*
X497363750Y-176212500D01*
X496093750Y-164782500D02*
X496093750Y-163512500D01*
X496093750Y-174942500D02*
X496093750Y-176212500D01*
X507523750Y-176212500D02*
X508793750Y-176212500D01*
X508793750Y-176212500D02*
X508793750Y-174942500D01*
X508793750Y-163512500D02*
X507523750Y-163512500D01*
%TO.C,SW32*%
X477043750Y-163512500D02*
X478313750Y-163512500D01*
X489743750Y-164782500D02*
X489743750Y-163512500D01*
X477043750Y-176212500D02*
X478313750Y-176212500D01*
X477043750Y-164782500D02*
X477043750Y-163512500D01*
X477043750Y-174942500D02*
X477043750Y-176212500D01*
X488473750Y-176212500D02*
X489743750Y-176212500D01*
X489743750Y-176212500D02*
X489743750Y-174942500D01*
X489743750Y-163512500D02*
X488473750Y-163512500D01*
%TO.C,SW31*%
X457993750Y-163512500D02*
X459263750Y-163512500D01*
X470693750Y-164782500D02*
X470693750Y-163512500D01*
X457993750Y-176212500D02*
X459263750Y-176212500D01*
X457993750Y-164782500D02*
X457993750Y-163512500D01*
X457993750Y-174942500D02*
X457993750Y-176212500D01*
X469423750Y-176212500D02*
X470693750Y-176212500D01*
X470693750Y-176212500D02*
X470693750Y-174942500D01*
X470693750Y-163512500D02*
X469423750Y-163512500D01*
%TO.C,SW30*%
X438943750Y-163512500D02*
X440213750Y-163512500D01*
X451643750Y-164782500D02*
X451643750Y-163512500D01*
X438943750Y-176212500D02*
X440213750Y-176212500D01*
X438943750Y-164782500D02*
X438943750Y-163512500D01*
X438943750Y-174942500D02*
X438943750Y-176212500D01*
X450373750Y-176212500D02*
X451643750Y-176212500D01*
X451643750Y-176212500D02*
X451643750Y-174942500D01*
X451643750Y-163512500D02*
X450373750Y-163512500D01*
%TO.C,SW29*%
X419893750Y-163512500D02*
X421163750Y-163512500D01*
X432593750Y-164782500D02*
X432593750Y-163512500D01*
X419893750Y-176212500D02*
X421163750Y-176212500D01*
X419893750Y-164782500D02*
X419893750Y-163512500D01*
X419893750Y-174942500D02*
X419893750Y-176212500D01*
X431323750Y-176212500D02*
X432593750Y-176212500D01*
X432593750Y-176212500D02*
X432593750Y-174942500D01*
X432593750Y-163512500D02*
X431323750Y-163512500D01*
%TO.C,SW28*%
X400843750Y-163512500D02*
X402113750Y-163512500D01*
X413543750Y-164782500D02*
X413543750Y-163512500D01*
X400843750Y-176212500D02*
X402113750Y-176212500D01*
X400843750Y-164782500D02*
X400843750Y-163512500D01*
X400843750Y-174942500D02*
X400843750Y-176212500D01*
X412273750Y-176212500D02*
X413543750Y-176212500D01*
X413543750Y-176212500D02*
X413543750Y-174942500D01*
X413543750Y-163512500D02*
X412273750Y-163512500D01*
%TO.C,SW27*%
X381793750Y-163512500D02*
X383063750Y-163512500D01*
X394493750Y-164782500D02*
X394493750Y-163512500D01*
X381793750Y-176212500D02*
X383063750Y-176212500D01*
X381793750Y-164782500D02*
X381793750Y-163512500D01*
X381793750Y-174942500D02*
X381793750Y-176212500D01*
X393223750Y-176212500D02*
X394493750Y-176212500D01*
X394493750Y-176212500D02*
X394493750Y-174942500D01*
X394493750Y-163512500D02*
X393223750Y-163512500D01*
%TO.C,SW26*%
X362743750Y-163512500D02*
X364013750Y-163512500D01*
X375443750Y-164782500D02*
X375443750Y-163512500D01*
X362743750Y-176212500D02*
X364013750Y-176212500D01*
X362743750Y-164782500D02*
X362743750Y-163512500D01*
X362743750Y-174942500D02*
X362743750Y-176212500D01*
X374173750Y-176212500D02*
X375443750Y-176212500D01*
X375443750Y-176212500D02*
X375443750Y-174942500D01*
X375443750Y-163512500D02*
X374173750Y-163512500D01*
%TO.C,SW25*%
X343693750Y-163512500D02*
X344963750Y-163512500D01*
X356393750Y-164782500D02*
X356393750Y-163512500D01*
X343693750Y-176212500D02*
X344963750Y-176212500D01*
X343693750Y-164782500D02*
X343693750Y-163512500D01*
X343693750Y-174942500D02*
X343693750Y-176212500D01*
X355123750Y-176212500D02*
X356393750Y-176212500D01*
X356393750Y-176212500D02*
X356393750Y-174942500D01*
X356393750Y-163512500D02*
X355123750Y-163512500D01*
%TO.C,SW24*%
X324643750Y-163512500D02*
X325913750Y-163512500D01*
X337343750Y-164782500D02*
X337343750Y-163512500D01*
X324643750Y-176212500D02*
X325913750Y-176212500D01*
X324643750Y-164782500D02*
X324643750Y-163512500D01*
X324643750Y-174942500D02*
X324643750Y-176212500D01*
X336073750Y-176212500D02*
X337343750Y-176212500D01*
X337343750Y-176212500D02*
X337343750Y-174942500D01*
X337343750Y-163512500D02*
X336073750Y-163512500D01*
%TO.C,SW23*%
X305593750Y-163512500D02*
X306863750Y-163512500D01*
X318293750Y-164782500D02*
X318293750Y-163512500D01*
X305593750Y-176212500D02*
X306863750Y-176212500D01*
X305593750Y-164782500D02*
X305593750Y-163512500D01*
X305593750Y-174942500D02*
X305593750Y-176212500D01*
X317023750Y-176212500D02*
X318293750Y-176212500D01*
X318293750Y-176212500D02*
X318293750Y-174942500D01*
X318293750Y-163512500D02*
X317023750Y-163512500D01*
%TO.C,SW22*%
X286543750Y-163512500D02*
X287813750Y-163512500D01*
X299243750Y-164782500D02*
X299243750Y-163512500D01*
X286543750Y-176212500D02*
X287813750Y-176212500D01*
X286543750Y-164782500D02*
X286543750Y-163512500D01*
X286543750Y-174942500D02*
X286543750Y-176212500D01*
X297973750Y-176212500D02*
X299243750Y-176212500D01*
X299243750Y-176212500D02*
X299243750Y-174942500D01*
X299243750Y-163512500D02*
X297973750Y-163512500D01*
%TO.C,SW21*%
X267493750Y-163512500D02*
X268763750Y-163512500D01*
X280193750Y-164782500D02*
X280193750Y-163512500D01*
X267493750Y-176212500D02*
X268763750Y-176212500D01*
X267493750Y-164782500D02*
X267493750Y-163512500D01*
X267493750Y-174942500D02*
X267493750Y-176212500D01*
X278923750Y-176212500D02*
X280193750Y-176212500D01*
X280193750Y-176212500D02*
X280193750Y-174942500D01*
X280193750Y-163512500D02*
X278923750Y-163512500D01*
%TO.C,SW20*%
X248443750Y-163512500D02*
X249713750Y-163512500D01*
X261143750Y-164782500D02*
X261143750Y-163512500D01*
X248443750Y-176212500D02*
X249713750Y-176212500D01*
X248443750Y-164782500D02*
X248443750Y-163512500D01*
X248443750Y-174942500D02*
X248443750Y-176212500D01*
X259873750Y-176212500D02*
X261143750Y-176212500D01*
X261143750Y-176212500D02*
X261143750Y-174942500D01*
X261143750Y-163512500D02*
X259873750Y-163512500D01*
%TO.C,SW19*%
X229393750Y-163512500D02*
X230663750Y-163512500D01*
X242093750Y-164782500D02*
X242093750Y-163512500D01*
X229393750Y-176212500D02*
X230663750Y-176212500D01*
X229393750Y-164782500D02*
X229393750Y-163512500D01*
X229393750Y-174942500D02*
X229393750Y-176212500D01*
X240823750Y-176212500D02*
X242093750Y-176212500D01*
X242093750Y-176212500D02*
X242093750Y-174942500D01*
X242093750Y-163512500D02*
X240823750Y-163512500D01*
%TO.C,SW18*%
X210343750Y-163512500D02*
X211613750Y-163512500D01*
X223043750Y-164782500D02*
X223043750Y-163512500D01*
X210343750Y-176212500D02*
X211613750Y-176212500D01*
X210343750Y-164782500D02*
X210343750Y-163512500D01*
X210343750Y-174942500D02*
X210343750Y-176212500D01*
X221773750Y-176212500D02*
X223043750Y-176212500D01*
X223043750Y-176212500D02*
X223043750Y-174942500D01*
X223043750Y-163512500D02*
X221773750Y-163512500D01*
%TO.C,SW16*%
X515143750Y-144462500D02*
X516413750Y-144462500D01*
X527843750Y-145732500D02*
X527843750Y-144462500D01*
X515143750Y-157162500D02*
X516413750Y-157162500D01*
X515143750Y-145732500D02*
X515143750Y-144462500D01*
X515143750Y-155892500D02*
X515143750Y-157162500D01*
X526573750Y-157162500D02*
X527843750Y-157162500D01*
X527843750Y-157162500D02*
X527843750Y-155892500D01*
X527843750Y-144462500D02*
X526573750Y-144462500D01*
%TO.C,SW15*%
X496093750Y-144462500D02*
X497363750Y-144462500D01*
X508793750Y-145732500D02*
X508793750Y-144462500D01*
X496093750Y-157162500D02*
X497363750Y-157162500D01*
X496093750Y-145732500D02*
X496093750Y-144462500D01*
X496093750Y-155892500D02*
X496093750Y-157162500D01*
X507523750Y-157162500D02*
X508793750Y-157162500D01*
X508793750Y-157162500D02*
X508793750Y-155892500D01*
X508793750Y-144462500D02*
X507523750Y-144462500D01*
%TO.C,SW14*%
X477043750Y-144462500D02*
X478313750Y-144462500D01*
X489743750Y-145732500D02*
X489743750Y-144462500D01*
X477043750Y-157162500D02*
X478313750Y-157162500D01*
X477043750Y-145732500D02*
X477043750Y-144462500D01*
X477043750Y-155892500D02*
X477043750Y-157162500D01*
X488473750Y-157162500D02*
X489743750Y-157162500D01*
X489743750Y-157162500D02*
X489743750Y-155892500D01*
X489743750Y-144462500D02*
X488473750Y-144462500D01*
%TO.C,SW13*%
X438943750Y-144462500D02*
X440213750Y-144462500D01*
X451643750Y-145732500D02*
X451643750Y-144462500D01*
X438943750Y-157162500D02*
X440213750Y-157162500D01*
X438943750Y-145732500D02*
X438943750Y-144462500D01*
X438943750Y-155892500D02*
X438943750Y-157162500D01*
X450373750Y-157162500D02*
X451643750Y-157162500D01*
X451643750Y-157162500D02*
X451643750Y-155892500D01*
X451643750Y-144462500D02*
X450373750Y-144462500D01*
%TO.C,SW12*%
X419893750Y-144462500D02*
X421163750Y-144462500D01*
X432593750Y-145732500D02*
X432593750Y-144462500D01*
X419893750Y-157162500D02*
X421163750Y-157162500D01*
X419893750Y-145732500D02*
X419893750Y-144462500D01*
X419893750Y-155892500D02*
X419893750Y-157162500D01*
X431323750Y-157162500D02*
X432593750Y-157162500D01*
X432593750Y-157162500D02*
X432593750Y-155892500D01*
X432593750Y-144462500D02*
X431323750Y-144462500D01*
%TO.C,SW11*%
X400843750Y-144462500D02*
X402113750Y-144462500D01*
X413543750Y-145732500D02*
X413543750Y-144462500D01*
X400843750Y-157162500D02*
X402113750Y-157162500D01*
X400843750Y-145732500D02*
X400843750Y-144462500D01*
X400843750Y-155892500D02*
X400843750Y-157162500D01*
X412273750Y-157162500D02*
X413543750Y-157162500D01*
X413543750Y-157162500D02*
X413543750Y-155892500D01*
X413543750Y-144462500D02*
X412273750Y-144462500D01*
%TO.C,SW10*%
X381793750Y-144462500D02*
X383063750Y-144462500D01*
X394493750Y-145732500D02*
X394493750Y-144462500D01*
X381793750Y-157162500D02*
X383063750Y-157162500D01*
X381793750Y-145732500D02*
X381793750Y-144462500D01*
X381793750Y-155892500D02*
X381793750Y-157162500D01*
X393223750Y-157162500D02*
X394493750Y-157162500D01*
X394493750Y-157162500D02*
X394493750Y-155892500D01*
X394493750Y-144462500D02*
X393223750Y-144462500D01*
%TO.C,SW9*%
X362743750Y-144462500D02*
X364013750Y-144462500D01*
X375443750Y-145732500D02*
X375443750Y-144462500D01*
X362743750Y-157162500D02*
X364013750Y-157162500D01*
X362743750Y-145732500D02*
X362743750Y-144462500D01*
X362743750Y-155892500D02*
X362743750Y-157162500D01*
X374173750Y-157162500D02*
X375443750Y-157162500D01*
X375443750Y-157162500D02*
X375443750Y-155892500D01*
X375443750Y-144462500D02*
X374173750Y-144462500D01*
%TO.C,SW8*%
X343693750Y-144462500D02*
X344963750Y-144462500D01*
X356393750Y-145732500D02*
X356393750Y-144462500D01*
X343693750Y-157162500D02*
X344963750Y-157162500D01*
X343693750Y-145732500D02*
X343693750Y-144462500D01*
X343693750Y-155892500D02*
X343693750Y-157162500D01*
X355123750Y-157162500D02*
X356393750Y-157162500D01*
X356393750Y-157162500D02*
X356393750Y-155892500D01*
X356393750Y-144462500D02*
X355123750Y-144462500D01*
%TO.C,SW5*%
X286543750Y-144462500D02*
X287813750Y-144462500D01*
X299243750Y-145732500D02*
X299243750Y-144462500D01*
X286543750Y-157162500D02*
X287813750Y-157162500D01*
X286543750Y-145732500D02*
X286543750Y-144462500D01*
X286543750Y-155892500D02*
X286543750Y-157162500D01*
X297973750Y-157162500D02*
X299243750Y-157162500D01*
X299243750Y-157162500D02*
X299243750Y-155892500D01*
X299243750Y-144462500D02*
X297973750Y-144462500D01*
%TO.C,SW3*%
X248437400Y-144462500D02*
X249707400Y-144462500D01*
X261137400Y-145732500D02*
X261137400Y-144462500D01*
X248437400Y-157162500D02*
X249707400Y-157162500D01*
X248437400Y-145732500D02*
X248437400Y-144462500D01*
X248437400Y-155892500D02*
X248437400Y-157162500D01*
X259867400Y-157162500D02*
X261137400Y-157162500D01*
X261137400Y-157162500D02*
X261137400Y-155892500D01*
X261137400Y-144462500D02*
X259867400Y-144462500D01*
%TO.C,SW2*%
X229393750Y-144462500D02*
X230663750Y-144462500D01*
X242093750Y-145732500D02*
X242093750Y-144462500D01*
X229393750Y-157162500D02*
X230663750Y-157162500D01*
X229393750Y-145732500D02*
X229393750Y-144462500D01*
X229393750Y-155892500D02*
X229393750Y-157162500D01*
X240823750Y-157162500D02*
X242093750Y-157162500D01*
X242093750Y-157162500D02*
X242093750Y-155892500D01*
X242093750Y-144462500D02*
X240823750Y-144462500D01*
%TO.C,SW1*%
X210343750Y-144462500D02*
X211613750Y-144462500D01*
X223043750Y-145732500D02*
X223043750Y-144462500D01*
X210343750Y-157162500D02*
X211613750Y-157162500D01*
X210343750Y-145732500D02*
X210343750Y-144462500D01*
X210343750Y-155892500D02*
X210343750Y-157162500D01*
X221773750Y-157162500D02*
X223043750Y-157162500D01*
X223043750Y-157162500D02*
X223043750Y-155892500D01*
X223043750Y-144462500D02*
X221773750Y-144462500D01*
%TO.C,U2*%
D10*
X477105654Y-133712023D02*
X476305654Y-133712023D01*
X476305654Y-133902500D01*
X476343750Y-134016785D01*
X476419940Y-134092976D01*
X476496130Y-134131071D01*
X476648511Y-134169166D01*
X476762797Y-134169166D01*
X476915178Y-134131071D01*
X476991369Y-134092976D01*
X477067559Y-134016785D01*
X477105654Y-133902500D01*
X477105654Y-133712023D01*
X476305654Y-134892976D02*
X476305654Y-134512023D01*
X476686607Y-134473928D01*
X476648511Y-134512023D01*
X476610416Y-134588214D01*
X476610416Y-134778690D01*
X476648511Y-134854880D01*
X476686607Y-134892976D01*
X476762797Y-134931071D01*
X476953273Y-134931071D01*
X477029464Y-134892976D01*
X477067559Y-134854880D01*
X477105654Y-134778690D01*
X477105654Y-134588214D01*
X477067559Y-134512023D01*
X477029464Y-134473928D01*
X476686607Y-128955833D02*
X476686607Y-128689166D01*
X477105654Y-128689166D02*
X476305654Y-128689166D01*
X476305654Y-129070119D01*
X477105654Y-129793928D02*
X477105654Y-129336785D01*
X477105654Y-129565357D02*
X476305654Y-129565357D01*
X476419940Y-129489166D01*
X476496130Y-129412976D01*
X476534226Y-129336785D01*
X477029464Y-131629166D02*
X477067559Y-131591071D01*
X477105654Y-131476785D01*
X477105654Y-131400595D01*
X477067559Y-131286309D01*
X476991369Y-131210119D01*
X476915178Y-131172023D01*
X476762797Y-131133928D01*
X476648511Y-131133928D01*
X476496130Y-131172023D01*
X476419940Y-131210119D01*
X476343750Y-131286309D01*
X476305654Y-131400595D01*
X476305654Y-131476785D01*
X476343750Y-131591071D01*
X476381845Y-131629166D01*
X476305654Y-131895833D02*
X476305654Y-132429166D01*
X477105654Y-132086309D01*
X476808047Y-125197508D02*
X476902328Y-125244648D01*
X476949469Y-125244648D01*
X477020179Y-125221078D01*
X477090890Y-125150367D01*
X477114460Y-125079657D01*
X477114460Y-125032516D01*
X477090890Y-124961806D01*
X476902328Y-124773244D01*
X476407353Y-125268219D01*
X476572345Y-125433210D01*
X476643056Y-125456780D01*
X476690196Y-125456780D01*
X476760907Y-125433210D01*
X476808047Y-125386070D01*
X476831617Y-125315359D01*
X476831617Y-125268219D01*
X476808047Y-125197508D01*
X476643056Y-125032516D01*
X477114460Y-125975325D02*
X477020179Y-125881044D01*
X476996609Y-125810334D01*
X476996609Y-125763193D01*
X477020179Y-125645342D01*
X477090890Y-125527491D01*
X477279452Y-125338929D01*
X477350162Y-125315359D01*
X477397303Y-125315359D01*
X477468014Y-125338929D01*
X477562294Y-125433210D01*
X477585865Y-125503921D01*
X477585865Y-125551061D01*
X477562294Y-125621772D01*
X477444443Y-125739623D01*
X477373733Y-125763193D01*
X477326592Y-125763193D01*
X477255882Y-125739623D01*
X477161601Y-125645342D01*
X477138030Y-125574632D01*
X477138030Y-125527491D01*
X477161601Y-125456780D01*
X476893750Y-127029166D02*
X476893750Y-126795833D01*
X477260416Y-126795833D02*
X476560416Y-126795833D01*
X476560416Y-127129166D01*
X476560416Y-127529166D02*
X476560416Y-127595833D01*
X476593750Y-127662500D01*
X476627083Y-127695833D01*
X476693750Y-127729166D01*
X476827083Y-127762500D01*
X476993750Y-127762500D01*
X477127083Y-127729166D01*
X477193750Y-127695833D01*
X477227083Y-127662500D01*
X477260416Y-127595833D01*
X477260416Y-127529166D01*
X477227083Y-127462500D01*
X477193750Y-127429166D01*
X477127083Y-127395833D01*
X476993750Y-127362500D01*
X476827083Y-127362500D01*
X476693750Y-127395833D01*
X476627083Y-127429166D01*
X476593750Y-127462500D01*
X476560416Y-127529166D01*
X476893750Y-135979166D02*
X476927083Y-136079166D01*
X476960416Y-136112500D01*
X477027083Y-136145833D01*
X477127083Y-136145833D01*
X477193750Y-136112500D01*
X477227083Y-136079166D01*
X477260416Y-136012500D01*
X477260416Y-135745833D01*
X476560416Y-135745833D01*
X476560416Y-135979166D01*
X476593750Y-136045833D01*
X476627083Y-136079166D01*
X476693750Y-136112500D01*
X476760416Y-136112500D01*
X476827083Y-136079166D01*
X476860416Y-136045833D01*
X476893750Y-135979166D01*
X476893750Y-135745833D01*
X476560416Y-136379166D02*
X476560416Y-136845833D01*
X477260416Y-136545833D01*
X455757559Y-126189166D02*
X455795654Y-126303452D01*
X455795654Y-126493928D01*
X455757559Y-126570119D01*
X455719464Y-126608214D01*
X455643273Y-126646309D01*
X455567083Y-126646309D01*
X455490892Y-126608214D01*
X455452797Y-126570119D01*
X455414702Y-126493928D01*
X455376607Y-126341547D01*
X455338511Y-126265357D01*
X455300416Y-126227261D01*
X455224226Y-126189166D01*
X455148035Y-126189166D01*
X455071845Y-126227261D01*
X455033750Y-126265357D01*
X454995654Y-126341547D01*
X454995654Y-126532023D01*
X455033750Y-126646309D01*
X454995654Y-126874880D02*
X454995654Y-127332023D01*
X455795654Y-127103452D02*
X454995654Y-127103452D01*
X449935654Y-133143895D02*
X449935654Y-133601038D01*
X450735654Y-133372467D02*
X449935654Y-133372467D01*
X449935654Y-133791514D02*
X450735654Y-134324848D01*
X449935654Y-134324848D02*
X450735654Y-133791514D01*
X449935654Y-134781991D02*
X449935654Y-134858181D01*
X449973750Y-134934372D01*
X450011845Y-134972467D01*
X450088035Y-135010562D01*
X450240416Y-135048657D01*
X450430892Y-135048657D01*
X450583273Y-135010562D01*
X450659464Y-134972467D01*
X450697559Y-134934372D01*
X450735654Y-134858181D01*
X450735654Y-134781991D01*
X450697559Y-134705800D01*
X450659464Y-134667705D01*
X450583273Y-134629610D01*
X450430892Y-134591514D01*
X450240416Y-134591514D01*
X450088035Y-134629610D01*
X450011845Y-134667705D01*
X449973750Y-134705800D01*
X449935654Y-134781991D01*
X449897559Y-135962943D02*
X450926130Y-135277229D01*
X450735654Y-136229610D02*
X449935654Y-136229610D01*
X449935654Y-136420086D01*
X449973750Y-136534372D01*
X450049940Y-136610562D01*
X450126130Y-136648657D01*
X450278511Y-136686752D01*
X450392797Y-136686752D01*
X450545178Y-136648657D01*
X450621369Y-136610562D01*
X450697559Y-136534372D01*
X450735654Y-136420086D01*
X450735654Y-136229610D01*
X449935654Y-136953419D02*
X449935654Y-137448657D01*
X450240416Y-137181991D01*
X450240416Y-137296276D01*
X450278511Y-137372467D01*
X450316607Y-137410562D01*
X450392797Y-137448657D01*
X450583273Y-137448657D01*
X450659464Y-137410562D01*
X450697559Y-137372467D01*
X450735654Y-137296276D01*
X450735654Y-137067705D01*
X450697559Y-136991514D01*
X450659464Y-136953419D01*
X475716607Y-125977690D02*
X475754702Y-126091976D01*
X475792797Y-126130071D01*
X475868988Y-126168166D01*
X475983273Y-126168166D01*
X476059464Y-126130071D01*
X476097559Y-126091976D01*
X476135654Y-126015785D01*
X476135654Y-125711023D01*
X475335654Y-125711023D01*
X475335654Y-125977690D01*
X475373750Y-126053880D01*
X475411845Y-126091976D01*
X475488035Y-126130071D01*
X475564226Y-126130071D01*
X475640416Y-126091976D01*
X475678511Y-126053880D01*
X475716607Y-125977690D01*
X475716607Y-125711023D01*
X475411845Y-126472928D02*
X475373750Y-126511023D01*
X475335654Y-126587214D01*
X475335654Y-126777690D01*
X475373750Y-126853880D01*
X475411845Y-126891976D01*
X475488035Y-126930071D01*
X475564226Y-126930071D01*
X475678511Y-126891976D01*
X476135654Y-126434833D01*
X476135654Y-126930071D01*
X468096607Y-126034833D02*
X468096607Y-125768166D01*
X468515654Y-125768166D02*
X467715654Y-125768166D01*
X467715654Y-126149119D01*
X467715654Y-126377690D02*
X467715654Y-126911023D01*
X468515654Y-126568166D01*
X465556607Y-126034833D02*
X465556607Y-125768166D01*
X465975654Y-125768166D02*
X465175654Y-125768166D01*
X465175654Y-126149119D01*
X465175654Y-126796738D02*
X465175654Y-126644357D01*
X465213750Y-126568166D01*
X465251845Y-126530071D01*
X465366130Y-126453880D01*
X465518511Y-126415785D01*
X465823273Y-126415785D01*
X465899464Y-126453880D01*
X465937559Y-126491976D01*
X465975654Y-126568166D01*
X465975654Y-126720547D01*
X465937559Y-126796738D01*
X465899464Y-126834833D01*
X465823273Y-126872928D01*
X465632797Y-126872928D01*
X465556607Y-126834833D01*
X465518511Y-126796738D01*
X465480416Y-126720547D01*
X465480416Y-126568166D01*
X465518511Y-126491976D01*
X465556607Y-126453880D01*
X465632797Y-126415785D01*
X463016607Y-126034833D02*
X463016607Y-125768166D01*
X463435654Y-125768166D02*
X462635654Y-125768166D01*
X462635654Y-126149119D01*
X462635654Y-126834833D02*
X462635654Y-126453880D01*
X463016607Y-126415785D01*
X462978511Y-126453880D01*
X462940416Y-126530071D01*
X462940416Y-126720547D01*
X462978511Y-126796738D01*
X463016607Y-126834833D01*
X463092797Y-126872928D01*
X463283273Y-126872928D01*
X463359464Y-126834833D01*
X463397559Y-126796738D01*
X463435654Y-126720547D01*
X463435654Y-126530071D01*
X463397559Y-126453880D01*
X463359464Y-126415785D01*
X450316607Y-125977690D02*
X450354702Y-126091976D01*
X450392797Y-126130071D01*
X450468988Y-126168166D01*
X450583273Y-126168166D01*
X450659464Y-126130071D01*
X450697559Y-126091976D01*
X450735654Y-126015785D01*
X450735654Y-125711023D01*
X449935654Y-125711023D01*
X449935654Y-125977690D01*
X449973750Y-126053880D01*
X450011845Y-126091976D01*
X450088035Y-126130071D01*
X450164226Y-126130071D01*
X450240416Y-126091976D01*
X450278511Y-126053880D01*
X450316607Y-125977690D01*
X450316607Y-125711023D01*
X449935654Y-126663404D02*
X449935654Y-126739595D01*
X449973750Y-126815785D01*
X450011845Y-126853880D01*
X450088035Y-126891976D01*
X450240416Y-126930071D01*
X450430892Y-126930071D01*
X450583273Y-126891976D01*
X450659464Y-126853880D01*
X450697559Y-126815785D01*
X450735654Y-126739595D01*
X450735654Y-126663404D01*
X450697559Y-126587214D01*
X450659464Y-126549119D01*
X450583273Y-126511023D01*
X450430892Y-126472928D01*
X450240416Y-126472928D01*
X450088035Y-126511023D01*
X450011845Y-126549119D01*
X449973750Y-126587214D01*
X449935654Y-126663404D01*
X452513750Y-125691976D02*
X452475654Y-125615785D01*
X452475654Y-125501500D01*
X452513750Y-125387214D01*
X452589940Y-125311023D01*
X452666130Y-125272928D01*
X452818511Y-125234833D01*
X452932797Y-125234833D01*
X453085178Y-125272928D01*
X453161369Y-125311023D01*
X453237559Y-125387214D01*
X453275654Y-125501500D01*
X453275654Y-125577690D01*
X453237559Y-125691976D01*
X453199464Y-125730071D01*
X452932797Y-125730071D01*
X452932797Y-125577690D01*
X453275654Y-126072928D02*
X452475654Y-126072928D01*
X453275654Y-126530071D01*
X452475654Y-126530071D01*
X453275654Y-126911023D02*
X452475654Y-126911023D01*
X452475654Y-127101500D01*
X452513750Y-127215785D01*
X452589940Y-127291976D01*
X452666130Y-127330071D01*
X452818511Y-127368166D01*
X452932797Y-127368166D01*
X453085178Y-127330071D01*
X453161369Y-127291976D01*
X453237559Y-127215785D01*
X453275654Y-127101500D01*
X453275654Y-126911023D01*
X457555654Y-125234833D02*
X458355654Y-125501500D01*
X457555654Y-125768166D01*
X458279464Y-126491976D02*
X458317559Y-126453880D01*
X458355654Y-126339595D01*
X458355654Y-126263404D01*
X458317559Y-126149119D01*
X458241369Y-126072928D01*
X458165178Y-126034833D01*
X458012797Y-125996738D01*
X457898511Y-125996738D01*
X457746130Y-126034833D01*
X457669940Y-126072928D01*
X457593750Y-126149119D01*
X457555654Y-126263404D01*
X457555654Y-126339595D01*
X457593750Y-126453880D01*
X457631845Y-126491976D01*
X458279464Y-127291976D02*
X458317559Y-127253880D01*
X458355654Y-127139595D01*
X458355654Y-127063404D01*
X458317559Y-126949119D01*
X458241369Y-126872928D01*
X458165178Y-126834833D01*
X458012797Y-126796738D01*
X457898511Y-126796738D01*
X457746130Y-126834833D01*
X457669940Y-126872928D01*
X457593750Y-126949119D01*
X457555654Y-127063404D01*
X457555654Y-127139595D01*
X457593750Y-127253880D01*
X457631845Y-127291976D01*
X460476607Y-126034833D02*
X460476607Y-125768166D01*
X460895654Y-125768166D02*
X460095654Y-125768166D01*
X460095654Y-126149119D01*
X460362321Y-126796738D02*
X460895654Y-126796738D01*
X460057559Y-126606261D02*
X460628988Y-126415785D01*
X460628988Y-126911023D01*
X470636607Y-125977690D02*
X470674702Y-126091976D01*
X470712797Y-126130071D01*
X470788988Y-126168166D01*
X470903273Y-126168166D01*
X470979464Y-126130071D01*
X471017559Y-126091976D01*
X471055654Y-126015785D01*
X471055654Y-125711023D01*
X470255654Y-125711023D01*
X470255654Y-125977690D01*
X470293750Y-126053880D01*
X470331845Y-126091976D01*
X470408035Y-126130071D01*
X470484226Y-126130071D01*
X470560416Y-126091976D01*
X470598511Y-126053880D01*
X470636607Y-125977690D01*
X470636607Y-125711023D01*
X471055654Y-126930071D02*
X471055654Y-126472928D01*
X471055654Y-126701500D02*
X470255654Y-126701500D01*
X470369940Y-126625309D01*
X470446130Y-126549119D01*
X470484226Y-126472928D01*
X473176607Y-125977690D02*
X473214702Y-126091976D01*
X473252797Y-126130071D01*
X473328988Y-126168166D01*
X473443273Y-126168166D01*
X473519464Y-126130071D01*
X473557559Y-126091976D01*
X473595654Y-126015785D01*
X473595654Y-125711023D01*
X472795654Y-125711023D01*
X472795654Y-125977690D01*
X472833750Y-126053880D01*
X472871845Y-126091976D01*
X472948035Y-126130071D01*
X473024226Y-126130071D01*
X473100416Y-126091976D01*
X473138511Y-126053880D01*
X473176607Y-125977690D01*
X473176607Y-125711023D01*
X472795654Y-126434833D02*
X472795654Y-126930071D01*
X473100416Y-126663404D01*
X473100416Y-126777690D01*
X473138511Y-126853880D01*
X473176607Y-126891976D01*
X473252797Y-126930071D01*
X473443273Y-126930071D01*
X473519464Y-126891976D01*
X473557559Y-126853880D01*
X473595654Y-126777690D01*
X473595654Y-126549119D01*
X473557559Y-126472928D01*
X473519464Y-126434833D01*
X477208741Y-137926797D02*
X477161601Y-138021078D01*
X477161601Y-138068219D01*
X477185171Y-138138929D01*
X477255882Y-138209640D01*
X477326592Y-138233210D01*
X477373733Y-138233210D01*
X477444443Y-138209640D01*
X477633005Y-138021078D01*
X477138030Y-137526103D01*
X476973039Y-137691095D01*
X476949469Y-137761806D01*
X476949469Y-137808946D01*
X476973039Y-137879657D01*
X477020179Y-137926797D01*
X477090890Y-137950367D01*
X477138030Y-137950367D01*
X477208741Y-137926797D01*
X477373733Y-137761806D01*
X476407353Y-138256780D02*
X476643056Y-138021078D01*
X476902328Y-138233210D01*
X476855188Y-138233210D01*
X476784477Y-138256780D01*
X476666626Y-138374632D01*
X476643056Y-138445342D01*
X476643056Y-138492483D01*
X476666626Y-138563193D01*
X476784477Y-138681044D01*
X476855188Y-138704615D01*
X476902328Y-138704615D01*
X476973039Y-138681044D01*
X477090890Y-138563193D01*
X477114460Y-138492483D01*
X477114460Y-138445342D01*
X475716607Y-136899690D02*
X475754702Y-137013976D01*
X475792797Y-137052071D01*
X475868988Y-137090166D01*
X475983273Y-137090166D01*
X476059464Y-137052071D01*
X476097559Y-137013976D01*
X476135654Y-136937785D01*
X476135654Y-136633023D01*
X475335654Y-136633023D01*
X475335654Y-136899690D01*
X475373750Y-136975880D01*
X475411845Y-137013976D01*
X475488035Y-137052071D01*
X475564226Y-137052071D01*
X475640416Y-137013976D01*
X475678511Y-136975880D01*
X475716607Y-136899690D01*
X475716607Y-136633023D01*
X475602321Y-137775880D02*
X476135654Y-137775880D01*
X475297559Y-137585404D02*
X475868988Y-137394928D01*
X475868988Y-137890166D01*
X473176607Y-136671119D02*
X473176607Y-136937785D01*
X473595654Y-137052071D02*
X473595654Y-136671119D01*
X472795654Y-136671119D01*
X472795654Y-137052071D01*
X472795654Y-137737785D02*
X472795654Y-137585404D01*
X472833750Y-137509214D01*
X472871845Y-137471119D01*
X472986130Y-137394928D01*
X473138511Y-137356833D01*
X473443273Y-137356833D01*
X473519464Y-137394928D01*
X473557559Y-137433023D01*
X473595654Y-137509214D01*
X473595654Y-137661595D01*
X473557559Y-137737785D01*
X473519464Y-137775880D01*
X473443273Y-137813976D01*
X473252797Y-137813976D01*
X473176607Y-137775880D01*
X473138511Y-137737785D01*
X473100416Y-137661595D01*
X473100416Y-137509214D01*
X473138511Y-137433023D01*
X473176607Y-137394928D01*
X473252797Y-137356833D01*
X471055654Y-136633023D02*
X470255654Y-136633023D01*
X470255654Y-136823500D01*
X470293750Y-136937785D01*
X470369940Y-137013976D01*
X470446130Y-137052071D01*
X470598511Y-137090166D01*
X470712797Y-137090166D01*
X470865178Y-137052071D01*
X470941369Y-137013976D01*
X471017559Y-136937785D01*
X471055654Y-136823500D01*
X471055654Y-136633023D01*
X470255654Y-137356833D02*
X470255654Y-137890166D01*
X471055654Y-137547309D01*
X468439464Y-137090166D02*
X468477559Y-137052071D01*
X468515654Y-136937785D01*
X468515654Y-136861595D01*
X468477559Y-136747309D01*
X468401369Y-136671119D01*
X468325178Y-136633023D01*
X468172797Y-136594928D01*
X468058511Y-136594928D01*
X467906130Y-136633023D01*
X467829940Y-136671119D01*
X467753750Y-136747309D01*
X467715654Y-136861595D01*
X467715654Y-136937785D01*
X467753750Y-137052071D01*
X467791845Y-137090166D01*
X467715654Y-137775880D02*
X467715654Y-137623500D01*
X467753750Y-137547309D01*
X467791845Y-137509214D01*
X467906130Y-137433023D01*
X468058511Y-137394928D01*
X468363273Y-137394928D01*
X468439464Y-137433023D01*
X468477559Y-137471119D01*
X468515654Y-137547309D01*
X468515654Y-137699690D01*
X468477559Y-137775880D01*
X468439464Y-137813976D01*
X468363273Y-137852071D01*
X468172797Y-137852071D01*
X468096607Y-137813976D01*
X468058511Y-137775880D01*
X468020416Y-137699690D01*
X468020416Y-137547309D01*
X468058511Y-137471119D01*
X468096607Y-137433023D01*
X468172797Y-137394928D01*
X465975654Y-136633023D02*
X465175654Y-136633023D01*
X465175654Y-136823500D01*
X465213750Y-136937785D01*
X465289940Y-137013976D01*
X465366130Y-137052071D01*
X465518511Y-137090166D01*
X465632797Y-137090166D01*
X465785178Y-137052071D01*
X465861369Y-137013976D01*
X465937559Y-136937785D01*
X465975654Y-136823500D01*
X465975654Y-136633023D01*
X465442321Y-137775880D02*
X465975654Y-137775880D01*
X465137559Y-137585404D02*
X465708988Y-137394928D01*
X465708988Y-137890166D01*
X455053750Y-136613976D02*
X455015654Y-136537785D01*
X455015654Y-136423500D01*
X455053750Y-136309214D01*
X455129940Y-136233023D01*
X455206130Y-136194928D01*
X455358511Y-136156833D01*
X455472797Y-136156833D01*
X455625178Y-136194928D01*
X455701369Y-136233023D01*
X455777559Y-136309214D01*
X455815654Y-136423500D01*
X455815654Y-136499690D01*
X455777559Y-136613976D01*
X455739464Y-136652071D01*
X455472797Y-136652071D01*
X455472797Y-136499690D01*
X455815654Y-136994928D02*
X455015654Y-136994928D01*
X455815654Y-137452071D01*
X455015654Y-137452071D01*
X455815654Y-137833023D02*
X455015654Y-137833023D01*
X455015654Y-138023500D01*
X455053750Y-138137785D01*
X455129940Y-138213976D01*
X455206130Y-138252071D01*
X455358511Y-138290166D01*
X455472797Y-138290166D01*
X455625178Y-138252071D01*
X455701369Y-138213976D01*
X455777559Y-138137785D01*
X455815654Y-138023500D01*
X455815654Y-137833023D01*
X457593750Y-136613976D02*
X457555654Y-136537785D01*
X457555654Y-136423500D01*
X457593750Y-136309214D01*
X457669940Y-136233023D01*
X457746130Y-136194928D01*
X457898511Y-136156833D01*
X458012797Y-136156833D01*
X458165178Y-136194928D01*
X458241369Y-136233023D01*
X458317559Y-136309214D01*
X458355654Y-136423500D01*
X458355654Y-136499690D01*
X458317559Y-136613976D01*
X458279464Y-136652071D01*
X458012797Y-136652071D01*
X458012797Y-136499690D01*
X458355654Y-136994928D02*
X457555654Y-136994928D01*
X458355654Y-137452071D01*
X457555654Y-137452071D01*
X458355654Y-137833023D02*
X457555654Y-137833023D01*
X457555654Y-138023500D01*
X457593750Y-138137785D01*
X457669940Y-138213976D01*
X457746130Y-138252071D01*
X457898511Y-138290166D01*
X458012797Y-138290166D01*
X458165178Y-138252071D01*
X458241369Y-138213976D01*
X458317559Y-138137785D01*
X458355654Y-138023500D01*
X458355654Y-137833023D01*
X460895654Y-136633023D02*
X460095654Y-136633023D01*
X460095654Y-136823500D01*
X460133750Y-136937785D01*
X460209940Y-137013976D01*
X460286130Y-137052071D01*
X460438511Y-137090166D01*
X460552797Y-137090166D01*
X460705178Y-137052071D01*
X460781369Y-137013976D01*
X460857559Y-136937785D01*
X460895654Y-136823500D01*
X460895654Y-136633023D01*
X460895654Y-137852071D02*
X460895654Y-137394928D01*
X460895654Y-137623500D02*
X460095654Y-137623500D01*
X460209940Y-137547309D01*
X460286130Y-137471119D01*
X460324226Y-137394928D01*
X463435654Y-136633023D02*
X462635654Y-136633023D01*
X462635654Y-136823500D01*
X462673750Y-136937785D01*
X462749940Y-137013976D01*
X462826130Y-137052071D01*
X462978511Y-137090166D01*
X463092797Y-137090166D01*
X463245178Y-137052071D01*
X463321369Y-137013976D01*
X463397559Y-136937785D01*
X463435654Y-136823500D01*
X463435654Y-136633023D01*
X462635654Y-137585404D02*
X462635654Y-137661595D01*
X462673750Y-137737785D01*
X462711845Y-137775880D01*
X462788035Y-137813976D01*
X462940416Y-137852071D01*
X463130892Y-137852071D01*
X463283273Y-137813976D01*
X463359464Y-137775880D01*
X463397559Y-137737785D01*
X463435654Y-137661595D01*
X463435654Y-137585404D01*
X463397559Y-137509214D01*
X463359464Y-137471119D01*
X463283273Y-137433023D01*
X463130892Y-137394928D01*
X462940416Y-137394928D01*
X462788035Y-137433023D01*
X462711845Y-137471119D01*
X462673750Y-137509214D01*
X462635654Y-137585404D01*
X453275654Y-136633023D02*
X452475654Y-136633023D01*
X452475654Y-136823500D01*
X452513750Y-136937785D01*
X452589940Y-137013976D01*
X452666130Y-137052071D01*
X452818511Y-137090166D01*
X452932797Y-137090166D01*
X453085178Y-137052071D01*
X453161369Y-137013976D01*
X453237559Y-136937785D01*
X453275654Y-136823500D01*
X453275654Y-136633023D01*
X452551845Y-137394928D02*
X452513750Y-137433023D01*
X452475654Y-137509214D01*
X452475654Y-137699690D01*
X452513750Y-137775880D01*
X452551845Y-137813976D01*
X452628035Y-137852071D01*
X452704226Y-137852071D01*
X452818511Y-137813976D01*
X453275654Y-137356833D01*
X453275654Y-137852071D01*
%TO.C,U1*%
X302127559Y-136269166D02*
X302165654Y-136383452D01*
X302165654Y-136573928D01*
X302127559Y-136650119D01*
X302089464Y-136688214D01*
X302013273Y-136726309D01*
X301937083Y-136726309D01*
X301860892Y-136688214D01*
X301822797Y-136650119D01*
X301784702Y-136573928D01*
X301746607Y-136421547D01*
X301708511Y-136345357D01*
X301670416Y-136307261D01*
X301594226Y-136269166D01*
X301518035Y-136269166D01*
X301441845Y-136307261D01*
X301403750Y-136345357D01*
X301365654Y-136421547D01*
X301365654Y-136612023D01*
X301403750Y-136726309D01*
X301365654Y-136954880D02*
X301365654Y-137412023D01*
X302165654Y-137183452D02*
X301365654Y-137183452D01*
X306425654Y-126000151D02*
X306425654Y-126457294D01*
X307225654Y-126228723D02*
X306425654Y-126228723D01*
X306425654Y-126647770D02*
X307225654Y-127181104D01*
X306425654Y-127181104D02*
X307225654Y-126647770D01*
X306425654Y-127638247D02*
X306425654Y-127714437D01*
X306463750Y-127790628D01*
X306501845Y-127828723D01*
X306578035Y-127866818D01*
X306730416Y-127904913D01*
X306920892Y-127904913D01*
X307073273Y-127866818D01*
X307149464Y-127828723D01*
X307187559Y-127790628D01*
X307225654Y-127714437D01*
X307225654Y-127638247D01*
X307187559Y-127562056D01*
X307149464Y-127523961D01*
X307073273Y-127485866D01*
X306920892Y-127447770D01*
X306730416Y-127447770D01*
X306578035Y-127485866D01*
X306501845Y-127523961D01*
X306463750Y-127562056D01*
X306425654Y-127638247D01*
X306387559Y-128819199D02*
X307416130Y-128133485D01*
X307225654Y-129085866D02*
X306425654Y-129085866D01*
X306425654Y-129276342D01*
X306463750Y-129390628D01*
X306539940Y-129466818D01*
X306616130Y-129504913D01*
X306768511Y-129543008D01*
X306882797Y-129543008D01*
X307035178Y-129504913D01*
X307111369Y-129466818D01*
X307187559Y-129390628D01*
X307225654Y-129276342D01*
X307225654Y-129085866D01*
X306425654Y-129809675D02*
X306425654Y-130304913D01*
X306730416Y-130038247D01*
X306730416Y-130152532D01*
X306768511Y-130228723D01*
X306806607Y-130266818D01*
X306882797Y-130304913D01*
X307073273Y-130304913D01*
X307149464Y-130266818D01*
X307187559Y-130228723D01*
X307225654Y-130152532D01*
X307225654Y-129923961D01*
X307187559Y-129847770D01*
X307149464Y-129809675D01*
X281406607Y-136899690D02*
X281444702Y-137013976D01*
X281482797Y-137052071D01*
X281558988Y-137090166D01*
X281673273Y-137090166D01*
X281749464Y-137052071D01*
X281787559Y-137013976D01*
X281825654Y-136937785D01*
X281825654Y-136633023D01*
X281025654Y-136633023D01*
X281025654Y-136899690D01*
X281063750Y-136975880D01*
X281101845Y-137013976D01*
X281178035Y-137052071D01*
X281254226Y-137052071D01*
X281330416Y-137013976D01*
X281368511Y-136975880D01*
X281406607Y-136899690D01*
X281406607Y-136633023D01*
X281101845Y-137394928D02*
X281063750Y-137433023D01*
X281025654Y-137509214D01*
X281025654Y-137699690D01*
X281063750Y-137775880D01*
X281101845Y-137813976D01*
X281178035Y-137852071D01*
X281254226Y-137852071D01*
X281368511Y-137813976D01*
X281825654Y-137356833D01*
X281825654Y-137852071D01*
X289026607Y-136956833D02*
X289026607Y-136690166D01*
X289445654Y-136690166D02*
X288645654Y-136690166D01*
X288645654Y-137071119D01*
X288645654Y-137299690D02*
X288645654Y-137833023D01*
X289445654Y-137490166D01*
X291566607Y-136956833D02*
X291566607Y-136690166D01*
X291985654Y-136690166D02*
X291185654Y-136690166D01*
X291185654Y-137071119D01*
X291185654Y-137718738D02*
X291185654Y-137566357D01*
X291223750Y-137490166D01*
X291261845Y-137452071D01*
X291376130Y-137375880D01*
X291528511Y-137337785D01*
X291833273Y-137337785D01*
X291909464Y-137375880D01*
X291947559Y-137413976D01*
X291985654Y-137490166D01*
X291985654Y-137642547D01*
X291947559Y-137718738D01*
X291909464Y-137756833D01*
X291833273Y-137794928D01*
X291642797Y-137794928D01*
X291566607Y-137756833D01*
X291528511Y-137718738D01*
X291490416Y-137642547D01*
X291490416Y-137490166D01*
X291528511Y-137413976D01*
X291566607Y-137375880D01*
X291642797Y-137337785D01*
X294106607Y-136956833D02*
X294106607Y-136690166D01*
X294525654Y-136690166D02*
X293725654Y-136690166D01*
X293725654Y-137071119D01*
X293725654Y-137756833D02*
X293725654Y-137375880D01*
X294106607Y-137337785D01*
X294068511Y-137375880D01*
X294030416Y-137452071D01*
X294030416Y-137642547D01*
X294068511Y-137718738D01*
X294106607Y-137756833D01*
X294182797Y-137794928D01*
X294373273Y-137794928D01*
X294449464Y-137756833D01*
X294487559Y-137718738D01*
X294525654Y-137642547D01*
X294525654Y-137452071D01*
X294487559Y-137375880D01*
X294449464Y-137337785D01*
X307225654Y-136671119D02*
X306844702Y-136404452D01*
X307225654Y-136213976D02*
X306425654Y-136213976D01*
X306425654Y-136518738D01*
X306463750Y-136594928D01*
X306501845Y-136633023D01*
X306578035Y-136671119D01*
X306692321Y-136671119D01*
X306768511Y-136633023D01*
X306806607Y-136594928D01*
X306844702Y-136518738D01*
X306844702Y-136213976D01*
X306997083Y-136975880D02*
X306997083Y-137356833D01*
X307225654Y-136899690D02*
X306425654Y-137166357D01*
X307225654Y-137433023D01*
X306425654Y-137623500D02*
X307225654Y-137813976D01*
X306654226Y-137966357D01*
X307225654Y-138118738D01*
X306425654Y-138309214D01*
X303923750Y-136613976D02*
X303885654Y-136537785D01*
X303885654Y-136423500D01*
X303923750Y-136309214D01*
X303999940Y-136233023D01*
X304076130Y-136194928D01*
X304228511Y-136156833D01*
X304342797Y-136156833D01*
X304495178Y-136194928D01*
X304571369Y-136233023D01*
X304647559Y-136309214D01*
X304685654Y-136423500D01*
X304685654Y-136499690D01*
X304647559Y-136613976D01*
X304609464Y-136652071D01*
X304342797Y-136652071D01*
X304342797Y-136499690D01*
X304685654Y-136994928D02*
X303885654Y-136994928D01*
X304685654Y-137452071D01*
X303885654Y-137452071D01*
X304685654Y-137833023D02*
X303885654Y-137833023D01*
X303885654Y-138023500D01*
X303923750Y-138137785D01*
X303999940Y-138213976D01*
X304076130Y-138252071D01*
X304228511Y-138290166D01*
X304342797Y-138290166D01*
X304495178Y-138252071D01*
X304571369Y-138213976D01*
X304647559Y-138137785D01*
X304685654Y-138023500D01*
X304685654Y-137833023D01*
X298805654Y-136156833D02*
X299605654Y-136423500D01*
X298805654Y-136690166D01*
X299529464Y-137413976D02*
X299567559Y-137375880D01*
X299605654Y-137261595D01*
X299605654Y-137185404D01*
X299567559Y-137071119D01*
X299491369Y-136994928D01*
X299415178Y-136956833D01*
X299262797Y-136918738D01*
X299148511Y-136918738D01*
X298996130Y-136956833D01*
X298919940Y-136994928D01*
X298843750Y-137071119D01*
X298805654Y-137185404D01*
X298805654Y-137261595D01*
X298843750Y-137375880D01*
X298881845Y-137413976D01*
X299529464Y-138213976D02*
X299567559Y-138175880D01*
X299605654Y-138061595D01*
X299605654Y-137985404D01*
X299567559Y-137871119D01*
X299491369Y-137794928D01*
X299415178Y-137756833D01*
X299262797Y-137718738D01*
X299148511Y-137718738D01*
X298996130Y-137756833D01*
X298919940Y-137794928D01*
X298843750Y-137871119D01*
X298805654Y-137985404D01*
X298805654Y-138061595D01*
X298843750Y-138175880D01*
X298881845Y-138213976D01*
X296646607Y-136956833D02*
X296646607Y-136690166D01*
X297065654Y-136690166D02*
X296265654Y-136690166D01*
X296265654Y-137071119D01*
X296532321Y-137718738D02*
X297065654Y-137718738D01*
X296227559Y-137528261D02*
X296798988Y-137337785D01*
X296798988Y-137833023D01*
X286486607Y-136899690D02*
X286524702Y-137013976D01*
X286562797Y-137052071D01*
X286638988Y-137090166D01*
X286753273Y-137090166D01*
X286829464Y-137052071D01*
X286867559Y-137013976D01*
X286905654Y-136937785D01*
X286905654Y-136633023D01*
X286105654Y-136633023D01*
X286105654Y-136899690D01*
X286143750Y-136975880D01*
X286181845Y-137013976D01*
X286258035Y-137052071D01*
X286334226Y-137052071D01*
X286410416Y-137013976D01*
X286448511Y-136975880D01*
X286486607Y-136899690D01*
X286486607Y-136633023D01*
X286905654Y-137852071D02*
X286905654Y-137394928D01*
X286905654Y-137623500D02*
X286105654Y-137623500D01*
X286219940Y-137547309D01*
X286296130Y-137471119D01*
X286334226Y-137394928D01*
X283946607Y-136899690D02*
X283984702Y-137013976D01*
X284022797Y-137052071D01*
X284098988Y-137090166D01*
X284213273Y-137090166D01*
X284289464Y-137052071D01*
X284327559Y-137013976D01*
X284365654Y-136937785D01*
X284365654Y-136633023D01*
X283565654Y-136633023D01*
X283565654Y-136899690D01*
X283603750Y-136975880D01*
X283641845Y-137013976D01*
X283718035Y-137052071D01*
X283794226Y-137052071D01*
X283870416Y-137013976D01*
X283908511Y-136975880D01*
X283946607Y-136899690D01*
X283946607Y-136633023D01*
X283565654Y-137356833D02*
X283565654Y-137852071D01*
X283870416Y-137585404D01*
X283870416Y-137699690D01*
X283908511Y-137775880D01*
X283946607Y-137813976D01*
X284022797Y-137852071D01*
X284213273Y-137852071D01*
X284289464Y-137813976D01*
X284327559Y-137775880D01*
X284365654Y-137699690D01*
X284365654Y-137471119D01*
X284327559Y-137394928D01*
X284289464Y-137356833D01*
X278866607Y-136899690D02*
X278904702Y-137013976D01*
X278942797Y-137052071D01*
X279018988Y-137090166D01*
X279133273Y-137090166D01*
X279209464Y-137052071D01*
X279247559Y-137013976D01*
X279285654Y-136937785D01*
X279285654Y-136633023D01*
X278485654Y-136633023D01*
X278485654Y-136899690D01*
X278523750Y-136975880D01*
X278561845Y-137013976D01*
X278638035Y-137052071D01*
X278714226Y-137052071D01*
X278790416Y-137013976D01*
X278828511Y-136975880D01*
X278866607Y-136899690D01*
X278866607Y-136633023D01*
X278485654Y-137775880D02*
X278485654Y-137623500D01*
X278523750Y-137547309D01*
X278561845Y-137509214D01*
X278676130Y-137433023D01*
X278828511Y-137394928D01*
X279133273Y-137394928D01*
X279209464Y-137433023D01*
X279247559Y-137471119D01*
X279285654Y-137547309D01*
X279285654Y-137699690D01*
X279247559Y-137775880D01*
X279209464Y-137813976D01*
X279133273Y-137852071D01*
X278942797Y-137852071D01*
X278866607Y-137813976D01*
X278828511Y-137775880D01*
X278790416Y-137699690D01*
X278790416Y-137547309D01*
X278828511Y-137471119D01*
X278866607Y-137433023D01*
X278942797Y-137394928D01*
X278866607Y-125977690D02*
X278904702Y-126091976D01*
X278942797Y-126130071D01*
X279018988Y-126168166D01*
X279133273Y-126168166D01*
X279209464Y-126130071D01*
X279247559Y-126091976D01*
X279285654Y-126015785D01*
X279285654Y-125711023D01*
X278485654Y-125711023D01*
X278485654Y-125977690D01*
X278523750Y-126053880D01*
X278561845Y-126091976D01*
X278638035Y-126130071D01*
X278714226Y-126130071D01*
X278790416Y-126091976D01*
X278828511Y-126053880D01*
X278866607Y-125977690D01*
X278866607Y-125711023D01*
X278485654Y-126891976D02*
X278485654Y-126511023D01*
X278866607Y-126472928D01*
X278828511Y-126511023D01*
X278790416Y-126587214D01*
X278790416Y-126777690D01*
X278828511Y-126853880D01*
X278866607Y-126891976D01*
X278942797Y-126930071D01*
X279133273Y-126930071D01*
X279209464Y-126891976D01*
X279247559Y-126853880D01*
X279285654Y-126777690D01*
X279285654Y-126587214D01*
X279247559Y-126511023D01*
X279209464Y-126472928D01*
X281406607Y-125977690D02*
X281444702Y-126091976D01*
X281482797Y-126130071D01*
X281558988Y-126168166D01*
X281673273Y-126168166D01*
X281749464Y-126130071D01*
X281787559Y-126091976D01*
X281825654Y-126015785D01*
X281825654Y-125711023D01*
X281025654Y-125711023D01*
X281025654Y-125977690D01*
X281063750Y-126053880D01*
X281101845Y-126091976D01*
X281178035Y-126130071D01*
X281254226Y-126130071D01*
X281330416Y-126091976D01*
X281368511Y-126053880D01*
X281406607Y-125977690D01*
X281406607Y-125711023D01*
X281292321Y-126853880D02*
X281825654Y-126853880D01*
X280987559Y-126663404D02*
X281558988Y-126472928D01*
X281558988Y-126968166D01*
X283946607Y-125749119D02*
X283946607Y-126015785D01*
X284365654Y-126130071D02*
X284365654Y-125749119D01*
X283565654Y-125749119D01*
X283565654Y-126130071D01*
X283565654Y-126815785D02*
X283565654Y-126663404D01*
X283603750Y-126587214D01*
X283641845Y-126549119D01*
X283756130Y-126472928D01*
X283908511Y-126434833D01*
X284213273Y-126434833D01*
X284289464Y-126472928D01*
X284327559Y-126511023D01*
X284365654Y-126587214D01*
X284365654Y-126739595D01*
X284327559Y-126815785D01*
X284289464Y-126853880D01*
X284213273Y-126891976D01*
X284022797Y-126891976D01*
X283946607Y-126853880D01*
X283908511Y-126815785D01*
X283870416Y-126739595D01*
X283870416Y-126587214D01*
X283908511Y-126511023D01*
X283946607Y-126472928D01*
X284022797Y-126434833D01*
X286905654Y-125711023D02*
X286105654Y-125711023D01*
X286105654Y-125901500D01*
X286143750Y-126015785D01*
X286219940Y-126091976D01*
X286296130Y-126130071D01*
X286448511Y-126168166D01*
X286562797Y-126168166D01*
X286715178Y-126130071D01*
X286791369Y-126091976D01*
X286867559Y-126015785D01*
X286905654Y-125901500D01*
X286905654Y-125711023D01*
X286105654Y-126434833D02*
X286105654Y-126968166D01*
X286905654Y-126625309D01*
X289369464Y-126168166D02*
X289407559Y-126130071D01*
X289445654Y-126015785D01*
X289445654Y-125939595D01*
X289407559Y-125825309D01*
X289331369Y-125749119D01*
X289255178Y-125711023D01*
X289102797Y-125672928D01*
X288988511Y-125672928D01*
X288836130Y-125711023D01*
X288759940Y-125749119D01*
X288683750Y-125825309D01*
X288645654Y-125939595D01*
X288645654Y-126015785D01*
X288683750Y-126130071D01*
X288721845Y-126168166D01*
X288645654Y-126853880D02*
X288645654Y-126701500D01*
X288683750Y-126625309D01*
X288721845Y-126587214D01*
X288836130Y-126511023D01*
X288988511Y-126472928D01*
X289293273Y-126472928D01*
X289369464Y-126511023D01*
X289407559Y-126549119D01*
X289445654Y-126625309D01*
X289445654Y-126777690D01*
X289407559Y-126853880D01*
X289369464Y-126891976D01*
X289293273Y-126930071D01*
X289102797Y-126930071D01*
X289026607Y-126891976D01*
X288988511Y-126853880D01*
X288950416Y-126777690D01*
X288950416Y-126625309D01*
X288988511Y-126549119D01*
X289026607Y-126511023D01*
X289102797Y-126472928D01*
X291985654Y-125711023D02*
X291185654Y-125711023D01*
X291185654Y-125901500D01*
X291223750Y-126015785D01*
X291299940Y-126091976D01*
X291376130Y-126130071D01*
X291528511Y-126168166D01*
X291642797Y-126168166D01*
X291795178Y-126130071D01*
X291871369Y-126091976D01*
X291947559Y-126015785D01*
X291985654Y-125901500D01*
X291985654Y-125711023D01*
X291452321Y-126853880D02*
X291985654Y-126853880D01*
X291147559Y-126663404D02*
X291718988Y-126472928D01*
X291718988Y-126968166D01*
X301383750Y-125691976D02*
X301345654Y-125615785D01*
X301345654Y-125501500D01*
X301383750Y-125387214D01*
X301459940Y-125311023D01*
X301536130Y-125272928D01*
X301688511Y-125234833D01*
X301802797Y-125234833D01*
X301955178Y-125272928D01*
X302031369Y-125311023D01*
X302107559Y-125387214D01*
X302145654Y-125501500D01*
X302145654Y-125577690D01*
X302107559Y-125691976D01*
X302069464Y-125730071D01*
X301802797Y-125730071D01*
X301802797Y-125577690D01*
X302145654Y-126072928D02*
X301345654Y-126072928D01*
X302145654Y-126530071D01*
X301345654Y-126530071D01*
X302145654Y-126911023D02*
X301345654Y-126911023D01*
X301345654Y-127101500D01*
X301383750Y-127215785D01*
X301459940Y-127291976D01*
X301536130Y-127330071D01*
X301688511Y-127368166D01*
X301802797Y-127368166D01*
X301955178Y-127330071D01*
X302031369Y-127291976D01*
X302107559Y-127215785D01*
X302145654Y-127101500D01*
X302145654Y-126911023D01*
X298843750Y-125691976D02*
X298805654Y-125615785D01*
X298805654Y-125501500D01*
X298843750Y-125387214D01*
X298919940Y-125311023D01*
X298996130Y-125272928D01*
X299148511Y-125234833D01*
X299262797Y-125234833D01*
X299415178Y-125272928D01*
X299491369Y-125311023D01*
X299567559Y-125387214D01*
X299605654Y-125501500D01*
X299605654Y-125577690D01*
X299567559Y-125691976D01*
X299529464Y-125730071D01*
X299262797Y-125730071D01*
X299262797Y-125577690D01*
X299605654Y-126072928D02*
X298805654Y-126072928D01*
X299605654Y-126530071D01*
X298805654Y-126530071D01*
X299605654Y-126911023D02*
X298805654Y-126911023D01*
X298805654Y-127101500D01*
X298843750Y-127215785D01*
X298919940Y-127291976D01*
X298996130Y-127330071D01*
X299148511Y-127368166D01*
X299262797Y-127368166D01*
X299415178Y-127330071D01*
X299491369Y-127291976D01*
X299567559Y-127215785D01*
X299605654Y-127101500D01*
X299605654Y-126911023D01*
X297065654Y-125711023D02*
X296265654Y-125711023D01*
X296265654Y-125901500D01*
X296303750Y-126015785D01*
X296379940Y-126091976D01*
X296456130Y-126130071D01*
X296608511Y-126168166D01*
X296722797Y-126168166D01*
X296875178Y-126130071D01*
X296951369Y-126091976D01*
X297027559Y-126015785D01*
X297065654Y-125901500D01*
X297065654Y-125711023D01*
X297065654Y-126930071D02*
X297065654Y-126472928D01*
X297065654Y-126701500D02*
X296265654Y-126701500D01*
X296379940Y-126625309D01*
X296456130Y-126549119D01*
X296494226Y-126472928D01*
X294525654Y-125711023D02*
X293725654Y-125711023D01*
X293725654Y-125901500D01*
X293763750Y-126015785D01*
X293839940Y-126091976D01*
X293916130Y-126130071D01*
X294068511Y-126168166D01*
X294182797Y-126168166D01*
X294335178Y-126130071D01*
X294411369Y-126091976D01*
X294487559Y-126015785D01*
X294525654Y-125901500D01*
X294525654Y-125711023D01*
X293725654Y-126663404D02*
X293725654Y-126739595D01*
X293763750Y-126815785D01*
X293801845Y-126853880D01*
X293878035Y-126891976D01*
X294030416Y-126930071D01*
X294220892Y-126930071D01*
X294373273Y-126891976D01*
X294449464Y-126853880D01*
X294487559Y-126815785D01*
X294525654Y-126739595D01*
X294525654Y-126663404D01*
X294487559Y-126587214D01*
X294449464Y-126549119D01*
X294373273Y-126511023D01*
X294220892Y-126472928D01*
X294030416Y-126472928D01*
X293878035Y-126511023D01*
X293801845Y-126549119D01*
X293763750Y-126587214D01*
X293725654Y-126663404D01*
X304685654Y-125711023D02*
X303885654Y-125711023D01*
X303885654Y-125901500D01*
X303923750Y-126015785D01*
X303999940Y-126091976D01*
X304076130Y-126130071D01*
X304228511Y-126168166D01*
X304342797Y-126168166D01*
X304495178Y-126130071D01*
X304571369Y-126091976D01*
X304647559Y-126015785D01*
X304685654Y-125901500D01*
X304685654Y-125711023D01*
X303961845Y-126472928D02*
X303923750Y-126511023D01*
X303885654Y-126587214D01*
X303885654Y-126777690D01*
X303923750Y-126853880D01*
X303961845Y-126891976D01*
X304038035Y-126930071D01*
X304114226Y-126930071D01*
X304228511Y-126891976D01*
X304685654Y-126434833D01*
X304685654Y-126930071D01*
%TD*%
M02*
